<svg xmlns="http://www.w3.org/2000/svg" viewBox="0 0 45.6 48.6"><title>Sub Cate - Tu Ke Gia Dinh</title><g id="Layer_2" data-name="Layer 2"><g id="Layer_1-2" data-name="Layer 1"><path d="M0,3V45.6a3,3,0,0,0,3,3H9.5l7.7-7.7H28.5l7.7,7.7h6.5a3,3,0,0,0,3-3V3a3,3,0,0,0-3-3H3A3,3,0,0,0,0,3ZM42.1,46.1H37.2l-6.8-6.8a3,3,0,0,0-2.1-.9H17.3a3,3,0,0,0-2.1.9L8.4,46.1H3.5a1,1,0,0,1-1-1V22.7a1,1,0,0,1,1-1H42.1a1,1,0,0,1,1,1V45.1A1,1,0,0,1,42.1,46.1Zm0-26.9H3.5a1,1,0,0,1-1-1V3.5a1,1,0,0,1,1-1H42.1a1,1,0,0,1,1,1V18.2A1,1,0,0,1,42.1,19.2Z"/><rect x="18.2" y="9.6" width="9.1" height="2.52" rx="1" ry="1"/><rect x="18.2" y="28.8" width="9.1" height="2.52" rx="1" ry="1"/></g></g></svg>