<svg xmlns="http://www.w3.org/2000/svg" viewBox="0 0 68.5 51.4"><title>Sub Cate - Bep Lo x Do Dien Nha Bep</title><g id="Layer_2" data-name="Layer 2"><g id="Layer_1-2" data-name="Layer 1"><path d="M68.3,50.1h0a1.1,1.1,0,0,1-.1.4A1.1,1.1,0,0,0,68.3,50.1Z"/><path d="M65.4,0H3.1A3.1,3.1,0,0,0,0,3.1V48.3a3.1,3.1,0,0,0,3.1,3.1H65.4a3.1,3.1,0,0,0,3.1-3.1V3.1A3.1,3.1,0,0,0,65.4,0Zm.5,47.8a1,1,0,0,1-1,1H3.6a1,1,0,0,1-1-1V41a1,1,0,0,1,1-1H64.9a1,1,0,0,1,1,1Zm-1-10.3H3.5a1,1,0,0,1-1-1V3.6a1,1,0,0,1,1-1H64.9a1,1,0,0,1,1,1v33A1,1,0,0,1,64.9,37.5Z"/><path d="M.2,50.1a1.1,1.1,0,0,0,.1.4,1.1,1.1,0,0,1-.1-.4Z"/><path d="M32.6,19.1H31.5a12.2,12.2,0,0,0-11-11V7a1,1,0,0,0-1-1h-.4a1,1,0,0,0-1,1V8.1a12.2,12.2,0,0,0-11,11H6a1,1,0,0,0-1,1v.4a1,1,0,0,0,1,1H7.1a12.2,12.2,0,0,0,11,11v1.1a1,1,0,0,0,1,1h.4a1,1,0,0,0,1-1V32.5a12.2,12.2,0,0,0,11-11h1.1a1,1,0,0,0,1-1v-.4A1,1,0,0,0,32.6,19.1ZM18.1,10.5v2.7a7.3,7.3,0,0,0-5.9,5.9H9.5A9.9,9.9,0,0,1,18.1,10.5Zm0,19.6a9.9,9.9,0,0,1-8.6-8.6h2.7a7.3,7.3,0,0,0,5.9,5.9Zm1.2-4.9L18.1,25h-.2l-.8-.3h-.2l-.4-.3-.2-.2-.6-.6-.2-.2-.3-.4v-.2l-.3-.8v-.2h0a4.4,4.4,0,0,1,0-2.4h0v-.2L15,18v-.2l.3-.4v-.2l.7-.7h.2l.4-.3h.2l.8-.3h.2l1.2-.2,1.2.2h.2l.8.3h.2l.4.3.2.2.6.6.2.2.3.4v.2l.3.8v.2h0a4.4,4.4,0,0,1,0,2.4h0v.2l-.3.8v.2l-.3.4-.2.2-.6.6-.2.2-.4.3h-.2l-.8.3h-.2Zm1.2,4.9V27.4a7.3,7.3,0,0,0,5.9-5.9h2.7A9.9,9.9,0,0,1,20.5,30.1Zm5.9-11a7.3,7.3,0,0,0-5.9-5.9V10.5a9.9,9.9,0,0,1,8.6,8.6Z"/><path d="M62.4,19.1H61.4a12.2,12.2,0,0,0-11-11V7a1,1,0,0,0-1-1H49a1,1,0,0,0-1,1V8.1a12.2,12.2,0,0,0-11,11H35.9a1,1,0,0,0-1,1v.4a1,1,0,0,0,1,1H37a12.2,12.2,0,0,0,11,11v1.1a1,1,0,0,0,1,1h.4a1,1,0,0,0,1-1V32.5a12.2,12.2,0,0,0,11-11h1.1a1,1,0,0,0,1-1v-.4A1,1,0,0,0,62.4,19.1ZM48,10.5v2.7A7.3,7.3,0,0,0,42,19.1H39.4A9.9,9.9,0,0,1,48,10.5Zm0,19.6a9.9,9.9,0,0,1-8.6-8.6H42A7.3,7.3,0,0,0,48,27.4Zm1.2-4.9L48,25h-.2l-.8-.3h-.2l-.4-.3-.2-.2-.6-.6-.2-.2-.3-.4v-.2l-.3-.8v-.2h0a4.4,4.4,0,0,1,0-2.4h0v-.2l.4-.9v-.2l.3-.4v-.2l.7-.7h.2l.4-.3h.2l.8-.3H48l1.2-.2,1.2.2h.2l.8.3h.2l.4.3.2.2.6.6.2.2.3.4v.2l.3.8v.2h0a4.4,4.4,0,0,1,0,2.4h0v.2l-.3.8v.2l-.3.4-.2.2-.6.6-.2.2-.4.3h-.2l-.8.3h-.2Zm1.2,4.9V27.4a7.3,7.3,0,0,0,5.9-5.9H59A9.9,9.9,0,0,1,50.4,30.1Zm5.9-11a7.3,7.3,0,0,0-5.9-5.9V10.5A9.9,9.9,0,0,1,59,19.1Z"/></g></g></svg>