<svg xmlns="http://www.w3.org/2000/svg" viewBox="0 0 23.7 47.3"><title>Sub Cate - Cay Canh x Do Trang Tri</title><g id="Layer_2" data-name="Layer 2"><g id="Layer_1-2" data-name="Layer 1"><path d="M23.7,11.9V5.3H22.4a11.8,11.8,0,0,0-7.9,3.1L13.1,9.6l-.7-1.8A11.9,11.9,0,0,0,1.3,0H0V6.6A11.9,11.9,0,0,0,9.5,18.2l1,.2v5.3H3a3,3,0,0,0-3,3V44.3a3,3,0,0,0,3,3H20.6a3,3,0,0,0,3-3V26.7a3,3,0,0,0-3-3H14.9l3.6-2.1A11.9,11.9,0,0,0,23.7,11.9ZM19.8,26.5a1,1,0,0,1,1,1v16a1,1,0,0,1-1,1H3.8a1,1,0,0,1-1-1v-16a1,1,0,0,1,1-1ZM10.5,14v1.8l-1.7-.6A9.2,9.2,0,0,1,2.7,6.6v-4l1.7.6a9.2,9.2,0,0,1,6.1,8.7Zm4.4,6.5-1.7.6v-4a9.2,9.2,0,0,1,6.1-8.7l1.7-.6v4A9.2,9.2,0,0,1,14.9,20.5Z"/></g></g></svg>