<svg xmlns="http://www.w3.org/2000/svg" viewBox="0 0 39.1 53.3"><title>Sub Cate - Den</title><g id="Layer_2" data-name="Layer 2"><g id="Layer_1-2" data-name="Layer 1"><path d="M35.8,27.6V25.7a2.3,2.3,0,0,0-2.2-2.3V6.8a3.4,3.4,0,0,0,3.2-3.4V0H2.1V3.4A3.4,3.4,0,0,0,5.4,6.8v5.1a2.3,2.3,0,0,0-2.2,2.3V16A6.6,6.6,0,0,0,.6,24.4a6.5,6.5,0,0,0,4.3,3.6,6.7,6.7,0,0,0,5.7-1.2A6.6,6.6,0,0,0,10,16V14.1a2.3,2.3,0,0,0-2.2-2.3v-5H18.3V36.9a2.3,2.3,0,0,0-2.2,2.3V41a6.6,6.6,0,0,0-2.6,8.5,6.5,6.5,0,0,0,4.3,3.6l1.7.2A6.6,6.6,0,0,0,22.9,41V39.2a2.3,2.3,0,0,0-2.2-2.3V6.8H31.2V23.4a2.3,2.3,0,0,0-2.2,2.3v1.9a6.6,6.6,0,0,0-2.6,8.5,6.5,6.5,0,0,0,4.3,3.6,6.7,6.7,0,0,0,5.7-1.2,6.6,6.6,0,0,0-.7-10.9ZM18.6,41.8V40.2a.9.9,0,0,1,1.9,0v1.5a1.2,1.2,0,0,0,.7,1.1,4.2,4.2,0,1,1-3.3,0A1.2,1.2,0,0,0,18.6,41.8ZM5.7,16.7V15.2a.9.9,0,0,1,1.9,0v1.5a1.2,1.2,0,0,0,.7,1.1,4.2,4.2,0,1,1-3.3,0A1.2,1.2,0,0,0,5.7,16.7ZM33.5,4.3H5.5a.9.9,0,0,1-.9-.9V2.5H34.5v.9A.9.9,0,0,1,33.5,4.3Zm-2,24V26.8a.9.9,0,0,1,1.9,0v1.5a1.2,1.2,0,0,0,.7,1.1,4.2,4.2,0,1,1-3.3,0A1.2,1.2,0,0,0,31.5,28.3Z"/></g></g></svg>