<svg xmlns="http://www.w3.org/2000/svg" viewBox="0 0 59.2 58.5"><title>Sub Cate - Ban Ghe Gia Dinh</title><g id="Layer_2" data-name="Layer 2"><g id="Layer_1-2" data-name="Layer 1"><path d="M59,22.1a4.1,4.1,0,0,0-4-3.1H42.4V14a4.1,4.1,0,0,0,3.9-4.1V4.1A4.1,4.1,0,0,0,42.1,0H17a4.1,4.1,0,0,0-4.1,4.1V9.9A4.1,4.1,0,0,0,16.8,14v5H4.1a4.1,4.1,0,0,0-1.2,8V55.3a3.2,3.2,0,0,0,6.3,0V27.2h7.6V29H15.1a4.1,4.1,0,0,0-1.2,8V55.3a3.2,3.2,0,0,0,6.3,0V37.2H39V55.3a3.1,3.1,0,1,0,6.3,0V37a4.1,4.1,0,0,0-1.2-8H42.4V27.2H50V55.3a3.1,3.1,0,1,0,6.3,0V27A4.1,4.1,0,0,0,59,22.1ZM15.4,9.9V4.1A1.7,1.7,0,0,1,17,2.4H42.1a1.7,1.7,0,0,1,1.7,1.7V9.9a1.7,1.7,0,0,1-1.7,1.7H17A1.7,1.7,0,0,1,15.4,9.9ZM39.9,14v5H38.5V14Zm-3.9,0v5h-13V14ZM20.7,14v5H19.2V14ZM6.8,55.3a.7.7,0,0,1-1.4,0V27.2H6.8Zm11,0a.7.7,0,0,1-1.4,0V37.2h1.4Zm25.1,0a.7.7,0,0,1-1.4,0V37.2h1.4ZM44,31.4a1.7,1.7,0,1,1,0,3.4H15.1a1.7,1.7,0,1,1,0-3.4ZM19.2,29V27.2h1.4V29Zm3.9,0V27.2h13V29Zm15.4,0V27.2h1.4V29ZM53.8,55.3a.7.7,0,0,1-1.4,0V27.2h1.4ZM55,24.8H4.1a1.7,1.7,0,1,1,0-3.4H55a1.7,1.7,0,1,1,0,3.4Z"/></g></g></svg>