<svg xmlns="http://www.w3.org/2000/svg" viewBox="0 0 60.2 47.7"><title>Sub Cate - Giuong x Chan Drap</title><g id="Layer_2" data-name="Layer 2"><g id="Layer_1-2" data-name="Layer 1"><path d="M11.9,23.8h9A1.9,1.9,0,0,0,22.7,22V14.2a1.9,1.9,0,0,0-1.9-1.9h-9A1.9,1.9,0,0,0,10,14.2V22A1.9,1.9,0,0,0,11.9,23.8Zm.8-8.3a.4.4,0,0,1,.4-.4h6.5a.4.4,0,0,1,.4.4v5.2a.4.4,0,0,1-.4.4H13.1a.4.4,0,0,1-.4-.4Z"/><path d="M57.1,20H55.2a2.6,2.6,0,0,0-2.7,1.9H27.6A2.6,2.6,0,0,0,25,24.5h0v1.7H7.7V2.8A2.8,2.8,0,0,0,4.9,0H2.8A2.8,2.8,0,0,0,0,2.8V44.9a2.8,2.8,0,0,0,2.8,2.8H4.9a2.8,2.8,0,0,0,2.8-2.8v-.3a.8.8,0,0,1,.8-.8H51.7a.8.8,0,0,1,.8.8,3.1,3.1,0,0,0,3.1,3.1h1.5a3.1,3.1,0,0,0,3.1-3.1V23.1A3.1,3.1,0,0,0,57.1,20ZM5,44a.8.8,0,0,1-.8.8H3.5a.8.8,0,0,1-.8-.8V3.5a.8.8,0,0,1,.8-.8h.6a.8.8,0,0,1,.8.8Zm47.4-3H7.7V40a1.3,1.3,0,0,1,0-.3V28.8H25v6.8a3.1,3.1,0,0,0,3.1,3.1H52.4Zm0-5H29.4a1.7,1.7,0,0,1-1.7-1.7V26.2a1.7,1.7,0,0,1,1.7-1.7H52.4Zm5.1,7.9a1.2,1.2,0,0,1-2.3,0v-20a1.2,1.2,0,1,1,2.3,0Z"/></g></g></svg>