<svg xmlns="http://www.w3.org/2000/svg" viewBox="0 0 52.5 49"><title>Sub Cate - Dung Cu Nau An x Phu Kien Phong An</title><g id="Layer_2" data-name="Layer 2"><g id="Layer_1-2" data-name="Layer 1"><path d="M49.2,19.7l.5.2a.7.7,0,0,1,.2.5.7.7,0,0,1-.7.7H47.6A2.6,2.6,0,0,0,45,23.7V42.3a4.1,4.1,0,0,1-4.1,4.1H11.6a4.1,4.1,0,0,1-4.1-4.1V23.7A2.6,2.6,0,0,0,5,21.1H3.3a.7.7,0,0,1,0-1.4H49.2m0-2.6H3.3a3.3,3.3,0,0,0,0,6.6H5V42.3A6.7,6.7,0,0,0,11.6,49H40.9a6.7,6.7,0,0,0,6.7-6.7V23.7h1.7a3.3,3.3,0,0,0,0-6.6Z"/><path d="M26.5,2.6a.7.7,0,0,1,.7.7v.2a2.6,2.6,0,0,0,2.3,3.6c7.9.4,13.2,2,15,3.5a2.6,2.6,0,0,0,1.6.6H6.5a2.6,2.6,0,0,0,1.6-.6C10,9.1,15.5,7.5,23.6,7.1a2.6,2.6,0,0,0,2.3-3.6V3.3a.7.7,0,0,1,.7-.7m0-2.6a3.3,3.3,0,0,0-3.3,3.3,3.2,3.2,0,0,0,.3,1.3c-7.8.3-14.3,1.9-17,4.1H6a2.7,2.7,0,1,0,0,5.5H46.5a2.7,2.7,0,0,0,0-5.5H46c-2.7-2.1-9-3.7-16.5-4a3.2,3.2,0,0,0,.3-1.3A3.3,3.3,0,0,0,26.5,0Z"/></g></g></svg>