<svg xmlns="http://www.w3.org/2000/svg" viewBox="0 0 50.5 60.6"><title>Sub Cate - Noi That x Do Dung Trong Nha</title><g id="Layer_2" data-name="Layer 2"><g id="Layer_1-2" data-name="Layer 1"><path d="M16.8,32.5h17A1.5,1.5,0,0,0,35.2,31V9.9a1.5,1.5,0,0,0-.7-1.2h0a13.4,13.4,0,0,0-9.3-3.5A13.4,13.4,0,0,0,16,8.7a1.5,1.5,0,0,0-.7,1.2V31A1.5,1.5,0,0,0,16.8,32.5Zm1.5-21.2a1.3,1.3,0,0,1,.6-1.1,11.7,11.7,0,0,1,6.4-2,11.6,11.6,0,0,1,6.4,2,1.3,1.3,0,0,1,.6,1.1V29.5h-14Z"/><path d="M16.8,54.6h17a1.5,1.5,0,0,0,1.5-1.5v-16a1.5,1.5,0,0,0-1.5-1.5h-17a1.5,1.5,0,0,0-1.5,1.5v16A1.5,1.5,0,0,0,16.8,54.6Zm1.5-16h14v13h-14Z"/><path d="M49.1,57.9H41V1.4A1.4,1.4,0,0,0,39.7,0H10.8A1.4,1.4,0,0,0,9.5,1.4V57.9H1.4a1.4,1.4,0,1,0,0,2.7H49.1a1.4,1.4,0,1,0,0-2.7Zm-10.8,0H12.2V2.7H38.3Z"/></g></g></svg>