<svg xmlns="http://www.w3.org/2000/svg" viewBox="0 0 59.3 53.1"><title>Sub Cate - Thiet Bi Phong Tam</title><g id="Layer_2" data-name="Layer 2"><g id="Layer_1-2" data-name="Layer 1"><path d="M22.4,12.8a1.2,1.2,0,1,0-2.3,0v.7a1.2,1.2,0,1,0,2.3,0Z"/><path d="M22.4,17.8a1.2,1.2,0,1,0-2.3,0v1.7a1.2,1.2,0,1,0,2.3,0Z"/><path d="M21.2,22.2A1.2,1.2,0,0,0,20,23.4v1.7a1.2,1.2,0,1,0,2.3,0V23.4A1.2,1.2,0,0,0,21.2,22.2Z"/><path d="M25.8,13.4l-.2-.6a1.2,1.2,0,1,0-2.3.5l.2.6a1.2,1.2,0,1,0,2.3-.5Z"/><path d="M25.4,16.7a1.2,1.2,0,0,0-.9,1.4l.4,1.6a1.2,1.2,0,1,0,2.3-.5l-.4-1.6A1.2,1.2,0,0,0,25.4,16.7Z"/><path d="M26.7,22.1a1.2,1.2,0,0,0-.9,1.4l.4,1.6a1.2,1.2,0,1,0,2.3-.5L28.1,23A1.2,1.2,0,0,0,26.7,22.1Z"/><path d="M18.8,13.9l.2-.6a1.2,1.2,0,1,0-2.3-.5l-.2.6a1.2,1.2,0,1,0,2.3.5Z"/><path d="M17.4,19.8l.4-1.6a1.2,1.2,0,1,0-2.3-.5l-.4,1.6a1.2,1.2,0,1,0,2.3.5Z"/><path d="M15.6,22.1a1.2,1.2,0,0,0-1.4.9l-.4,1.6a1.2,1.2,0,1,0,2.3.5l.4-1.6A1.2,1.2,0,0,0,15.6,22.1Z"/><path d="M58.3,33.7H49V32.3a1,1,0,0,0-1-1H38.1a1,1,0,0,0-1,1v1.3H8.2V10.3a7.5,7.5,0,0,1,7.5-7.5l2,.3a6.1,6.1,0,0,0-2.6,5,1,1,0,0,0,1,1H26.2a1,1,0,0,0,1-1,6.1,6.1,0,0,0-5.4-6A10.2,10.2,0,0,0,5.5,9H5.4V33.7H1a1,1,0,0,0-1,1v.8a1,1,0,0,0,1,1H3v2.6a14,14,0,0,0,14,14H42.3a14,14,0,0,0,14-14V36.5h2a1,1,0,0,0,1-1v-.8A1,1,0,0,0,58.3,33.7ZM18.8,5.8a3.2,3.2,0,0,1,2-.9h.3a3.3,3.3,0,0,1,2.3,1l.4.5H18.3ZM39.9,36.5V34.1h6.3v4.5H39.9Zm0,4.5h6.3v1.9H39.9Zm13.6-1.9A11.2,11.2,0,0,1,42.3,50.3H17A11.2,11.2,0,0,1,5.8,39.1V36.5H37.1v8.2a1,1,0,0,0,1,1H48a1,1,0,0,0,1-1V36.5h4.5Z"/></g></g></svg>