<?xml version="1.0" encoding="UTF-8" standalone="no"?>
<svg width="80px" height="62px" viewBox="0 0 80 62" version="1.1" xmlns="http://www.w3.org/2000/svg" xmlns:xlink="http://www.w3.org/1999/xlink">
    <!-- Generator: Sketch 46.1 (44463) - http://www.bohemiancoding.com/sketch -->
    <title>Do chuyen dung</title>
    <desc>Created with Sketch.</desc>
    <defs>
        <polygon id="path-1" points="79.083 31.96635 79.083 0.933 0 0.933 0 31.96635 0 62.9997 79.083 62.9997 79.083 31.96635"></polygon>
    </defs>
    <g id="Page-1" stroke="none" stroke-width="1" fill="none" fill-rule="evenodd">
        <g id="Artboard" transform="translate(-530.000000, -914.000000)">
            <g id="Do-chuyen-dung" transform="translate(530.000000, 913.000000)">
                <g id="Group-3" transform="translate(0.000000, 0.067400)">
                    <mask id="mask-2" fill="white">
                        <use xlink:href="#path-1"></use>
                    </mask>
                    <g id="Clip-2"></g>
                    <path d="M38.938,21.7637 L35.519,21.7657 C32.709,21.7657 30.268,23.5677 29.445,26.2487 L20.931,53.8957 C20.229,56.1757 18.65,58.0617 16.486,59.2047 C15.141,59.9157 13.685,60.2767 12.228,60.2767 C11.35,60.2767 10.47,60.1457 9.615,59.8807 C7.308,59.1697 5.413,57.5997 4.28,55.4577 C3.147,53.3167 2.915,50.8687 3.626,48.5657 L11.391,23.3527 C11.507,22.9787 11.454,22.5687 11.246,22.2287 C11.039,21.8937 10.699,21.6667 10.314,21.6087 C5.913,20.8867 2.721,17.1437 2.721,12.7057 C2.721,7.7147 6.782,3.6537 11.773,3.6537 L46.858,3.6597 L46.858,21.0087 L49.58,21.0087 L49.58,3.6597 L49.955,3.6597 C54.946,3.6597 59.007,7.7217 59.007,12.7127 C59.007,17.5787 55.147,21.5607 50.33,21.7577 L50.309,21.7587 C50.191,21.7637 50.073,21.7657 49.955,21.7657 L39.139,21.7657 C39.058,21.7617 38.996,21.7577 38.938,21.7637 L38.938,21.7637 Z M33.312,35.6427 L29.398,35.6427 L32.047,27.0417 C32.515,25.5097 33.909,24.4797 35.515,24.4797 L37.148,24.4797 L33.312,35.6427 Z M49.955,24.4797 C55.762,24.4797 60.765,20.1407 61.594,14.3877 L61.64,14.0667 L77.723,14.0667 C78.473,14.0667 79.083,13.4557 79.083,12.7057 C79.083,11.9557 78.473,11.3457 77.723,11.3457 L61.639,11.3457 L61.593,11.0247 C60.765,5.2717 55.762,0.9327 49.955,0.9327 L11.773,0.9327 C5.282,0.9327 0,6.2137 0,12.7057 C0,17.7627 3.22,22.2357 8.012,23.8357 L8.359,23.9517 L1.025,47.7617 C0.101,50.7637 0.403,53.9497 1.876,56.7327 C3.349,59.5157 5.812,61.5567 8.812,62.4787 C9.938,62.8247 11.105,62.9997 12.28,62.9997 C17.48,62.9997 22.002,59.6597 23.532,54.6887 L28.583,38.2887 L28.904,38.3397 C28.978,38.3517 29.052,38.3637 29.128,38.3637 L34.279,38.3637 C34.861,38.3637 35.378,37.9937 35.566,37.4447 L40.023,24.4797 L49.955,24.4797 Z" id="Fill-1" fill="#020303" mask="url(#mask-2)"></path>
                </g>
                <path d="M18.7153,7.9414 L15.2443,7.9414 C14.4943,7.9414 13.8833,8.5514 13.8833,9.3014 C13.8833,10.0524 14.4943,10.6634 15.2443,10.6634 L18.7153,10.6634 C19.4653,10.6634 20.0763,10.0524 20.0763,9.3014 C20.0763,8.5514 19.4653,7.9414 18.7153,7.9414" id="Fill-4" fill="#020303"></path>
                <path d="M18.7153,14.8838 L15.2443,14.8838 C14.4943,14.8838 13.8833,15.4938 13.8833,16.2438 C13.8833,16.9938 14.4943,17.6048 15.2443,17.6048 L18.7153,17.6048 C19.4653,17.6048 20.0763,16.9938 20.0763,16.2438 C20.0763,15.4938 19.4653,14.8838 18.7153,14.8838" id="Fill-6" fill="#020303"></path>
            </g>
        </g>
    </g>
</svg>