<?xml version="1.0" encoding="UTF-8" standalone="no"?>
<svg width="81px" height="73px" viewBox="0 0 81 73" version="1.1" xmlns="http://www.w3.org/2000/svg" xmlns:xlink="http://www.w3.org/1999/xlink">
    <!-- Generator: Sketch 46.1 (44463) - http://www.bohemiancoding.com/sketch -->
    <title>Do dung van phong</title>
    <desc>Created with Sketch.</desc>
    <defs>
        <polygon id="path-1" points="80.3033 55 0.0003 55 0.0003 0.2972 80.3033 0.2972 80.3033 55"></polygon>
        <polygon id="path-3" points="0.2264 0.265 48.0774 0.265 48.0774 17.3506 0.2264 17.3506 0.2264 0.265"></polygon>
    </defs>
    <g id="Page-1" stroke="none" stroke-width="1" fill="none" fill-rule="evenodd">
        <g id="Artboard" transform="translate(-349.000000, -914.000000)">
            <g id="Do-dung-van-phong" transform="translate(349.000000, 913.000000)">
                <g id="Group-3" transform="translate(0.000000, 18.735400)">
                    <mask id="mask-2" fill="white">
                        <use xlink:href="#path-1"></use>
                    </mask>
                    <g id="Clip-2"></g>
                    <path d="M62.7163,22.5332 L17.5883,22.5332 C16.8373,22.5332 16.2263,23.1432 16.2263,23.8942 L16.2263,37.1202 L4.6403,37.1202 C3.5833,37.1202 2.7243,36.2612 2.7243,35.2042 L2.7243,4.9372 C2.7243,3.8812 3.5833,3.0202 4.6403,3.0202 L75.6643,3.0202 C76.7203,3.0202 77.5793,3.8812 77.5793,4.9372 L77.5793,35.2042 C77.5793,36.2612 76.7203,37.1202 75.6643,37.1202 L64.0783,37.1202 L64.0783,23.8942 C64.0783,23.1432 63.4673,22.5332 62.7163,22.5332 M18.9503,38.1312 L18.9503,25.2572 L61.3533,25.2572 L61.3533,52.2772 L18.9503,52.2772 L18.9503,38.8332 C18.9813,38.7282 19.0063,38.6132 19.0063,38.4822 C19.0063,38.3492 18.9803,38.2322 18.9503,38.1312 M75.6643,0.2972 L4.6403,0.2972 C2.0813,0.2972 0.0003,2.3792 0.0003,4.9372 L0.0003,35.2032 C0.0003,37.7622 2.0813,39.8442 4.6403,39.8442 L16.2263,39.8442 L16.2263,52.5472 C16.2263,53.8992 17.3273,55.0002 18.6803,55.0002 L61.6223,55.0002 C62.9763,55.0002 64.0773,53.8992 64.0773,52.5472 L64.0773,39.8452 L75.6633,39.8452 C78.2223,39.8452 80.3033,37.7622 80.3033,35.2042 L80.3033,4.9372 C80.3033,2.3792 78.2223,0.2972 75.6643,0.2972" id="Fill-1" fill="#231F20" mask="url(#mask-2)"></path>
                </g>
                <g id="Group-6" transform="translate(16.000000, 0.735400)">
                    <mask id="mask-4" fill="white">
                        <use xlink:href="#path-3"></use>
                    </mask>
                    <g id="Clip-5"></g>
                    <path d="M1.5884,17.3506 C2.3394,17.3506 2.9504,16.7396 2.9504,15.9886 L2.9504,2.9896 L45.3534,2.9896 L45.3534,15.9886 C45.3534,16.7396 45.9644,17.3506 46.7154,17.3506 C47.4664,17.3506 48.0774,16.7396 48.0774,15.9886 L48.0774,2.7196 C48.0774,1.3666 46.9764,0.2646 45.6224,0.2646 L2.6804,0.2646 C1.3274,0.2646 0.2264,1.3666 0.2264,2.7196 L0.2264,15.9886 C0.2264,16.7396 0.8374,17.3506 1.5884,17.3506" id="Fill-4" fill="#231F20" mask="url(#mask-4)"></path>
                </g>
                <path d="M70.8506,26.9073 C71.8086,26.9073 72.5886,27.6863 72.5886,28.6443 C72.5886,29.6023 71.8086,30.3823 70.8506,30.3823 C69.8926,30.3823 69.1136,29.6023 69.1136,28.6443 C69.1136,27.6863 69.8926,26.9073 70.8506,26.9073 M70.8506,33.1053 C73.3106,33.1053 75.3116,31.1043 75.3116,28.6443 C75.3116,26.1843 73.3106,24.1833 70.8506,24.1833 C68.3916,24.1833 66.3906,26.1843 66.3906,28.6443 C66.3906,31.1043 68.3916,33.1053 70.8506,33.1053" id="Fill-7" fill="#231F20"></path>
                <path d="M62.833,28.6446 C62.833,29.6026 62.054,30.3816 61.097,30.3816 C60.139,30.3816 59.359,29.6026 59.359,28.6446 C59.359,27.6866 60.139,26.9076 61.097,26.9076 C62.054,26.9076 62.833,27.6866 62.833,28.6446 M65.557,28.6446 C65.557,26.1846 63.556,24.1836 61.097,24.1836 C58.636,24.1836 56.635,26.1846 56.635,28.6446 C56.635,31.1046 58.636,33.1056 61.097,33.1056 C63.556,33.1056 65.557,31.1046 65.557,28.6446" id="Fill-9" fill="#231F20"></path>
                <path d="M24.3081,54.584 L55.9961,54.584 C56.7471,54.584 57.3581,53.973 57.3581,53.222 C57.3581,52.471 56.7471,51.859 55.9961,51.859 L24.3081,51.859 C23.5571,51.859 22.9461,52.471 22.9461,53.222 C22.9461,53.973 23.5571,54.584 24.3081,54.584" id="Fill-11" fill="#231F20"></path>
                <path d="M24.3081,65.0958 L55.9961,65.0958 C56.7471,65.0958 57.3581,64.4848 57.3581,63.7338 C57.3581,62.9828 56.7471,62.3718 55.9961,62.3718 L24.3081,62.3718 C23.5571,62.3718 22.9461,62.9828 22.9461,63.7338 C22.9461,64.4848 23.5571,65.0958 24.3081,65.0958" id="Fill-13" fill="#231F20"></path>
                <path d="M24.3081,9.8145 C23.5571,9.8145 22.9461,10.4255 22.9461,11.1765 C22.9461,11.9275 23.5571,12.5385 24.3081,12.5385 L55.9961,12.5385 C56.7471,12.5385 57.3581,11.9275 57.3581,11.1765 C57.3581,10.4255 56.7471,9.8145 55.9961,9.8145 L24.3081,9.8145 Z" id="Fill-15" fill="#231F20"></path>
            </g>
        </g>
    </g>
</svg>