<svg xmlns="http://www.w3.org/2000/svg" viewBox="0 0 68.4 47.9"><title>Sub Cate - May Lanh x Dieu Hoa</title><g id="Layer_2" data-name="Layer 2"><g id="Layer_1-2" data-name="Layer 1"><path d="M58.3,14a4,4,0,1,0-4-4A4,4,0,0,0,58.3,14Zm0-5.5A1.5,1.5,0,1,1,56.7,10,1.5,1.5,0,0,1,58.3,8.5Z"/><path d="M0,3V28.9H68.4V3a3,3,0,0,0-3-3H3A3,3,0,0,0,0,3ZM54.8,26.3H13.6v-3a1,1,0,0,1,1-1H53.8a1,1,0,0,1,1,1Zm11,0H57.4V22.7a3,3,0,0,0-3-3H14a3,3,0,0,0-3,3v3.6H2.6V3.6a1,1,0,0,1,1-1H64.8a1,1,0,0,1,1,1Z"/><rect x="32.6" y="9.7" width="3.2" height="3.19" rx="1.6" ry="1.6"/><rect x="26.2" y="9.7" width="3.2" height="3.19" rx="1.6" ry="1.6"/><rect x="39" y="9.7" width="3.2" height="3.19" rx="1.6" ry="1.6"/><path d="M26.6,34.5h0a1.2,1.2,0,0,0-1.7-.4l-1.4.8V33.4a1.2,1.2,0,1,0-2.5,0v1.4L19.8,34A1.2,1.2,0,0,0,18,35.4a1.2,1.2,0,0,0,.6.8l1.3.8-1.3.8a1.2,1.2,0,0,0-.5,1.7,1.2,1.2,0,0,0,1.7.5l1.3-.8v1.7a1.2,1.2,0,0,0,2.5,0V39.1l1.3.8a1.2,1.2,0,0,0,1.2-2.1L24.8,37l1.3-.8A1.2,1.2,0,0,0,26.6,34.5Z"/><path d="M50.3,34.5h0a1.2,1.2,0,0,0-1.7-.4l-1.4.8V33.4A1.2,1.2,0,0,0,46,32.2h0a1.2,1.2,0,0,0-1.2,1.2v1.4L43.5,34a1.2,1.2,0,0,0-1.2,2.1l1.3.8-1.3.8a1.2,1.2,0,1,0,1.2,2.1l1.3-.8v1.7a1.2,1.2,0,1,0,2.5,0V39.1l1.4.8a1.2,1.2,0,0,0,1.2-2.2L48.5,37l1.3-.8A1.2,1.2,0,0,0,50.3,34.5Z"/><path d="M38.5,40.6h0a1.2,1.2,0,0,0-1.7-.4l-1.4.8V39.3a1.2,1.2,0,1,0-2.5,0v1.5l-1.3-.7a1.2,1.2,0,0,0-1.9,1.2,1.2,1.2,0,0,0,.5.8h.2l1.3.8-1.3.8h-.1a1.2,1.2,0,0,0,1.2,2.1l1.4-.8v1.5a1.2,1.2,0,1,0,2.5,0V45.1l1.3.8A1.2,1.2,0,0,0,38,43.7L36.6,43l1.3-.8A1.2,1.2,0,0,0,38.5,40.6Z"/></g></g></svg>