<svg xmlns="http://www.w3.org/2000/svg" viewBox="0 0 47.2 62.5"><title>Sub Cate - May Giat</title><g id="Layer_2" data-name="Layer 2"><g id="Layer_1-2" data-name="Layer 1"><path d="M30.4,54.4c4.8-1.9,9-7.9,9.4-13,.1-.6.1-1.3.1-2s0-1.3-.1-1.9a15.2,15.2,0,0,0-9-12.9C19.5,19.7,8.4,27.1,7.3,37.8c-.1.5-.1,1.1-.1,1.6s0,.4,0,.6C7.7,51,18.7,59.1,30.4,54.4ZM9.7,38.4a12.7,12.7,0,0,1,6.7-11c10.5-5.5,21.1,2,21.1,12.1A13.9,13.9,0,0,1,9.8,41a14.1,14.1,0,0,1-.1-1.6Z"/><path d="M13.2,39.9a9.8,9.8,0,0,0,2,5.6,9.3,9.3,0,0,0,4.3,3.6A10.4,10.4,0,0,0,34,39.9v-.2c0-.1,0-.2,0-.3a10.5,10.5,0,0,0-20.9,0c0,.1,0,.2,0,.3Zm10.4,7.6A8.1,8.1,0,0,1,16,42.2a4.5,4.5,0,0,0,2.4.6,4.7,4.7,0,0,0,3.8-1.7c.5-.5.7-.7,1.3-.7s.7.2,1.1.7a4.7,4.7,0,0,0,4,1.8,5.4,5.4,0,0,0,2.5-.5A8.1,8.1,0,0,1,23.6,47.5Zm0-16.1a8.1,8.1,0,0,1,8,7.3l-.7.7a2.5,2.5,0,0,1-2.3,1,2.4,2.4,0,0,1-2.2-1A3.6,3.6,0,0,0,23.5,38a3.9,3.9,0,0,0-3,1.5,2.4,2.4,0,0,1-2.1,1,1.9,1.9,0,0,1-1.8-.8,5.1,5.1,0,0,0-1-1A8.1,8.1,0,0,1,23.6,31.3Z"/><path d="M44.2,0H3A3,3,0,0,0,0,3V59.5a3,3,0,0,0,3,3H44.2a3,3,0,0,0,3-3V3A3,3,0,0,0,44.2,0Zm-.5,60H3.5a1,1,0,0,1-1-1V18.9H44.7V59A1,1,0,0,1,43.7,60Zm1-43.6H2.5V3.5a1,1,0,0,1,1-1H43.7a1,1,0,0,1,1,1Z"/><path d="M7.6,10.7h10a1.3,1.3,0,1,0,0-2.5H7.6a1.3,1.3,0,0,0,0,2.5Z"/><path d="M35.4,12.4a3.7,3.7,0,0,0,5.2-5.2,2.3,2.3,0,0,0-.7-.7,3.7,3.7,0,0,0-5.2,5.2A2.3,2.3,0,0,0,35.4,12.4Zm2.3-4.2a1.3,1.3,0,1,1-1.3,1.3A1.3,1.3,0,0,1,37.7,8.2Z"/></g></g></svg>