<svg xmlns="http://www.w3.org/2000/svg" viewBox="0 0 48.4 75.8"><title>Sub Cate - Tu Lanh</title><g id="Layer_2" data-name="Layer 2"><g id="Layer_1-2" data-name="Layer 1"><g id="Page-1"><g id="Tu-lanh"><path d="M45.6,0H2.8A2.8,2.8,0,0,0,0,2.8V71.5a4.1,4.1,0,0,0,2.4,3.8h0a4.6,4.6,0,0,0,2.1.5H43.9a4.6,4.6,0,0,0,2.1-.5h0a4.2,4.2,0,0,0,2.4-3.8V2.8A2.8,2.8,0,0,0,45.6,0Zm0,72a1,1,0,0,1-1,1H4.2a1.4,1.4,0,0,1-1.4-1.4V31.2H45.7Zm0-43.6H2.8V4.2a1.1,1.1,0,0,1,.3-.9,1.5,1.5,0,0,1,1.1-.5H44.3a1.4,1.4,0,0,1,1.4,1.4Z"/><path id="Fill-4" d="M7.7,22.3a1.3,1.3,0,0,0,1.4-1.4V17.1a1.3,1.3,0,0,0-1.4-1.4,1.3,1.3,0,0,0-1.4,1.4v3.8a1.4,1.4,0,0,0,1.4,1.4"/><path id="Fill-6" d="M7.7,46.9a1.3,1.3,0,0,0,1.4-1.4V37.6a1.4,1.4,0,0,0-1.4-1.4,1.3,1.3,0,0,0-1.4,1.4v7.8a1.3,1.3,0,0,0,1.4,1.4"/></g></g></g></g></svg>