<?xml version="1.0" encoding="UTF-8" standalone="no"?>
<svg width="70px" height="70px" viewBox="0 0 70 70" version="1.1" xmlns="http://www.w3.org/2000/svg" xmlns:xlink="http://www.w3.org/1999/xlink">
    <!-- Generator: Sketch 46.1 (44463) - http://www.bohemiancoding.com/sketch -->
    <title>Do the thao</title>
    <desc>Created with Sketch.</desc>
    <defs>
        <polygon id="path-1" points="34.856166 69.626 69.712 69.626 69.712 0 34.856166 0 0.000331974193 0 0.000331974193 69.626"></polygon>
    </defs>
    <g id="Page-1" stroke="none" stroke-width="1" fill="none" fill-rule="evenodd">
        <g id="Artboard" transform="translate(-680.000000, -533.000000)">
            <g id="Do-the-thao" transform="translate(680.000000, 533.000000)">
                <mask id="mask-2" fill="white">
                    <use xlink:href="#path-1"></use>
                </mask>
                <g id="Clip-2"></g>
                <path d="M58.0457,27.041 L60.5927,15.999 L60.7847,16.314 C62.6267,19.349 65.8577,25.276 66.7917,30.884 L66.7927,30.89 C66.8907,31.689 66.9557,32.547 66.9947,33.588 L67.0067,33.907 L58.0457,27.041 Z M66.9317,37.28 C66.5397,42.4 64.8907,47.417 62.1627,51.787 L62.1167,51.86 L62.0307,51.858 L49.2367,51.512 L49.1927,51.463 L43.7027,45.228 L47.7967,32.628 L56.3607,29.093 L66.9377,37.199 L66.9317,37.28 Z M59.5607,54.693 C57.2207,57.335 52.3697,62.118 46.1787,64.47 L45.8767,64.584 L49.5547,54.177 L59.7747,54.452 L59.5607,54.693 Z M42.4757,66.034 C39.9117,66.657 37.3617,66.974 34.8987,66.974 C31.6837,66.973 28.4987,66.492 25.4307,65.547 L25.3497,65.521 L22.3537,53.55 L22.4047,53.491 L28.1897,46.866 L41.6087,46.866 L47.1137,53.117 L42.5547,66.016 L42.4757,66.034 Z M22.0207,64.153 C19.1017,62.789 16.4567,61.174 14.1607,59.353 L14.1567,59.35 C12.4667,57.918 10.9007,56.276 9.5037,54.47 L9.3097,54.22 L19.8547,54.498 L22.3057,64.287 L22.0207,64.153 Z M7.4697,51.515 L7.4277,51.445 C4.7597,47.058 3.2217,42.24 2.8567,37.128 L2.8507,37.05 L2.9117,37 L14.4467,27.724 L21.9527,32.498 L21.9687,32.55 L26.0907,45.232 L20.3087,51.853 L20.2377,51.853 L7.4697,51.515 Z M2.8117,33.353 C2.9097,31.195 3.2207,29.062 3.7337,27.013 C5.2457,21.762 7.9867,17.369 9.4867,15.218 L9.6647,14.962 L12.8297,25.617 L12.7517,25.681 L2.7967,33.686 L2.8117,33.353 Z M11.7857,12.504 C14.8807,9.3 18.4997,6.819 22.5407,5.132 L22.6207,5.099 L33.5707,13.488 L33.5707,22.366 L33.5087,22.411 L23.0197,30.032 L15.4877,25.242 L15.4717,25.188 L11.7247,12.567 L11.7857,12.504 Z M26.2297,4.213 C28.2937,3.689 31.5037,3.065 35.0717,3.065 C38.2437,3.065 41.1687,3.553 43.7657,4.514 L44.0367,4.614 L34.7197,11.026 L25.9297,4.289 L26.2297,4.213 Z M45.1637,32.142 L41.2437,44.213 L28.5507,44.213 L28.5167,44.108 L24.6307,32.142 L24.7187,32.078 L34.8987,24.683 L34.9867,24.747 L45.1637,32.142 Z M47.5637,5.363 L47.6347,5.301 L47.7217,5.339 C51.7897,7.115 55.4117,9.702 58.4867,13.028 L58.5407,13.086 L55.4207,26.611 L55.3497,26.641 L46.9037,30.126 L46.8367,30.076 L36.2257,22.367 L36.2257,13.213 L36.2907,13.168 L47.4737,5.472 C47.5087,5.424 47.5297,5.392 47.5637,5.363 L47.5637,5.363 Z M69.5417,31.466 C69.5287,31.329 69.5127,31.196 69.4977,31.062 L69.4857,30.963 C69.4597,30.781 69.4327,30.596 69.4017,30.41 C68.5367,23.628 65.7147,17.306 61.2397,12.119 L61.1767,12.031 C61.1297,11.964 61.0917,11.909 61.0767,11.886 C61.0807,11.892 61.0607,11.879 61.0437,11.868 C61.0147,11.851 60.9777,11.828 60.9427,11.792 C54.3057,4.296 44.8137,0 34.8987,0 C25.2947,0 16.3357,3.867 9.6717,10.89 L9.6287,10.921 C9.4597,11.004 9.3007,11.082 9.1887,11.213 C9.1177,11.296 8.4627,12.064 7.5427,13.35 C4.7227,16.937 2.6657,20.971 1.4247,25.346 C0.1817,29.285 -0.2503,33.074 0.1387,36.61 C0.1547,36.636 0.1687,36.663 0.1757,36.699 C0.5027,42.591 2.3177,48.31 5.4277,53.259 L5.4497,53.312 L5.4557,53.365 C5.5207,53.515 7.2227,57.337 12.6927,61.603 L12.8107,61.695 C12.8537,61.729 12.8967,61.762 12.9387,61.796 L13.4547,62.183 C16.4147,64.506 19.7187,66.324 23.2767,67.588 C23.3517,67.619 23.4157,67.647 23.4797,67.676 C23.5677,67.715 23.6557,67.754 23.7487,67.79 C23.7627,67.795 23.7847,67.798 23.8097,67.801 C23.8377,67.804 23.8647,67.808 23.8917,67.814 C27.4907,69.018 31.1907,69.626 34.8987,69.626 C54.0947,69.626 69.7127,54.009 69.7127,34.812 C69.7127,34.766 69.7087,34.719 69.7047,34.672 C69.6997,34.617 69.6957,34.562 69.6957,34.506 L69.6957,34.501 C69.7287,33.564 69.6777,32.572 69.5417,31.466 L69.5417,31.466 Z" id="Fill-1" fill="#020303" mask="url(#mask-2)"></path>
            </g>
        </g>
    </g>
</svg>