<?xml version="1.0" encoding="UTF-8" standalone="no"?>
<svg width="86px" height="86px" viewBox="0 0 86 86" version="1.1" xmlns="http://www.w3.org/2000/svg" xmlns:xlink="http://www.w3.org/1999/xlink">
    <!-- Generator: Sketch 46.1 (44463) - http://www.bohemiancoding.com/sketch -->
    <title>Am nhac</title>
    <desc>Created with Sketch.</desc>
    <defs>
        <polygon id="path-1" points="0 85.9997 0 0.8517 85.13 0.8517 85.13 85.9997"></polygon>
    </defs>
    <g id="Page-1" stroke="none" stroke-width="1" fill="none" fill-rule="evenodd">
        <g id="Artboard" transform="translate(-512.000000, -534.000000)">
            <g id="Am-nhac" transform="translate(512.000000, 533.000000)">
                <g id="Group-3" transform="translate(0.000000, 0.148700)">
                    <mask id="mask-2" fill="white">
                        <use xlink:href="#path-1"></use>
                    </mask>
                    <g id="Clip-2"></g>
                    <path d="M47.7777,44.7497 C45.6967,44.7497 43.8987,46.4527 43.8987,48.6297 C43.8987,50.7107 45.6017,52.5087 47.7777,52.5087 C49.8597,52.5087 51.6567,50.8057 51.6567,48.6297 C51.5627,46.4527 49.8597,44.7497 47.7777,44.7497 M47.7777,55.0627 C44.1827,55.0627 41.3447,52.1297 41.3447,48.6297 C41.3447,45.0337 44.2777,42.1957 47.7777,42.1957 C51.2787,42.1957 54.2117,45.1287 54.2117,48.6297 C54.2117,52.1297 51.2787,55.0627 47.7777,55.0627 M17.2187,24.0307 C17.5977,24.0307 17.8817,24.1257 18.1647,24.4087 L31.9777,38.2227 C32.4507,38.6947 32.4507,39.4517 32.0727,39.9257 C29.4237,43.2357 28.2887,45.9797 28.4777,48.9127 C28.6667,53.6437 32.2617,56.6707 36.3297,60.1717 C38.0327,61.5907 39.7357,63.0097 41.4387,64.8077 L41.6287,64.9967 C42.1017,65.6587 42.6687,67.0777 43.4257,68.9707 C45.5067,74.0787 48.5347,81.7427 55.4417,83.1617 C60.7397,84.2967 66.6997,81.3637 73.7007,74.4577 C80.7017,67.4567 83.5407,61.4957 82.4047,56.1977 C80.9857,49.2917 73.3227,46.1697 68.2137,44.1827 C66.2267,43.4257 64.8077,42.7637 64.1457,42.3847 C64.0507,42.3847 64.0507,42.2907 63.9557,42.2907 C62.3477,40.6827 60.8337,38.8847 59.4147,37.2757 C55.8197,33.0187 52.7927,29.4237 48.0617,29.2337 C45.2237,29.1397 42.3847,30.1807 39.0737,32.8297 C38.6007,33.2077 37.8437,33.2077 37.3707,32.7347 L23.5577,18.9217 C23.2737,18.6377 23.1797,18.2597 23.1797,17.9757 C23.2737,16.0837 22.6117,14.3807 21.2867,13.0567 L13.5287,5.2977 C12.2987,4.0677 10.6907,3.4057 8.9877,3.4057 C7.2847,3.4057 5.6767,4.0677 4.4467,5.2977 C3.2167,6.5277 2.5547,8.1367 2.5547,9.8397 C2.5547,11.5417 3.2167,13.1497 4.4467,14.3807 L12.2047,22.1387 C13.4347,23.3677 15.0427,24.0307 16.7457,24.0307 L17.2187,24.0307 C17.1247,24.0307 17.1247,24.0307 17.2187,24.0307 M57.6167,85.9997 C56.6717,85.9997 55.7247,85.9047 54.8737,85.7167 C46.5477,84.0137 43.1417,75.4987 40.8717,69.9167 C40.4927,68.9707 39.7357,67.1727 39.4517,66.6047 C37.8437,64.9967 36.1407,63.5777 34.6277,62.2527 C30.4647,58.6577 26.1117,54.9687 25.8287,49.1027 C25.7337,45.8857 26.7747,42.7637 29.3287,39.3567 L16.6517,26.6797 C14.2857,26.6797 12.0157,25.7327 10.3127,24.0307 L2.5547,16.2717 C0.9457,14.5697 -0.0003,12.2987 -0.0003,9.9337 C-0.0003,7.4747 0.9457,5.2027 2.6497,3.5007 C4.3517,1.7977 6.6227,0.8517 9.0827,0.8517 C11.5427,0.8517 13.8127,1.7977 15.5157,3.5007 L23.2737,11.2587 C24.8817,12.8667 25.8287,15.1377 25.9237,17.5027 L38.4117,30.1807 C41.8177,27.6257 44.9397,26.4907 48.1557,26.6797 C54.0227,26.8687 57.7117,31.2217 61.3067,35.4787 C62.7267,37.0867 64.1457,38.7897 65.6587,40.3037 C66.2267,40.5877 68.1187,41.3447 69.0657,41.7227 C74.6467,43.9927 83.1617,47.3987 84.8647,55.6307 C86.0947,61.8747 83.0677,68.5917 75.4037,76.2557 C68.8757,82.7827 63.0097,85.9997 57.6167,85.9997" id="Fill-1" fill="#020303" mask="url(#mask-2)"></path>
                </g>
                <path d="M56.3275,65.7969 C56.0075,65.7969 55.6875,65.6749 55.4435,65.4309 C54.9555,64.9429 54.9555,64.1509 55.4435,63.6629 L63.7355,55.3709 C64.2235,54.8829 65.0155,54.8829 65.5035,55.3709 C65.9915,55.8589 65.9915,56.6509 65.5035,57.1389 L57.2115,65.4309 C56.9675,65.6749 56.6475,65.7969 56.3275,65.7969" id="Fill-4" fill="#231F20"></path>
            </g>
        </g>
    </g>
</svg>