<?xml version="1.0" encoding="UTF-8"?>
<svg width="42px" height="28px" viewBox="0 0 42 28" version="1.1" xmlns="http://www.w3.org/2000/svg" xmlns:xlink="http://www.w3.org/1999/xlink">
    <!-- Generator: Sketch 52.5 (67469) - http://www.bohemiancoding.com/sketch -->
    <title>game</title>
    <desc>Created with Sketch.</desc>
    <defs>
        <polygon id="path-1" points="0 0.0943703704 41.5316203 0.0943703704 41.5316203 27.4812741 0 27.4812741"></polygon>
    </defs>
    <g id="Page-1" stroke="none" stroke-width="1" fill="none" fill-rule="evenodd">
        <g id="Artboard" transform="translate(-307.000000, -310.000000)">
            <g id="game" transform="translate(307.000000, 310.000000)">
                <g id="Group-14-Copy">
                    <g id="Group-3" transform="translate(0.000000, 0.424356)">
                        <mask id="mask-2" fill="white">
                            <use xlink:href="#path-1"></use>
                        </mask>
                        <g id="Clip-2"></g>
                        <path d="M38.1256329,25.826163 C37.8146203,25.9589037 37.4988228,26.0237185 37.1612278,26.0237185 C35.091,26.0237185 32.8160886,23.4866074 31.1552278,21.6344593 L30.6528228,21.066163 C28.681481,18.8183852 25.6330253,17.8166074 20.7679367,17.8166074 C16.2936076,17.8166074 12.6895823,18.9998667 10.8809241,21.0635704 L10.3779873,21.6313481 C8.71393671,23.4871259 6.43796203,26.0252741 4.3714557,26.0252741 C4.04183544,26.0252741 3.71593671,25.9578667 3.40332911,25.8246074 C1.19753165,24.888163 0.909911392,19.8123852 2.68826582,13.1934963 C4.35922785,6.95779259 6.21998734,2.87497778 10.3269494,1.78712593 C10.9293038,1.62794074 11.4901899,1.55016296 12.0436329,1.55016296 C13.2153797,1.55016296 14.2053038,1.91208889 15.2537089,2.29579259 C16.6556582,2.80705185 18.2436835,3.38623704 20.7679367,3.38623704 C23.2879367,3.38623704 24.8786203,2.80601481 26.2821646,2.29423704 C27.330038,1.91157037 28.3178354,1.55068148 29.4938354,1.55068148 C30.0451519,1.55068148 30.6055063,1.62845926 31.2073291,1.78712593 C35.3089747,2.87445926 37.1713291,6.95727407 38.8460127,13.1934963 C40.6201139,19.8123852 40.3303671,24.8892 38.1256329,25.826163 M40.2910253,12.8248296 C38.4797089,6.08564444 36.3935316,1.65334815 31.5980886,0.382977778 C30.8670759,0.190088889 30.1785949,0.096237037 29.4933038,0.096237037 C28.0472278,0.096237037 26.8802658,0.522459259 25.7515823,0.934162963 C24.7770759,1.28986667 23.5633291,1.73268148 21.9157595,1.87682963 L21.8881139,1.87942222 L21.4176076,1.91727407 C21.0087722,1.92764444 20.9518861,1.9349037 20.5887722,1.92505185 C18.4313544,1.89653333 17.0177089,1.38527407 15.771,0.930533333 C14.6476329,0.519348148 13.4849241,0.094162963 12.0441646,0.094162963 C11.3572785,0.094162963 10.6682658,0.188533333 9.93725316,0.382977778 C5.13596203,1.65386667 3.05137975,6.08564444 1.24378481,12.8248296 C-0.850898734,20.6233481 -0.280443038,25.8479407 2.80735443,27.1597926 C3.30816456,27.3734222 3.83449367,27.4812741 4.37251899,27.4812741 C7.11793671,27.4812741 9.65494937,24.6512 11.5082658,22.5843852 L12.0138608,22.0124593 C13.5407468,20.2717926 16.7311519,19.2726074 20.7684684,19.2726074 C25.1582658,19.2726074 27.857962,20.1188296 29.5204177,22.0155704 L30.0281392,22.5885333 C31.8782658,24.652237 34.4136835,27.4792 37.1617595,27.4792 C37.7013797,27.4792 38.2271772,27.3718667 38.7237342,27.1597926 C41.8104684,25.8484593 42.3819873,20.6233481 40.2910253,12.8248296" id="Fill-1" fill="#020303" mask="url(#mask-2)"></path>
                    </g>
                    <path d="M15.770043,10.1949556 L12.8140937,10.1949556 L12.8140937,7.34621481 C12.8140937,6.96873333 12.4722456,6.65036296 12.0676633,6.65036296 C11.663081,6.65036296 11.3212329,6.96873333 11.3212329,7.34621481 L11.3212329,10.1949556 L8.43546076,10.1949556 C8.04895443,10.1949556 7.72199241,10.528363 7.72199241,10.9229556 C7.72199241,11.3180667 8.04895443,11.6509556 8.43546076,11.6509556 L11.3212329,11.6509556 L11.3212329,14.5002148 C11.3212329,14.8771778 11.663081,15.1960667 12.0676633,15.1960667 C12.4722456,15.1960667 12.8140937,14.8771778 12.8140937,14.5002148 L12.8140937,11.6509556 L15.770043,11.6509556 C16.157081,11.6509556 16.4835114,11.3180667 16.4835114,10.9229556 C16.4835114,10.528363 16.157081,10.1949556 15.770043,10.1949556" id="Fill-4" fill="#020303"></path>
                    <path d="M30.0979975,6.6501037 C29.4105797,6.6501037 28.8512886,7.19558519 28.8512886,7.86602963 C28.8512886,8.53647407 29.4105797,9.08195556 30.0979975,9.08195556 C30.7854152,9.08195556 31.3447063,8.53647407 31.3447063,7.86602963 C31.3447063,7.19558519 30.7854152,6.6501037 30.0979975,6.6501037" id="Fill-6" fill="#020303"></path>
                    <path d="M30.0979975,12.8900593 C29.4105797,12.8900593 28.8512886,13.4355407 28.8512886,14.1059852 C28.8512886,14.7764296 29.4105797,15.3219111 30.0979975,15.3219111 C30.7854152,15.3219111 31.3447063,14.7764296 31.3447063,14.1059852 C31.3447063,13.4355407 30.7854152,12.8900593 30.0979975,12.8900593" id="Fill-8" fill="#020303"></path>
                    <path d="M26.8987671,9.77034074 C26.211881,9.77034074 25.6525899,10.3158222 25.6525899,10.9857481 C25.6525899,11.6567111 26.211881,12.2021926 26.8987671,12.2021926 C27.5861848,12.2021926 28.1460076,11.6567111 28.1460076,10.9857481 C28.1454759,10.3158222 27.5856532,9.77034074 26.8987671,9.77034074" id="Fill-10" fill="#020303"></path>
                    <path d="M33.2972278,9.77034074 C32.6098101,9.77034074 32.050519,10.3158222 32.050519,10.9857481 C32.050519,11.6567111 32.6098101,12.2021926 33.2972278,12.2021926 C33.9851772,12.2021926 34.545,11.6567111 34.545,10.9857481 C34.5444684,10.3158222 33.9846456,9.77034074 33.2972278,9.77034074" id="Fill-12" fill="#020303"></path>
                </g>
            </g>
        </g>
    </g>
</svg>