<?xml version="1.0" encoding="UTF-8"?>
<svg width="36px" height="36px" viewBox="0 0 36 36" version="1.1" xmlns="http://www.w3.org/2000/svg" xmlns:xlink="http://www.w3.org/1999/xlink">
    <!-- Generator: Sketch 52.5 (67469) - http://www.bohemiancoding.com/sketch -->
    <title>so thich khac</title>
    <desc>Created with Sketch.</desc>
    <g id="Page-1" stroke="none" stroke-width="1" fill="none" fill-rule="evenodd">
        <g id="Artboard" transform="translate(-395.000000, -306.000000)">
            <g id="so-thich-khac" transform="translate(395.000000, 306.000000)">
                <g id="Group-15-Copy">
                    <path d="M17.9423077,34.6153846 C8.74892308,34.6153846 1.26923077,27.1356923 1.26923077,17.9423077 C1.26923077,8.74892308 8.74892308,1.26923077 17.9423077,1.26923077 C27.1356923,1.26923077 34.6153846,8.74892308 34.6153846,17.9423077 C34.6153846,27.1356923 27.1356923,34.6153846 17.9423077,34.6153846 M17.9423077,0 C8.04876923,0 0,8.04876923 0,17.9423077 C0,27.8358462 8.04876923,35.8846154 17.9423077,35.8846154 C27.8358462,35.8846154 35.8846154,27.8358462 35.8846154,17.9423077 C35.8846154,8.04876923 27.8358462,0 17.9423077,0" id="Fill-1" fill="#020303"></path>
                    <path d="M17.9423077,19.5416769 C17.058,19.5416769 16.3384615,18.8221385 16.3384615,17.9378308 C16.3384615,17.0535231 17.058,16.3339846 17.9423077,16.3339846 L18,16.3399846 C18.8552308,16.3727538 19.5438462,17.0798308 19.5466154,17.9419846 C19.5438462,18.8244462 18.8238462,19.5416769 17.9423077,19.5416769 M17.9423077,15.0693692 C16.3578462,15.0693692 15.0692308,16.3584462 15.0692308,17.9424462 C15.0692308,19.5264462 16.3578462,20.8155231 17.9423077,20.8155231 C19.524,20.8127538 20.8130769,19.5241385 20.8158462,17.9424462 C20.8158462,16.3584462 19.5267692,15.0693692 17.9423077,15.0693692" id="Fill-3" fill="#020303"></path>
                    <path d="M17.9423077,23.5986462 C14.826,23.5986462 12.2907692,21.0634154 12.2907692,17.9471077 C12.2907692,14.8497231 14.7950769,12.3269538 17.8846154,12.2955692 L17.8846154,12.2909538 L17.9423077,12.2909538 C21.0558462,12.2932615 23.5910769,14.8284923 23.5938462,17.9424923 C23.5938462,21.0634154 21.0586154,23.5986462 17.9423077,23.5986462 M17.9423077,11.0217231 C14.1258462,11.0217231 11.0215385,14.1264923 11.0215385,17.9424923 C11.0215385,21.7584923 14.1258462,24.8632615 17.9423077,24.8632615 C21.756,24.8604923 24.8603077,21.7561846 24.8630769,17.9424923 C24.8630769,14.1264923 21.7587692,11.0217231 17.9423077,11.0217231" id="Fill-5" fill="#020303"></path>
                    <path d="M28.4959385,8.68966154 C28.3833231,8.56227692 28.2268615,8.48612308 28.0565538,8.47550769 C28.0436308,8.47504615 28.0302462,8.47458462 28.0168615,8.47458462 C27.8608615,8.47458462 27.7122462,8.53043077 27.5945538,8.63473846 C27.3310154,8.86827692 27.3060923,9.27258462 27.5396308,9.53612308 C29.5759385,11.8645846 30.6956308,14.8498154 30.6924,17.9421231 C30.6924,18.2924308 30.9771692,18.5767385 31.3270154,18.5767385 L31.3311692,18.5772 L31.3270154,18.6344308 L31.3362462,18.5772 C31.6860923,18.5772 31.9708615,18.2924308 31.9708615,17.9421231 C31.9745538,14.5368923 30.7404,11.2507385 28.4959385,8.68966154" id="Fill-7" fill="#020303"></path>
                    <path d="M32.1377538,26.6772923 C30.7776,28.8917538 28.8876,30.7817538 26.6726769,32.1423692 L26.6209846,32.1742154 L26.5919077,32.1206769 C26.2646769,31.5211385 26.0929846,30.8426769 26.0952923,30.1586769 C26.0989846,29.0722154 26.5259077,28.0522154 27.2971385,27.2860615 C28.0646769,26.5240615 29.0819077,26.1045231 30.1632923,26.1045231 L30.1776,26.1045231 L30.1826769,26.1045231 C30.8556,26.1059077 31.5243692,26.2757538 32.1160615,26.5965231 L32.1696,26.6256 L32.1377538,26.6772923 Z M33.4060615,25.9222154 C31.5114462,24.4932923 28.8631385,24.4932923 26.9676,25.9222154 C25.8271385,26.7825231 25.0900615,28.0346769 24.8920615,29.4488308 C24.6936,30.8634462 25.0577538,32.2706769 25.9176,33.4106769 C26.0366769,33.5671385 26.2249846,33.6599077 26.4216,33.6599077 L26.4248308,33.6599077 L26.4257538,33.6599077 L26.4266769,33.6599077 C26.5309846,33.6585231 26.6440615,33.6359077 26.7396,33.5837538 C29.6016,31.9716 31.9656,29.6043692 33.5749846,26.7386769 C33.7296,26.4640615 33.6571385,26.1128308 33.4060615,25.9222154 Z" id="Fill-9" fill="#020303"></path>
                    <path d="M9.28846154,7.67556923 C8.55046154,9.03156923 7.14830769,9.80141538 5.70323077,9.80141538 C5.04646154,9.80141538 4.38046154,9.64264615 3.76384615,9.30710769 L3.71030769,9.27803077 L3.74215385,9.22587692 C5.10323077,7.01141538 6.99276923,5.12187692 9.20769231,3.76126154 L9.25984615,3.72941538 L9.28846154,3.78249231 C9.95169231,5.00141538 9.95169231,6.45664615 9.28846154,7.67556923 M9.45553846,2.21972308 C9.34984615,2.21972308 9.24276923,2.24556923 9.14584615,2.30049231 C6.28153846,3.91264615 3.91569231,6.27987692 2.30492308,9.14603077 C2.15030769,9.42110769 2.22276923,9.77187692 2.47384615,9.96249231 C3.38215385,10.6511077 4.506,11.0341846 5.64461538,11.0443385 L5.64461538,11.0401846 L5.70230769,11.0401846 L5.71476923,11.0401846 C6.876,11.0401846 8.02384615,10.6534154 8.94784615,9.94956923 C10.0827692,9.08649231 10.8129231,7.83249231 11.0049231,6.41972308 C11.1964615,5.00695385 10.8263077,3.60433846 9.96276923,2.46987692 C9.83907692,2.30741538 9.64892308,2.21972308 9.45553846,2.21972308" id="Fill-11" fill="#020303"></path>
                    <path d="M9.18752308,7.62055385 C8.15413846,9.51932308 5.78090769,10.2351692 3.87244615,9.23455385 C5.21090769,7.07501538 7.0566,5.22932308 9.21613846,3.89132308 C9.83183077,5.06455385 9.82167692,6.45424615 9.18752308,7.62055385 M3.79213846,9.25624615 C5.73936923,10.3159385 8.17767692,9.59593846 9.23736923,7.64824615 C9.88906154,6.45147692 9.88906154,5.0064 9.23736923,3.81009231 C7.02013846,5.17255385 5.15413846,7.03855385 3.79213846,9.25624615" id="Fill-13" fill="#FEFEFE"></path>
                </g>
            </g>
        </g>
    </g>
</svg>