<?xml version="1.0" encoding="UTF-8"?>
<svg width="48px" height="35px" viewBox="0 0 48 35" version="1.1" xmlns="http://www.w3.org/2000/svg" xmlns:xlink="http://www.w3.org/1999/xlink">
    <!-- Generator: Sketch 52.5 (67469) - http://www.bohemiancoding.com/sketch -->
    <title>Sach</title>
    <desc>Created with Sketch.</desc>
    <defs>
        <polygon id="path-1" points="0.0883506893 0.125301493 38.3329093 0.125301493 38.3329093 29.9968666 0.0883506893 29.9968666"></polygon>
        <polygon id="path-3" points="0 0.118052646 46.6583653 0.118052646 46.6583653 29.5131615 0 29.5131615"></polygon>
    </defs>
    <g id="Page-1" stroke="none" stroke-width="1" fill="none" fill-rule="evenodd">
        <g id="Artboard" transform="translate(-111.000000, -306.000000)">
            <g id="Sach" transform="translate(111.000000, 306.000000)">
                <g id="Group-23" transform="translate(0.436364, 0.327273)">
                    <path d="M8.08937047,8.80320651 C8.08937047,9.22053297 8.38042022,9.51152239 8.79783321,9.51152239 L19.2388546,9.51152239 C19.6562676,9.51152239 19.9473173,9.22053297 19.9473173,8.80320651 C19.9473173,8.38588005 19.6562676,8.09489064 19.2388546,8.09489064 L8.79783321,8.09489064 C8.38042022,8.09489064 8.08937047,8.38588005 8.08937047,8.80320651" id="Fill-1" fill="#231F20"></path>
                    <path d="M19.23901,13.0829256 L8.79798857,13.0829256 C8.38057558,13.0829256 8.08952583,13.373915 8.08952583,13.7912415 C8.08952583,14.2085679 8.38057558,14.4995573 8.79798857,14.4995573 L19.23901,14.4995573 C19.6564229,14.4995573 19.9474727,14.2085679 19.9474727,13.7912415 C19.9474727,13.373915 19.6564229,13.0829256 19.23901,13.0829256" id="Fill-3" fill="#231F20"></path>
                    <path d="M19.23901,18.0710641 L8.79798857,18.0710641 C8.38057558,18.0710641 8.08952583,18.3620535 8.08952583,18.77938 C8.08952583,19.1967064 8.38057558,19.4876958 8.79798857,19.4876958 L19.23901,19.4876958 C19.6564229,19.4876958 19.9474727,19.1967064 19.9474727,18.77938 C19.9474727,18.3620535 19.6564229,18.0710641 19.23901,18.0710641" id="Fill-5" fill="#231F20"></path>
                    <path d="M15.6386417,22.6104472 L8.79793678,22.6104472 C8.3805238,22.6104472 8.08947405,22.9014366 8.08947405,23.3187631 C8.08947405,23.7360896 8.3805238,24.027079 8.79793678,24.027079 L15.6386417,24.027079 C16.0560547,24.027079 16.3471044,23.7360896 16.3471044,23.3187631 C16.3471044,22.9014366 16.0560547,22.6104472 15.6386417,22.6104472" id="Fill-7" fill="#231F20"></path>
                    <path d="M27.4684675,9.51157417 L37.9094889,9.51157417 C38.3429562,9.51157417 38.6697399,9.20712261 38.6697399,8.80325829 C38.6697399,8.38593183 38.3781722,8.09494242 37.9612771,8.09494242 L27.4684675,8.09494242 C27.0510545,8.09494242 26.7600048,8.38593183 26.7600048,8.80325829 C26.7600048,9.22058475 27.0510545,9.51157417 27.4684675,9.51157417" id="Fill-9" fill="#231F20"></path>
                    <path d="M27.4684675,14.4997127 L37.9094889,14.4997127 C38.3429562,14.4997127 38.6697399,14.1952611 38.6697399,13.7913968 C38.6697399,13.3740703 38.3781722,13.0830809 37.9612771,13.0830809 L27.4684675,13.0830809 C27.0510545,13.0830809 26.7600048,13.3740703 26.7600048,13.7913968 C26.7600048,14.2087233 27.0510545,14.4997127 27.4684675,14.4997127" id="Fill-11" fill="#231F20"></path>
                    <path d="M27.4684675,19.4878512 L37.9094889,19.4878512 C38.3429562,19.4878512 38.6697399,19.1833996 38.6697399,18.7795353 C38.6697399,18.3622088 38.3781722,18.0712194 37.9612771,18.0712194 L27.4684675,18.0712194 C27.0510545,18.0712194 26.7600048,18.3622088 26.7600048,18.7795353 C26.7600048,19.1968618 27.0510545,19.4878512 27.4684675,19.4878512" id="Fill-13" fill="#231F20"></path>
                    <path d="M35.0693198,23.3188149 C35.0693198,22.9014884 34.77827,22.610499 34.3608571,22.610499 L27.468364,22.610499 C27.0514689,22.610499 26.7599012,22.9014884 26.7599012,23.3188149 C26.7599012,23.7361413 27.0514689,24.0271307 27.468364,24.0271307 L34.3090689,24.0271307 C34.7425362,24.0271307 35.0693198,23.7226792 35.0693198,23.3188149" id="Fill-15" fill="#231F20"></path>
                    <g id="Group-19" transform="translate(4.143057, 0.392629)">
                        <mask id="mask-2" fill="white">
                            <use xlink:href="#path-1"></use>
                        </mask>
                        <g id="Clip-18"></g>
                        <path d="M18.5021673,28.4295624 C12.7645513,27.1625676 7.47127816,27.1496232 1.50579405,28.3814094 L1.50579405,3.24810464 C7.49769015,0.996819973 12.6190264,0.988535577 18.5021673,3.21600261 L18.5021673,28.4295624 Z M19.9190927,3.2201448 C25.8897557,1.00406882 31.0110919,1.01131767 36.9159839,3.24758687 L36.9159839,28.3348097 C30.5563914,27.1537654 25.3998392,27.1641209 19.9190927,28.3767494 L19.9190927,3.2201448 Z M0.505245794,29.580058 C0.740882158,29.8151277 1.09511353,29.9072916 1.50682981,29.8384276 C7.64632232,28.5082642 13.060262,28.5558995 19.1075715,29.9968666 L19.21063,29.9968666 L19.4105325,29.9916889 C25.141416,28.6102658 30.3927407,28.5647017 36.9750224,29.8404987 C37.3779347,29.9072916 37.7321661,29.8156455 37.9678024,29.580058 C38.2029209,29.3444704 38.3329093,29.0400189 38.3329093,28.7231407 L38.3329093,3.0109638 C38.3329093,2.57655077 38.0304662,2.14369107 37.5913021,1.95573883 C31.2829801,-0.485569172 25.6012953,-0.485051398 19.21063,1.95677438 C12.8220362,-0.485051398 7.13931572,-0.486086947 0.823225415,1.95832771 C0.363346094,2.15508212 0.0883506893,2.54910871 0.0883506893,3.0109638 L0.0883506893,28.7231407 C0.0883506893,29.0659076 0.252519321,29.3926235 0.505245794,29.580058 Z" id="Fill-17" fill="#231F20" mask="url(#mask-2)"></path>
                    </g>
                    <g id="Group-22" transform="translate(0.000000, 5.052601)">
                        <mask id="mask-4" fill="white">
                            <use xlink:href="#path-3"></use>
                        </mask>
                        <g id="Clip-21"></g>
                        <path d="M45.5361835,0.118052646 L44.2502822,0.118052646 C43.8328692,0.118052646 43.5413016,0.409042062 43.5413016,0.826368521 C43.5413016,1.24369498 43.8328692,1.5346844 44.2502822,1.5346844 L45.2901895,1.5346844 L45.2901895,26.1269145 C45.2901895,26.429295 45.0151941,26.7042334 44.7132688,26.7042334 L23.0963513,26.7042334 L1.99420867,26.7042334 C1.6922834,26.7042334 1.41728799,26.429295 1.41728799,26.1269145 L1.41728799,1.5346844 L2.40592496,1.5346844 C2.82282006,1.5346844 3.11438769,1.24369498 3.11438769,0.826368521 C3.11438769,0.409042062 2.82282006,0.118052646 2.40592496,0.118052646 L1.11950577,0.118052646 C0.50219029,0.118052646 -0.000155364635,0.620294166 -0.000155364635,1.23799946 L-0.000155364635,26.1269145 C-0.000155364635,27.2080282 0.913388691,28.1208651 1.99420867,28.1208651 L21.2822103,28.1208651 C21.4266994,28.9140961 22.4422662,29.5131615 23.7276496,29.5131615 C25.0125152,29.5131615 26.028082,28.9140961 26.1725711,28.1208651 L44.7132688,28.1208651 C45.2409907,28.1208651 45.753694,27.8997753 46.1203545,27.5140331 C46.4932297,27.1225954 46.6827745,26.608445 46.6558446,26.0756548 L46.6558446,1.23799946 C46.6558446,0.620294166 46.153499,0.118052646 45.5361835,0.118052646" id="Fill-20" fill="#231F20" mask="url(#mask-4)"></path>
                    </g>
                </g>
            </g>
        </g>
    </g>
</svg>