<?xml version="1.0" encoding="UTF-8" standalone="no"?>
<svg width="82px" height="66px" viewBox="0 0 82 66" version="1.1" xmlns="http://www.w3.org/2000/svg" xmlns:xlink="http://www.w3.org/1999/xlink">
    <!-- Generator: Sketch 46.1 (44463) - http://www.bohemiancoding.com/sketch -->
    <title>Suu tam</title>
    <desc>Created with Sketch.</desc>
    <defs>
        <polygon id="path-1" points="0.000498933143 0.552 81.1525011 0.552 81.1525011 65.9993093 0.000498933143 65.9993093 0.000498933143 0.552"></polygon>
    </defs>
    <g id="Page-1" stroke="none" stroke-width="1" fill="none" fill-rule="evenodd">
        <g id="Artboard" transform="translate(-828.000000, -511.000000)">
            <g id="Suu-tam" transform="translate(828.000000, 510.000000)">
                <path d="M65.4468,45.2312 C65.4458,46.7562 64.8318,48.1272 63.8328,49.1282 C62.8308,50.1272 61.4608,50.7412 59.9348,50.7422 L52.4308,50.7422 L36.8128,35.2252 L36.8118,35.2262 C35.4048,33.7672 33.5118,33.0382 31.6328,33.0392 C29.7488,33.0392 27.8468,33.7692 26.4168,35.2252 L26.4158,35.2242 L15.7388,45.8122 C15.7178,45.6212 15.7078,45.4272 15.7078,45.2312 L15.7078,22.2212 C15.7088,20.6952 16.3228,19.3262 17.3218,18.3242 C18.3238,17.3252 19.6928,16.7112 21.2188,16.7102 L59.9348,16.7102 C61.4608,16.7112 62.8308,17.3252 63.8328,18.3242 C64.8318,19.3262 65.4468,20.6952 65.4468,22.2212 L65.4468,45.2312 Z M17.3218,49.1282 C17.1198,48.9262 16.9388,48.7062 16.7708,48.4752 L28.2588,37.0832 L28.2728,37.0692 C29.1958,36.1262 30.4128,35.6582 31.6328,35.6572 C32.8538,35.6592 34.0498,36.1252 34.9448,37.0592 L34.9678,37.0832 L48.7178,50.7432 L21.2188,50.7432 C19.6918,50.7412 18.3228,50.1272 17.3218,49.1282 L17.3218,49.1282 Z M59.9338,14.0922 L21.2188,14.0922 C16.7278,14.0932 13.0908,17.7322 13.0898,22.2212 L13.0898,45.2312 C13.0908,49.7212 16.7278,53.3592 21.2188,53.3602 L59.9348,53.3602 C64.4258,53.3592 68.0638,49.7202 68.0648,45.2312 L68.0648,22.2212 C68.0628,17.7322 64.4258,14.0932 59.9338,14.0922 L59.9338,14.0922 Z" id="Fill-1" fill="#020303"></path>
                <path d="M54.3823,33.1794 C53.6673,33.8914 52.6953,34.3284 51.6063,34.3294 C50.5183,34.3284 49.5443,33.8924 48.8293,33.1794 C48.1173,32.4634 47.6803,31.4914 47.6803,30.4034 C47.6813,29.3144 48.1173,28.3404 48.8293,27.6264 C49.5453,26.9134 50.5183,26.4764 51.6063,26.4754 C52.6953,26.4764 53.6683,26.9124 54.3823,27.6264 C55.0953,28.3414 55.5313,29.3144 55.5323,30.4034 C55.5313,31.4914 55.0963,32.4634 54.3823,33.1794 M51.6063,23.8574 C47.9913,23.8584 45.0633,26.7864 45.0623,30.4024 C45.0633,34.0164 47.9913,36.9454 51.6063,36.9464 C55.2213,36.9454 58.1503,34.0164 58.1513,30.4024 C58.1503,26.7864 55.2213,23.8584 51.6063,23.8574" id="Fill-3" fill="#020303"></path>
                <g id="Group-7" transform="translate(0.000000, 0.448200)">
                    <mask id="mask-2" fill="white">
                        <use xlink:href="#path-1"></use>
                    </mask>
                    <g id="Clip-6"></g>
                    <path d="M70.7065,62.0193 L70.7065,62.0193 C69.3055,60.5933 67.4485,59.8713 65.6025,59.8733 C63.7585,59.8723 61.9015,60.5933 60.5005,62.0193 L60.4995,62.0203 C59.5975,62.9353 58.4355,63.3823 57.2615,63.3843 C56.0885,63.3823 54.9255,62.9343 54.0235,62.0203 C52.6225,60.5943 50.7665,59.8723 48.9205,59.8743 C47.0745,59.8733 45.2185,60.5943 43.8165,62.0203 C42.9145,62.9363 41.7515,63.3833 40.5785,63.3853 C39.4055,63.3833 38.2415,62.9353 37.3405,62.0203 L37.3395,62.0203 C35.9375,60.5963 34.0815,59.8733 32.2355,59.8753 C30.3915,59.8733 28.5345,60.5953 27.1335,62.0203 L27.1325,62.0213 C26.2305,62.9373 25.0665,63.3843 23.8935,63.3853 C22.7215,63.3843 21.5585,62.9363 20.6555,62.0213 C19.2555,60.5963 17.3975,59.8733 15.5525,59.8763 C13.7075,59.8743 11.8515,60.5963 10.4495,62.0213 L10.4485,62.0223 C9.5475,62.9383 8.3845,63.3853 7.2105,63.3863 C6.0375,63.3853 4.8745,62.9373 3.9735,62.0223 C3.0715,61.1063 2.6225,59.9123 2.6215,58.7043 C2.6225,57.4953 3.0715,56.3003 3.9735,55.3853 C5.3755,53.9603 6.0785,52.0883 6.0765,50.2303 C6.0775,48.3723 5.3755,46.4993 3.9735,45.0753 C3.0715,44.1593 2.6225,42.9643 2.6215,41.7553 C2.6225,40.5473 3.0715,39.3533 3.9735,38.4373 C5.3755,37.0123 6.0775,35.1413 6.0765,33.2833 C6.0775,31.4243 5.3755,29.5523 3.9735,28.1273 C3.0715,27.2123 2.6225,26.0173 2.6215,24.8093 C2.6225,23.6013 3.0715,22.4063 3.9735,21.4903 C5.3755,20.0653 6.0775,18.1933 6.0765,16.3343 C6.0775,14.4763 5.3755,12.6053 3.9735,11.1803 C3.0715,10.2643 2.6225,9.0703 2.6215,7.8623 C2.6225,6.6533 3.0715,5.4583 3.9735,4.5423 C4.8745,3.6273 6.0375,3.1803 7.2105,3.1783 C8.3855,3.1803 9.5475,3.6283 10.4485,4.5423 C11.8505,5.9673 13.7065,6.6903 15.5525,6.6883 C17.3975,6.6893 19.2555,5.9673 20.6555,4.5423 C21.5585,3.6273 22.7215,3.1803 23.8935,3.1783 C25.0675,3.1803 26.2305,3.6283 27.1325,4.5423 C28.5335,5.9673 30.3905,6.6903 32.2355,6.6883 C34.0815,6.6893 35.9365,5.9673 37.3395,4.5423 L37.3405,4.5423 C38.2415,3.6273 39.4055,3.1803 40.5785,3.1783 C41.7525,3.1803 42.9145,3.6283 43.8165,4.5423 C45.2175,5.9673 47.0745,6.6903 48.9205,6.6883 C50.7665,6.6893 52.6225,5.9673 54.0235,4.5423 C54.9255,3.6273 56.0885,3.1803 57.2615,3.1783 C58.4355,3.1803 59.5985,3.6283 60.4995,4.5423 C61.9005,5.9673 63.7575,6.6903 65.6025,6.6883 C67.4485,6.6893 69.3055,5.9673 70.7065,4.5423 L70.7075,4.5423 C71.6095,3.6273 72.7725,3.1803 73.9455,3.1783 C75.1195,3.1803 76.2815,3.6283 77.1845,4.5423 C78.0845,5.4573 78.5335,6.6533 78.5355,7.8613 C78.5345,9.0683 78.0845,10.2633 77.1845,11.1793 C75.7805,12.6043 75.0785,14.4753 75.0805,16.3343 C75.0795,18.1933 75.7805,20.0653 77.1845,21.4903 C78.0845,22.4053 78.5335,23.6003 78.5355,24.8083 C78.5345,26.0153 78.0845,27.2103 77.1845,28.1263 C75.7805,29.5513 75.0785,31.4233 75.0805,33.2833 C75.0795,35.1413 75.7805,37.0123 77.1845,38.4373 C78.0845,39.3533 78.5335,40.5473 78.5355,41.7553 C78.5345,42.9633 78.0845,44.1583 77.1845,45.0743 C75.7805,46.4983 75.0785,48.3713 75.0805,50.2303 C75.0795,52.0883 75.7805,53.9603 77.1845,55.3853 C78.0845,56.3003 78.5335,57.4953 78.5355,58.7043 C78.5345,59.9123 78.0845,61.1063 77.1845,62.0223 C76.2815,62.9383 75.1185,63.3853 73.9455,63.3863 C72.7715,63.3813 71.6095,62.9333 70.7065,62.0193 M81.1525,7.8563 C81.1535,5.9973 80.4525,4.1243 79.0495,2.7013 L79.0465,2.6993 C77.6455,1.2753 75.7895,0.5533 73.9455,0.5553 C72.1005,0.5533 70.2435,1.2763 68.8425,2.7013 C67.9405,3.6163 66.7775,4.0633 65.6035,4.0653 C64.4315,4.0633 63.2685,3.6153 62.3665,2.7013 L62.3655,2.7003 C60.9645,1.2753 59.1075,0.5523 57.2625,0.5543 C55.4165,0.5523 53.5605,1.2753 52.1585,2.7003 C51.2575,3.6153 50.0945,4.0623 48.9215,4.0643 C47.7475,4.0623 46.5845,3.6143 45.6835,2.7003 L45.6825,2.6993 C44.2805,1.2743 42.4245,0.5513 40.5795,0.5533 C38.7335,0.5513 36.8765,1.2743 35.4765,2.6993 C34.5735,3.6143 33.4105,4.0613 32.2375,4.0633 C31.0645,4.0613 29.9005,3.6133 28.9995,2.6993 L28.9985,2.6983 C27.5975,1.2733 25.7405,0.5503 23.8955,0.5523 C22.0505,0.5503 20.1935,1.2733 18.7925,2.6983 C17.8915,3.6133 16.7275,4.0603 15.5545,4.0623 C14.3815,4.0603 13.2185,3.6123 12.3155,2.6983 L12.3155,2.6973 C10.9145,1.2723 9.0575,0.5493 7.2125,0.5513 C5.3665,0.5493 3.5105,1.2723 2.1085,2.6973 C0.7015,4.1243 -0.0005,5.9973 0.0005,7.8563 C-0.0005,9.7143 0.7015,11.5863 2.1035,13.0113 C3.0045,13.9263 3.4545,15.1223 3.4555,16.3303 C3.4545,17.5383 3.0045,18.7333 2.1035,19.6493 C0.7015,21.0743 -0.0005,22.9453 0.0005,24.8033 C-0.0005,26.6623 0.7015,28.5343 2.1035,29.9583 C3.0045,30.8733 3.4545,32.0693 3.4555,33.2773 C3.4545,34.4853 3.0045,35.6803 2.1035,36.5963 C0.7015,38.0213 -0.0005,39.8933 0.0005,41.7523 C-0.0005,43.6113 0.7015,45.4823 2.1035,46.9073 C3.0045,47.8233 3.4545,49.0173 3.4555,50.2263 C3.4545,51.4343 3.0045,52.6293 2.1035,53.5443 C0.7015,54.9693 -0.0005,56.8413 0.0005,58.7003 C-0.0005,60.5583 0.7015,62.4303 2.1035,63.8553 C3.5055,65.2803 5.3615,66.0023 7.2075,65.9993 C9.0535,66.0013 10.9095,65.2793 12.3105,63.8553 C13.2125,62.9393 14.3755,62.4923 15.5495,62.4913 C16.7225,62.4923 17.8855,62.9403 18.7865,63.8553 C20.1875,65.2803 22.0445,66.0023 23.8905,65.9993 C25.7365,66.0013 27.5935,65.2793 28.9945,63.8553 C29.8955,62.9393 31.0595,62.4923 32.2315,62.4913 C33.4055,62.4923 34.5685,62.9403 35.4705,63.8553 C36.8715,65.2803 38.7275,66.0023 40.5735,65.9993 C42.4195,66.0013 44.2755,65.2793 45.6775,63.8553 C46.5795,62.9393 47.7425,62.4923 48.9155,62.4913 C50.0885,62.4923 51.2515,62.9403 52.1535,63.8553 C53.5555,65.2803 55.4115,66.0023 57.2575,65.9993 C59.1025,66.0013 60.9595,65.2793 62.3605,63.8553 C63.2625,62.9393 64.4255,62.4923 65.5995,62.4913 C66.7715,62.4923 67.9355,62.9403 68.8365,63.8553 C70.2375,65.2803 72.0945,66.0023 73.9405,65.9993 C75.7865,66.0013 77.6435,65.2793 79.0445,63.8553 C80.4465,62.4303 81.1485,60.5583 81.1475,58.7003 C81.1485,56.8403 80.4465,54.9683 79.0445,53.5433 C78.1435,52.6283 77.6935,51.4343 77.6935,50.2253 C77.6935,49.0173 78.1435,47.8223 79.0455,46.9073 C80.4475,45.4823 81.1495,43.6113 81.1485,41.7523 C81.1495,39.8933 80.4475,38.0213 79.0455,36.5963 C78.1435,35.6803 77.6945,34.4853 77.6935,33.2783 C77.6945,32.0703 78.1445,30.8733 79.0465,29.9593 C80.4485,28.5353 81.1505,26.6633 81.1495,24.8043 C81.1505,22.9453 80.4485,21.0743 79.0465,19.6493 C78.1445,18.7333 77.6955,17.5393 77.6945,16.3313 C77.6955,15.1233 78.1455,13.9263 79.0465,13.0123 C80.4515,11.5863 81.1535,9.7133 81.1525,7.8563" id="Fill-5" fill="#020303" mask="url(#mask-2)"></path>
                </g>
            </g>
        </g>
    </g>
</svg>