<svg xmlns="http://www.w3.org/2000/svg" xmlns:xlink="http://www.w3.org/1999/xlink" width="54" height="54" viewBox="0 0 54 54">
    <defs>
        <path id="rd3e801wga" d="M0 26.562L45.663 26.562 45.663 0 0 0z"/>
    </defs>
    <g fill="none" fill-rule="evenodd">
        <path stroke="#FFF" stroke-width=".721" d="M0 0H51.92V51.92H0z" opacity=".01" transform="translate(1 1)"/>
        <g transform="translate(1 1) translate(3.245 12.98)">
            <path fill="#020303" d="M6.517 22.395c0-1.718 1.406-3.124 3.125-3.124s3.125 1.406 3.125 3.124c0 1.719-1.406 3.125-3.125 3.125s-3.125-1.406-3.125-3.125m-1.042 0c0 2.292 1.875 4.167 4.167 4.167 2.291 0 4.167-1.875 4.167-4.167 0-2.291-1.876-4.166-4.167-4.166-2.292 0-4.167 1.875-4.167 4.166m28.698 0c0-1.718 1.406-3.124 3.125-3.124 1.718 0 3.125 1.406 3.125 3.124 0 1.719-1.407 3.125-3.125 3.125-1.719 0-3.125-1.406-3.125-3.125m-1.042 0c0 2.292 1.875 4.167 4.167 4.167 2.291 0 4.166-1.875 4.166-4.167 0-2.291-1.875-4.166-4.166-4.166-2.292 0-4.167 1.875-4.167 4.166"/>
            <mask id="gyknj5pesb" fill="#fff">
                <use xlink:href="#rd3e801wga"/>
            </mask>
            <path fill="#020303" d="M1.048 15.328h26.823v-2.076H1.048v2.076zm26.823-3.17H1.048V1.043h26.823v11.116zm14.582 4.769h2.188c0 .416-.052.833-.052 1.302h-1.77l-.366-1.302zM.007.52v22.291c0 .312.208.52.52.52h3.438c.312 0 .52-.208.52-.52 0-.313-.208-.52-.52-.52H1.048V16.37h26.823v5.921H15.058c-.312 0-.52.208-.52.521 0 .312.208.52.52.52h16.77c.313 0 .522-.208.522-.52 0-.313-.209-.52-.521-.52H28.86l-.052-16.563c.834-.156 3.594 0 4.635.208.261.313.782 1.719 1.146 2.709.99 2.708 1.667 4.427 2.656 4.479.834.052 3.75.937 5.47 1.458.78.26 1.353.417 1.718.52.104.157.156.417.156.834h-2.812c-.157 0-.313.052-.417.208-.104.157-.156.313-.104.47l.677 2.343c.104.208.313.364.52.364h2.084c-.104.99-.208 2.032-.313 3.021h-1.198c-.312 0-.52.208-.52.521 0 .312.208.52.52.52h1.667c.26 0 .47-.208.521-.468 1.042-8.437 0-8.75-.417-8.854-.312-.052-.99-.26-1.77-.52-2.5-.782-4.844-1.459-5.73-1.511-.416-.208-1.25-2.552-1.718-3.802-.833-2.344-1.198-3.23-1.823-3.333-.052-.052-3.281-.469-4.896-.26V.52c0-.313-.208-.521-.52-.521H.474c-.26 0-.52.26-.468.521z" mask="url(#gyknj5pesb)"/>
        </g>
    </g>
</svg>
