<?xml version="1.0" encoding="utf-8"?>
<!-- Generator: Adobe Illustrator 21.1.0, SVG Export Plug-In . SVG Version: 6.00 Build 0)  -->
<svg version="1.1" id="Layer_1" xmlns="http://www.w3.org/2000/svg" xmlns:xlink="http://www.w3.org/1999/xlink" x="0px" y="0px"
	 viewBox="0 0 70 70" style="enable-background:new 0 0 70 70;" xml:space="preserve">
<title>Group 8 Copy 3</title>
<desc>Created with Sketch.</desc>
<g id="Page-1">
	<g id="Listing-2" transform="translate(-61.000000, -296.000000)">
		<g id="Group-8-Copy-3" transform="translate(61.000000, 296.000000)">
			<path id="Fill-4" d="M13.1,42.7c0.7,0.2,1.2,0.2,1.9,0.2h12c0.2,2,1.9,3.3,3.8,3.3h8.3c1.9,0,3.6-1.3,3.8-3.3h12
				c0.7,0,1.6,0,2.2-0.2v12.7H13.1V42.7z M39.9,37.1c-0.3-0.1-9.6-0.1-9.9,0c-1.6,0.3-2.8,1.9-3,3.2H15c-2,0-3.9-1.5-3.9-3.5V21.2
				h47.4v15.5c0,2-1.5,3.5-3.6,3.5H43C42.8,38.9,41.6,37.4,39.9,37.1L39.9,37.1z M40.1,42.4c0,0.6-0.5,1.2-1.2,1.2h-8.2
				c-0.6,0-1.2-0.5-1.2-1.2v-1.6c0-0.6,0.5-1.2,1.2-1.2H39c0.6,0,1.2,0.5,1.2,1.2V42.4z M28.9,18.6v-3.4c0-0.2,0.1-0.5,0.3-0.5h11.7
				c0.2,0,0.6,0.3,0.6,0.5v3.4H28.9z M59,18.6H44.1v-3.4c0-1.6-1.6-3.1-3.2-3.1H29.2c-1.7,0-2.9,1.5-2.9,3.1v3.4H10.9
				c-1.2,0-2.4,1.2-2.4,2.4v15.8c0,1.6,0.7,3.1,2,4.3v14.8c0,1.2,0.9,2.2,2.1,2.2h44.5c1.4,0,2.8-1.1,2.8-2.5V41
				c0.7-1.2,1.3-2.7,1.3-4.3V21.1C61.2,19.8,60.3,18.6,59,18.6L59,18.6z"/>
		</g>
	</g>
</g>
</svg>
