<svg xmlns="http://www.w3.org/2000/svg" width="54" height="54" viewBox="0 0 54 54">
    <g fill="none" fill-rule="evenodd">
        <path stroke="#FFF" stroke-width=".721" d="M0 0H51.92V51.92H0z" opacity=".01" transform="translate(1 1)"/>
        <g>
            <g fill="#000">
                <path d="M14.435 12.526L13.911 16.395 15.193 15.967 15.961 18.268 16.582 14.57 15.251 14.995z" transform="translate(1 1) translate(3.245 9.735) translate(2.84 3.245)"/>
                <path d="M13.911 16.395L15.193 15.967 15.961 18.268 16.582 14.57 15.251 14.995 14.435 12.526z" transform="translate(1 1) translate(3.245 9.735) translate(2.84 3.245)"/>
                <path d="M13.911 16.395L15.193 15.967 15.961 18.268 16.582 14.57 15.251 14.995 14.435 12.526zM13.963 10.973L11.064 11.884 11.47 12.975 14.887 11.884z" transform="translate(1 1) translate(3.245 9.735) translate(2.84 3.245)"/>
                <path d="M33.902 24.988c-3.1 0-5.623-2.522-5.623-5.623 0-2.187 1.288-4.192 3.28-5.11l.062-.028 1.907 5.914c.079.247.307.413.566.413.061 0 .122-.01.183-.029.15-.049.274-.153.346-.294.073-.142.085-.304.037-.455l-1.907-5.916.067-.013c.357-.07.72-.106 1.082-.106 3.101 0 5.624 2.523 5.624 5.624 0 3.1-2.523 5.623-5.624 5.623zM28.721 9.875L27.313 5.66l.107.025 6.79 1.644v2.546h-5.49zm-16.292 9.927c-.224 2.908-2.686 5.186-5.603 5.186-3.1 0-5.624-2.522-5.624-5.623 0-3.1 2.523-5.624 5.624-5.624 2.16 0 4.094 1.208 5.05 3.153l.508 1.618.012.071h-.072c-2.942-.015-5.546-.041-5.573-.042-.019.004-.71.116-.692.675.018.554.737.547.765.548l5.611-.028-.006.066zm20.052-6.966l-.671-1.901h2.861c.33 0 .597-.269.597-.598v-3.39c0-.3-.206-.502-.612-.599l-7.782-1.884L25.677.75c-.047-.145-.155-.262-.298-.323-.125-.143-.274-.215-.432-.215h-3.498c-.291 0-.529.237-.529.53 0 .291.238.528.53.528h3.284l3.01 9.342c.032.1.095.189.181.255l.125.07c.075.03.145.048.221.04l.183-.015-.12.117c-.742.734-1.915 2.015-3.293 3.948-.084.136-2.131 3.397-4.44 3.513-.16.008-.363.016-.603.021L16.503 7.867l2.357-.864c.014-.007.459-.231.378-.658-.08-.425-.429-.416-.445-.416h-5.038c.003 0-.33.038-.478.274-.092.148-.095.346-.008.59.303.844.647 1.57.65 1.576.008.015.223.407.917.11l.672-.247.656 2.032-2.201.71-.829.266c-.381.123-.59.533-.468.914l.128.398 1.388-.443 2.31-.76 2.356 7.23h-4.111c-.449.012-.82.01-1.192.01-.06-.125-.068-.178-.084-.226l-.062-.196c-.108-.588-.289-1.148-.54-1.675l-2.466-7.648c-.09-.278-.388-.43-.667-.342-.277.09-.43.389-.34.666l.554 1.72H1.911c-.292 0-.53.238-.53.53 0 .292.238.53.53.53h8.37l.705 2.185-.153-.115c-1.164-.874-2.55-1.335-4.007-1.335-3.685 0-6.683 2.997-6.683 6.682 0 3.684 2.998 6.682 6.683 6.682 3.519 0 6.447-2.75 6.667-6.26l5.75-.084 1.043 1.99h-.773c-.277 0-.503.226-.503.503 0 .278.226.505.503.505h2.605c.278 0 .504-.227.504-.505 0-.277-.226-.503-.504-.503h-.983l-1.043-1.994h.122c.596 0 1.364-.157 1.911-.39 1.18-.502 2.05-1.162 3.81-3.554.113-.162 2.783-4.032 4.56-4.801l.798 2.258c-2.493 1.084-4.073 3.49-4.073 6.153 0 3.684 2.998 6.682 6.682 6.682 3.685 0 6.682-2.998 6.682-6.682 0-3.685-2.997-6.682-6.682-6.682-.475 0-.953.051-1.421.153z" transform="translate(1 1) translate(3.245 9.735) translate(2.84 3.245)"/>
            </g>
            <path stroke="#FFF" stroke-opacity=".01" stroke-width=".811" d="M0.406 0.406H46.242V30.421999999999997H0.406z" transform="translate(1 1) translate(3.245 9.735)"/>
        </g>
    </g>
</svg>
