<svg xmlns="http://www.w3.org/2000/svg" xmlns:xlink="http://www.w3.org/1999/xlink" width="54" height="54" viewBox="0 0 54 54">
    <defs>
        <path id="7ygzw73z2a" d="M0 0L39.577 0 39.577 22.93 0 22.93z"/>
    </defs>
    <g fill="none" fill-rule="evenodd">
        <path stroke="#FFF" stroke-width=".721" d="M0 0H51.92V51.92H0z" opacity=".01" transform="translate(1 1)"/>
        <g transform="translate(1 1) translate(6.49 14.602)">
            <mask id="rxg4l24l1b" fill="#fff">
                <use xlink:href="#7ygzw73z2a"/>
            </mask>
            <path fill="#020303" d="M10.644 7.829c2.305.897 4.082 2.858 4.725 5.276l2.136-.116-5.022-8.494-1.839 3.334zm9.137 5.037c.494 0 .976.129 1.402.366L27.63 5.57l-.628-1.587-13.575-.042 5.31 8.98.738-.04c.099-.01.198-.015.297-.015h.008zM7.815 15.615h.007c.273-.004.494-.227.494-.5 0-.276-.225-.5-.5-.5-.276 0-.5.224-.5.5 0 .273.22.496.493.5h.006zm1.423.223l5.116.826c.119-.497.181-1.016.181-1.55 0-.292-.019-.58-.055-.862l-5.178.282c.07.18.11.376.11.58 0 .26-.063.506-.174.724zm6.2 1.002l1.799.29c-.223-.409-.35-.877-.35-1.375 0-.602.191-1.183.53-1.664l-1.84.101c.035.303.054.61.054.922 0 .593-.066 1.17-.192 1.726zm3.735.603l.643.104c.97-.021 1.753-.817 1.753-1.792 0-.526-.229-1.021-.628-1.363l-.011-.009c-.319-.268-.723-.418-1.14-.42l-.223.011c-.248.03-.488.11-.702.237l-.011.006c-.537.323-.87.912-.87 1.538 0 .777.496 1.44 1.189 1.688zM7.815 8.395c-3.704 0-6.72 3.014-6.72 6.72 0 3.704 3.016 6.719 6.72 6.719 2.783 0 5.175-1.7 6.195-4.115L7.767 16.71c-.858-.026-1.548-.732-1.548-1.596 0-.874.707-1.586 1.58-1.596l6.448-.351c-.837-2.759-3.404-4.772-6.432-4.772zm21.11.628c-2.29 1.071-3.883 3.4-3.883 6.091 0 3.705 3.015 6.72 6.72 6.72 3.705 0 6.72-3.015 6.72-6.72 0-3.705-3.015-6.72-6.72-6.72-.626 0-1.233.087-1.808.248l2.322 6.283c.105.283-.04.598-.324.703-.284.105-.599-.04-.704-.323l-2.323-6.282zm2.837 13.907c-4.31 0-7.816-3.506-7.816-7.816 0-3.163 1.89-5.893 4.599-7.122l-.464-1.254-6.059 7.2c.413.51.643 1.148.643 1.817 0 1.586-1.284 2.877-2.868 2.889h-.04c-.295-.002-.58-.049-.848-.133l-3.79-.613c-1.124 2.939-3.974 5.032-7.304 5.032C3.505 22.93 0 19.424 0 15.114 0 10.805 3.506 7.3 7.815 7.3c.605 0 1.194.07 1.76.2l2.253-4.088-1.012-1.575H8.834c-.302 0-.548-.246-.548-.548 0-.303.246-.549.548-.549h5.285c.303 0 .548.246.548.549 0 .302-.245.548-.548.548h-2l.647 1.007 13.89.043L25.59 0l4.448.046c.303.003.545.251.542.554-.003.3-.248.542-.548.542h-.006l-2.857-.03 2.403 6.5c.695-.204 1.43-.313 2.19-.313 4.31 0 7.815 3.506 7.815 7.815 0 4.31-3.506 7.816-7.815 7.816z" mask="url(#rxg4l24l1b)"/>
        </g>
    </g>
</svg>
