<svg xmlns="http://www.w3.org/2000/svg" xmlns:xlink="http://www.w3.org/1999/xlink" width="54" height="54" viewBox="0 0 54 54">
    <defs>
        <path id="sbrx230e3a" d="M0.285 0.054L10.778 0.054 10.778 10.546 0.285 10.546z"/>
        <path id="3x3b09krlc" d="M0.127 0.054L10.62 0.054 10.62 10.546 0.127 10.546z"/>
    </defs>
    <g fill="none" fill-rule="evenodd">
        <g>
            <g transform="translate(1 1) translate(6.49 11.357) translate(28.8 17.552)">
                <mask id="1ge8uy46ib" fill="#fff">
                    <use xlink:href="#sbrx230e3a"/>
                </mask>
                <path fill="#020303" d="M5.53 9.41c-2.265 0-4.11-1.843-4.11-4.109s1.845-4.11 4.11-4.11c2.267 0 4.112 1.844 4.112 4.11S7.797 9.41 5.53 9.41m0-9.356C2.638.054.285 2.408.285 5.301s2.353 5.245 5.246 5.245c2.893 0 5.247-2.352 5.247-5.245 0-2.893-2.354-5.247-5.247-5.247" mask="url(#1ge8uy46ib)"/>
            </g>
            <g transform="translate(1 1) translate(6.49 11.357) translate(.59 17.552)">
                <mask id="20kr4138gd" fill="#fff">
                    <use xlink:href="#3x3b09krlc"/>
                </mask>
                <path fill="#020303" d="M5.374 9.41c-2.266 0-4.111-1.843-4.111-4.109s1.845-4.11 4.111-4.11 4.11 1.844 4.11 4.11S7.641 9.41 5.374 9.41m0-9.356C2.481.054.127 2.408.127 5.301s2.355 5.245 5.247 5.245c2.893 0 5.246-2.352 5.246-5.245 0-2.893-2.353-5.247-5.246-5.247" mask="url(#20kr4138gd)"/>
            </g>
            <path fill="#020303" d="M35.186 15.043c-.147.03-.342.036-.59.036l-.45-.001c-1.267 0-2.659.174-4.24 1.43-1.037.828-1.69 1.848-2.265 2.748-.696 1.09-1.247 1.951-2.215 2.11-.095.017-.214.023-.355.023-1.169 0-3.595-.457-6.387-1.206-.417-.07-.845-.104-1.272-.104-1.383 0-2.744.354-4.048 1.051-.29-2.617-1.75-4.064-2.642-4.715-1.257-.92-2.784-1.333-3.898-1.635-.416-.113-.932-.253-1.048-.335l-.347-.283-3.998 3.059-.057.05c-.067.066-.137.06-.197.001-.049-.05-.055-.126-.018-.18l4.06-3.09-.461-.459c-.997-.996-1.46-1.866-1.338-2.518.083-.443.456-.844 1.103-1.197.014.005.026.014.04.018l13.552 3.237c-.615 1.228-1.426 3.041-1.47 3.138l-.286.64.685.147c.155.035 3.797.816 5.085 1.058.327.062.656.093.98.093 1.498 0 2.658-.662 3.185-1.817.614-1.332 1.38-3.945 1.132-4.85-.1-.364-.769-1.54-2.27-4.137-.77-1.33-1.565-2.706-1.948-3.438l-.159-.305h-2.993c-.111 0-.203-.093-.203-.206 0-.113.092-.205.203-.205h3.286l.167-.173c.947-.974 2.533-1.956 2.914-1.97 1.38.69 2.47 1.836 2.47 2.349 0 .406-1.09 2.012-1.09 2.012l.294.337c.055.06 5.441 6.166 6.826 7.924.616.78.734 1.111.755 1.221-.06.032-.195.08-.492.142m-27.18-7.45c3.395.19 9.472 1.498 10.073 1.956.355.306.637 1.257.642 2.033-.009.172-.04.32-.084.456L5.376 8.871c.217-.548.856-1.373 2.63-1.278m27.808 5.384c-1.23-1.561-5.4-6.309-6.567-7.635.059-.094.121-.203.183-.324.245-.446.407-.857.497-1.276.027-.096.045-.187.051-.268.007-.05.007-.098.004-.148-.01-.252-.096-.396-.096-.396l-.02-.028c-.205-.451-.635-.905-.957-1.256l-.002.002C28.264.944 27.365.344 26.712.073 26.595.025 26.462 0 26.32 0c-.93 0-2.537 1.174-3.455 2.063h-2.811c-.738 0-1.339.602-1.339 1.342 0 .74.6 1.342 1.339 1.342h2.308c.428.788 1.129 2 1.809 3.175.866 1.498 2.052 3.548 2.157 3.867.11.407-.376 2.576-1.069 4.078-.457 1.004-1.546 1.153-2.153 1.153-.254 0-.512-.025-.77-.072-.937-.176-3.216-.66-4.367-.905.352-.773.948-2.06 1.35-2.827.086-.048.161-.118.214-.208.236-.4.33-.933.322-1.495.03-1.148-.41-2.468-1.034-3.008-.922-.8-7.786-2.065-10.753-2.23-2.683-.157-3.662 1.396-3.892 2.448-1.086.541-1.717 1.244-1.875 2.093-.172.921.234 1.948 1.208 3.057L.43 16.22l-.058.048c-.495.494-.496 1.302.004 1.808.475.467 1.29.477 1.77.026l3.33-2.546c.266.107.613.202 1.05.32 1.03.278 2.438.661 3.527 1.456.795.58 2.136 1.934 2.222 4.474-.002.001-.004.006-.007.013-.107.224-.103.43.01.61l.175.27h.313c.184 0 .32-.084.476-.179 1.347-.867 2.75-1.306 4.17-1.306.364 0 .73.03 1.03.078 2.87.772 5.348 1.234 6.629 1.234.214 0 .392-.013.543-.038 1.464-.241 2.203-1.396 2.985-2.619.554-.867 1.127-1.762 2.015-2.47 1.373-1.092 2.544-1.184 3.532-1.184l.45.002c.318 0 .58-.01.82-.06.418-.087 1.115-.231 1.34-.845.202-.556-.07-1.232-.941-2.334" transform="translate(1 1) translate(6.49 11.357)"/>
        </g>
        <path stroke="#FFF" stroke-width=".721" d="M0 0H51.92V51.92H0z" opacity=".01" transform="translate(1 1)"/>
    </g>
</svg>
