<?xml version="1.0" encoding="UTF-8" standalone="no"?>
<svg width="105px" height="78px" viewBox="0 0 105 78" version="1.1" xmlns="http://www.w3.org/2000/svg" xmlns:xlink="http://www.w3.org/1999/xlink">
    <!-- Generator: Sketch 46.2 (44496) - http://www.bohemiancoding.com/sketch -->
    <title>Chim</title>
    <desc>Created with Sketch.</desc>
    <defs>
        <polygon id="path-1" points="105 78 0 78 0 0 105 0"></polygon>
    </defs>
    <g id="Page-1" stroke="none" stroke-width="1" fill="none" fill-rule="evenodd">
        <g id="Artboard" transform="translate(-1493.000000, -514.000000)">
            <g id="Chim" transform="translate(1493.000000, 514.000000)">
                <mask id="mask-2" fill="white">
                    <use xlink:href="#path-1"></use>
                </mask>
                <g id="Clip-2"></g>
                <path d="M97.7402899,7.97805967 C94.6630448,8.14786617 91.560906,8.62123737 89.4995156,8.98741228 L88.8532367,9.10314632 L89.0696204,8.48937645 C89.4305792,7.47053744 89.8489849,6.62529949 90.13622,6.09500991 L90.2501566,5.8844119 L90.491434,5.89579558 C91.9122902,5.96220036 94.7578324,6.22307627 97.8398647,7.23906936 L99.7461482,7.86706883 L97.7402899,7.97805967 Z M96.3653913,11.3931625 C93.6232538,12.4840981 91.214309,13.7144838 89.2055784,15.0482712 L88.7670661,15.3395035 L88.6244061,14.8357759 C88.3831286,13.9857947 88.2816389,13.0684602 88.3237667,12.1093855 L88.337171,11.810564 L88.6320657,11.7526969 C89.8058997,11.5259721 92.8917618,10.9634287 96.1873056,10.6627099 L98.797315,10.4246014 L96.3653913,11.3931625 Z M87.5635512,5.44044854 C86.3811001,7.79117765 84.6787536,12.381645 86.557271,16.7264148 L86.6645054,16.9749583 L86.4634408,17.1570972 C84.4977955,18.9310534 83.1774716,20.8492028 82.5388523,22.8593702 L82.4392774,23.17337 L82.5053415,23.4940102 C82.6125759,24.052759 85.0090739,37.1088868 77.0555347,46.7356822 C71.3826419,53.6057308 61.8129267,57.1375163 48.6106451,57.2352262 L46.379786,57.2523017 L48.478517,56.4990818 C70.9738107,48.4261581 76.7280867,31.8154774 77.9555379,26.9176508 C77.9651124,26.769663 77.9459634,26.1625336 77.6414942,25.8333556 C77.4835149,25.6626005 77.2613865,25.5791202 76.9636194,25.5791202 L76.8506403,25.5620447 C76.5442562,25.4681294 76.2876596,25.4833076 76.0645736,25.6104253 C75.5590399,25.8997604 75.3713797,26.6624667 75.3694648,26.6710045 C73.9189276,32.2594408 66.9563494,50.9134914 38.1313521,56.7438308 L8.36996849,59.1173273 L63.6349545,18.5022682 L63.7306995,18.0127701 C63.7374017,17.9767218 64.5138938,14.129988 66.7610296,10.2671272 C69.6908273,5.22605597 73.7628632,2.56132712 78.5347953,2.56132712 C81.2041666,2.56132712 84.1847092,3.35818445 87.3902527,4.93197767 L87.7349348,5.09988689 L87.5635512,5.44044854 Z M6.98932523,67.5516826 L13.5162636,61.2555611 L28.5118494,60.052686 L6.98932523,67.5516826 Z M102.943075,6.68126923 C97.6397576,3.66649234 91.656651,3.34395485 89.9504747,3.3164443 L89.7743038,3.2709096 C85.7396084,1.10042202 81.9595948,0 78.5357527,0 C68.0076298,0 62.7694195,10.6171752 61.3322866,16.8905294 L61.3006908,17.0280822 L3.08771545,59.7956046 C2.47877709,60.3638398 1.68313593,61.3988057 1.85834933,61.7924912 C1.94069005,61.9784245 2.40601087,62.1491797 3.452504,62.0638021 L9.47678098,61.5799959 L0.455684709,70.2799703 C0.149300628,70.7998249 -0.163785604,71.673522 0.0975983148,71.9913163 C0.198130591,72.1136908 0.690260021,72.4627902 2.75931002,71.7408754 L38.4549703,59.2842879 L38.5401834,59.2937742 C41.5484921,59.5992362 44.4629706,59.7690427 47.2070231,59.7984506 L47.8456424,59.8060397 L46.3070198,62.5865026 L46.3079773,62.5855539 C46.313722,62.5855539 45.7813796,64.1849604 46.8259579,65.5348747 L54.1159841,74.964353 L50.6548014,75.2906851 L49.1094767,75.4481593 C48.9495825,75.4633375 47.5497902,75.633144 47.6685141,76.8673242 C47.7546846,77.7685319 48.565645,77.9800786 49.2301154,78 L56.5354609,77.2543692 L66.7303911,77.9430816 L66.7294337,77.9753354 L66.7332635,77.9449789 C66.9573069,77.9696435 67.6160326,77.9705922 67.9789063,77.6509006 C68.1732687,77.4801455 68.2680562,77.2334991 68.2680562,76.8976807 C68.2680562,75.6075307 66.7265613,75.4851562 66.6614547,75.480413 L57.2200378,74.7860088 L48.6393686,63.6812327 L50.817568,59.7491213 L51.0339517,59.7405835 C63.808253,59.2302154 73.2343507,55.400557 79.0518184,48.3578561 C87.1480178,38.5593569 85.5241821,25.879839 85.1163083,23.4380405 L85.1000317,23.3374846 L85.1354573,23.2426207 C87.4869552,17.0024689 97.8925245,13.3492575 102.275732,12.0638507 C103.95127,11.4586186 104.862762,10.707296 104.985316,9.82885567 C105.19787,8.30723763 103.034032,6.74767401 102.943075,6.68126923 L102.943075,6.68126923 Z" id="Fill-1" fill="#020303" mask="url(#mask-2)"></path>
            </g>
        </g>
    </g>
</svg>