<?xml version="1.0" encoding="UTF-8" standalone="no"?>
<svg width="60px" height="60px" viewBox="0 0 60 60" version="1.1" xmlns="http://www.w3.org/2000/svg" xmlns:xlink="http://www.w3.org/1999/xlink">
    <!-- Generator: Sketch 46.2 (44496) - http://www.bohemiancoding.com/sketch -->
    <title>05</title>
    <desc>Created with Sketch.</desc>
    <defs></defs>
    <g id="UI" stroke="none" stroke-width="1" fill="none" fill-rule="evenodd">
        <g id="05" fill="#000000">
            <g id="Page-1-Copy-5" transform="translate(4.000000, 9.000000)">
                <path d="M25.9144737,29.8370066 C22.9114737,29.8370066 20.4688421,27.3789738 20.4688421,24.3570393 C20.4688421,21.3357934 22.9114737,18.8784492 25.9144737,18.8784492 C28.9167895,18.8784492 31.3594211,21.3357934 31.3594211,24.3570393 C31.3594211,27.3789738 28.9167895,29.8370066 25.9144737,29.8370066 M25.9144737,17.2135967 C22.0001053,17.2135967 18.8157895,20.4179902 18.8157895,24.3570393 C18.8157895,28.2960885 22.0001053,31.500482 25.9144737,31.500482 C29.8288421,31.500482 33.0131579,28.2960885 33.0131579,24.3570393 C33.0131579,20.4179902 29.8288421,17.2135967 25.9144737,17.2135967" id="Fill-1"></path>
                <path d="M25.9144737,35.574482 C19.7682105,35.574482 14.7673158,30.5427443 14.7673158,24.3570393 C14.7673158,18.1727115 19.7682105,13.1402852 25.9144737,13.1402852 C32.0600526,13.1402852 37.0609474,18.1727115 37.0609474,24.3570393 C37.0609474,30.5427443 32.0600526,35.574482 25.9144737,35.574482 M25.9144737,11.4768098 C18.8561579,11.4768098 13.1135789,17.2555967 13.1135789,24.3570393 C13.1135789,31.459859 18.8561579,37.2386459 25.9144737,37.2386459 C32.9721053,37.2386459 38.7146842,31.459859 38.7146842,24.3570393 C38.7146842,17.2555967 32.9721053,11.4768098 25.9144737,11.4768098" id="Fill-3"></path>
                <path d="M43.5896842,13.1981213 C42.8055789,13.1981213 42.1925263,13.8150393 42.1925263,14.6034 C42.1925263,15.3917607 42.8055789,16.0086787 43.5896842,16.0086787 C44.3737895,16.0086787 44.9868421,15.3917607 44.9868421,14.6034 C44.9868421,13.8150393 44.3737895,13.1981213 43.5896842,13.1981213" id="Fill-5"></path>
                <path d="M50.1752105,35.8326787 C50.1752105,38.2617934 48.2840526,40.1648754 45.8701579,40.1648754 L5.95810526,40.1648754 C3.54489474,40.1648754 1.65373684,38.2617934 1.65373684,35.8326787 L1.65373684,12.8820885 C1.65373684,10.4536623 3.54489474,8.55058033 5.95810526,8.55058033 L15.0806842,8.55058033 C15.3742105,8.55058033 15.6574737,8.38671148 15.8018421,8.13471148 L19.5574737,1.66533443 L32.2707895,1.66533443 L36.0257368,8.13402295 C36.1707895,8.3874 36.452,8.55058033 36.7407368,8.55058033 L36.7475789,8.55058033 L45.8701579,8.55058033 C48.2840526,8.55058033 50.1752105,10.4536623 50.1752105,12.8820885 L50.1752105,35.8326787 Z M45.8701579,6.88572787 L37.2340526,6.88572787 L33.4722632,0.39087541 C33.3203684,0.145760656 33.0268421,-0.0153540984 32.7565789,0.0011704918 L19.0655263,0.0011704918 C18.7220526,0.0101213115 18.4593158,0.208416393 18.3512105,0.39844918 L14.5948947,6.88572787 L5.95810526,6.88572787 C2.67252632,6.88572787 0,9.57579344 0,12.8820885 L0,35.8326787 C0,39.1389738 2.67252632,41.8283508 5.95810526,41.8283508 L45.8701579,41.8283508 C49.1557368,41.8283508 51.8282632,39.1389738 51.8282632,35.8326787 L51.8282632,12.8820885 C51.8282632,9.57579344 49.1557368,6.88572787 45.8701579,6.88572787 L45.8701579,6.88572787 Z" id="Fill-7"></path>
            </g>
        </g>
    </g>
</svg>