<svg xmlns="http://www.w3.org/2000/svg" xmlns:xlink="http://www.w3.org/1999/xlink" width="54" height="54" viewBox="0 0 54 54">
    <defs>
        <path id="iy1epyefya" d="M0 0.127L48.297 0.127 48.297 16.37 0 16.37z"/>
    </defs>
    <g fill="none" fill-rule="evenodd">
        <g>
            <path fill="#020303" d="M12.879 15.243c0 1.288-.993 2.337-2.212 2.337-1.22 0-2.211-1.049-2.211-2.337 0-1.288.991-2.337 2.211-2.337 1.22 0 2.212 1.049 2.212 2.337m-2.212-3.579c-1.867 0-3.386 1.605-3.386 3.58 0 1.973 1.519 3.578 3.386 3.578 1.868 0 3.387-1.605 3.387-3.579 0-1.974-1.519-3.579-3.387-3.579M40.775 15.136c0 1.288-.991 2.337-2.211 2.337-1.22 0-2.211-1.049-2.211-2.337 0-1.289.992-2.337 2.21-2.337 1.221 0 2.212 1.048 2.212 2.337m-2.211-3.58c-1.867 0-3.386 1.606-3.386 3.58s1.52 3.578 3.386 3.578c1.868 0 3.386-1.604 3.386-3.578 0-1.974-1.518-3.58-3.386-3.58M20.462 7.034c-4.066-.252-7.1-.478-9.023-.671-.035-.095-.062-.218-.03-.338.069-.249.402-.501.913-.695.015-.005.03-.012.044-.02.025-.012 2.57-1.241 7.376-1.389l.72 3.113zm.192-3.804c-.057-.245-.27-.42-.506-.42h-.008c-5.141.088-7.899 1.35-8.19 1.492-.862.33-1.382.81-1.545 1.432-.209.795.262 1.428.316 1.497.089.115.214.185.353.2 2.035.213 5.41.463 10.031.745l.03.001c.155 0 .302-.072.4-.198.106-.134.146-.314.106-.484l-.987-4.265zM33.351 7.716l-9.221-.499-.813-3.256c3.188.243 5.777 1.278 7.395 2.107 1.262.649 2.17 1.288 2.64 1.648m1.032-.553c-.189-.167-4.75-4.077-11.733-4.343h-.02c-.156 0-.307.076-.406.208-.103.135-.138.316-.097.483l1.092 4.377c.058.233.249.397.477.41.033 0 1.18.062 2.698.145l7.648.412h.02l.036-.002c.332-.024.726-.192.835-.593.15-.56-.379-.967-.55-1.097" transform="translate(1 1) translate(1.182 16.364)"/>
            <g transform="translate(1 1) translate(1.182 16.364) translate(0 .037)">
                <mask id="jvz8t3jq7b" fill="#fff">
                    <use xlink:href="#iy1epyefya"/>
                </mask>
                <path fill="#020303" d="M47.197 14.486c-.428.044-1.24.117-3.508.222-.108-2.906-2.355-5.231-5.132-5.231-2.845 0-5.151 2.438-5.151 5.444 0 .057.013.11.015.168-2.262.086-5.333.117-8.673.117-2.898 0-5.998-.023-8.946-.053.004-.08.022-.153.022-.232 0-3.006-2.307-5.444-5.152-5.444S5.52 11.915 5.52 14.92v.004c-.07.027-.153.048-.274.048h-.019c-3.48-.454-3.345-1.018-3.428-1.088-.636-.833-.839-1.637-.602-2.388.183-.576.564-.925.575-.936.106-.093.164-.234.157-.38-.109-2.112.503-4.237.688-4.682.835-.159 3.07-.288 3.93-.326.067-.003.132-.022.19-.055 4.795-2.73 9.71-3.55 12.99-3.76.748-.048 1.447-.067 2.087-.067 2.4 0 3.938.267 3.958.27l.03.005c3.834.382 10.22 4.347 10.282 4.386.054.034.115.055.177.063 7.321.93 10.816 4.715 10.936 5.047v3.424zm1.028-3.84c-.328-.908-4.24-4.782-11.7-5.77-1.098-.673-6.838-4.092-10.618-4.47.01 0-1.602-.279-4.093-.279-.715 0-1.44.024-2.155.07-3.359.213-8.382 1.051-13.31 3.82-.633.031-2.973.155-3.927.335l-.578.11-.235.569C1.43 5.458.765 7.609.818 9.928c-.21.247-.493.654-.665 1.2-.246.78-.314 2 .736 3.418.387.709 1.262 1.199 4.204 1.582l.057.007.059.001h.003c.27 0 .485-.04.691-.121l.718-.28V14.865c.03-2.335 1.835-4.225 4.05-4.225 2.223 0 4.032 1.9 4.052 4.243-.01.085-.017.152-.02.22l-.05 1.2 1.138.013c3.512.037 6.443.054 8.957.054 3.786 0 6.636-.038 8.713-.119l1.094-.043-.033-1.157c-.002-.06-.007-.12-.015-.18.026-2.338 1.834-4.23 4.05-4.23 2.175 0 3.945 1.806 4.03 4.112l.045 1.169 1.105-.051c2.222-.103 3.073-.175 3.568-.226l.993-.104V10.848l-.073-.202z" mask="url(#jvz8t3jq7b)"/>
            </g>
        </g>
        <path stroke="#FFF" stroke-width=".722" d="M0 0H52V52H0z" opacity=".01" transform="translate(1 1)"/>
    </g>
</svg>
