<?xml version="1.0" encoding="UTF-8"?>
<svg width="47px" height="80px" viewBox="0 0 47 80" version="1.1" xmlns="http://www.w3.org/2000/svg" xmlns:xlink="http://www.w3.org/1999/xlink">
    <!-- Generator: Sketch 55.1 (78136) - https://sketchapp.com -->
    <title>cat</title>
    <desc>Created with Sketch.</desc>
    <g id="Page-1" stroke="none" stroke-width="1" fill="none" fill-rule="evenodd">
        <g id="Suu-tam,-game,-so-thich-khac" transform="translate(-93.000000, -240.000000)" fill="#000000" fill-rule="nonzero" stroke="#000000" stroke-width="0.5">
            <path d="M94.1331677,253.954573 L94.0765572,254.235149 C93.3648822,257.842549 97.8047636,260.335663 99.5354277,261.15334 C98.8965377,263.670504 97.109263,272.464543 101.727063,279.270504 C106.822009,286.846043 105.94859,293.93258 104.509065,297.251387 C101.524883,297.51593 99.7942186,298.357657 99.2200263,299.824666 C98.4113047,301.916958 100.497806,304.145529 100.740423,304.394039 L100.974952,304.634532 L128.358264,304.634532 C128.3987,307.143679 127.549542,309.067626 125.932099,310.246043 C123.109661,312.242138 118.249244,311.969579 112.596281,309.50853 C109.498877,308.161768 106.73305,308.31408 105.196479,309.917369 C104.120108,311.088628 103.927447,312.813879 104.719333,314.190134 C105.989026,316.675231 109.854715,319 117.044249,319 C118.691039,318.99347 120.33586,318.886382 121.969364,318.679342 C128.932456,317.797533 133.380425,315.408633 135.240484,311.552724 C137.618126,306.558479 134.763339,300.802672 133.809047,299.127235 C135.240484,297.091059 140.788314,288.505447 138.41876,281.218499 C135.733804,272.488592 128.269304,268.247893 122.244329,264.840904 C118.249244,262.572251 115.09523,260.776567 115.006271,258.539979 C114.723218,251.32518 111.108233,248.447276 108.738679,247.316958 C107.895623,244.723656 106.011646,242.589382 103.530512,241.416855 L102.503436,241 L102.268907,244.094347 L96.6078557,241.633299 L98.3951303,250.71593 C96.9798676,251.717986 95.4513838,252.840288 94.3515225,253.770195 L94.1331677,253.954573 Z M98.7752294,244.334841 L102.139511,245.793834 L101.953505,248.278931 C101.541057,248.559507 100.764684,249.080576 99.8427419,249.713875 L98.7752294,244.334841 Z M103.174675,249.393217 L103.506251,249.176773 L103.934873,243.477081 C105.583202,244.583022 106.785797,246.229215 107.331503,248.126619 L107.436637,248.495375 L107.792475,248.647688 C109.78193,249.513464 113.162386,251.918397 113.421177,258.596095 C113.542485,261.722508 117.036162,263.710586 121.508392,266.227749 C127.258403,269.498458 134.447937,273.562795 136.914538,281.69147 C139.340703,289.074615 132.304825,298.526002 132.240127,298.59815 L131.908551,299.039054 L132.207778,299.504008 C132.207778,299.56814 136.202863,305.869065 133.825222,310.863309 C132.207778,314.190134 128.164171,316.274409 121.791445,317.060021 C112.232356,318.230421 107.412376,315.849538 106.183119,313.452621 C105.717247,312.691157 105.802301,311.71835 106.393386,311.047688 C107.029869,310.476216 107.873913,310.186715 108.730592,310.246043 C109.853124,310.289237 110.954502,310.562172 111.965478,311.047688 C118.152198,313.741213 123.594894,313.94964 126.886391,311.624872 C129.191247,310.021583 130.258759,307.312025 129.975707,303.856937 L129.919096,303.119424 L110.736221,303.119424 C110.383156,302.308503 110.383156,301.389134 110.736221,300.578212 C111.124408,299.976978 111.973565,299.656321 113.243258,299.640288 C116.284051,299.640288 117.205994,300.377801 117.214081,300.377801 L117.214081,300.377801 L118.37864,299.263515 C118.176459,299.055087 116.987639,298.036999 113.235171,298.036999 C112.400834,298.029872 111.574284,298.196467 110.809006,298.526002 C111.549292,294.214816 111.968265,289.855441 112.062525,285.483248 L110.445081,285.483248 C110.356122,289.427338 109.63636,300.241521 107.63073,302.894964 L107.86526,303.071326 L101.686627,303.071326 C101.18522,302.470092 100.40076,301.267626 100.732336,300.433916 C101.063911,299.600206 102.649006,298.974923 105.07517,298.814594 L105.544229,298.814594 L105.746409,298.397739 C108.01083,293.812333 108.051266,285.852004 103.045279,278.412744 C98.1929499,271.197945 101.209481,261.065159 101.24183,260.960946 L101.460185,260.255498 L100.797033,259.934841 C100.740423,259.934841 95.3866861,257.690236 95.6212154,254.780267 C98.2738221,252.639877 103.126151,249.425283 103.182762,249.393217 L103.174675,249.393217 Z" id="cat"></path>
        </g>
    </g>
</svg>