<?xml version="1.0" encoding="UTF-8" standalone="no"?>
<svg width="84px" height="95px" viewBox="0 0 84 95" version="1.1" xmlns="http://www.w3.org/2000/svg" xmlns:xlink="http://www.w3.org/1999/xlink">
    <!-- Generator: Sketch 46.2 (44496) - http://www.bohemiancoding.com/sketch -->
    <title>Ga</title>
    <desc>Created with Sketch.</desc>
    <defs>
        <polygon id="path-1" points="41.599 95 83.198 95 83.198 0.0305431827 0 0.0305431827 0 95"></polygon>
    </defs>
    <g id="Page-1" stroke="none" stroke-width="1" fill="none" fill-rule="evenodd">
        <g id="Artboard" transform="translate(-1126.000000, -508.000000)">
            <g id="Ga" transform="translate(1126.000000, 507.000000)">
                <path d="M67.9663,14.1689 C67.1233,14.1689 66.4383,14.8539 66.4383,15.6969 C66.4383,16.5389 67.1233,17.2239 67.9663,17.2239 C68.8083,17.2239 69.4933,16.5389 69.4933,15.6969 C69.4933,14.8539 68.8083,14.1689 67.9663,14.1689" id="Fill-1" fill="#020303"></path>
                <path d="M59.9673,43.2451 L58.6043,43.2331 L57.2413,43.2521 C57.2103,44.7491 56.4463,53.5931 43.1613,59.3291 C41.1553,60.1971 39.5593,60.7971 38.4183,61.1131 L38.1233,61.1951 L38.2773,60.9301 C38.3763,60.7581 38.4753,60.5931 38.5583,60.4541 C39.4413,58.9851 40.2753,57.5971 39.5313,56.3861 C39.2383,55.9071 38.6023,55.3611 37.2673,55.4531 C31.6823,55.8541 25.2333,54.8301 23.9203,52.4321 L21.4553,53.5961 C23.3843,57.3991 30.7303,58.4711 36.4903,58.2251 L36.7173,58.2161 L36.6043,58.4121 C36.4923,58.6071 36.3763,58.8011 36.2773,58.9671 L36.2253,59.0551 C35.3553,60.5031 34.3703,62.1441 35.4363,63.3621 C35.8523,63.8381 36.4053,64.0591 37.1773,64.0591 C38.5093,64.0591 40.6213,63.3921 44.2423,61.8311 C58.9483,55.4801 59.9393,45.5021 59.9673,43.2451" id="Fill-3" fill="#020303"></path>
                <g id="Group-7" transform="translate(0.000000, 0.969700)">
                    <mask id="mask-2" fill="white">
                        <use xlink:href="#path-1"></use>
                    </mask>
                    <g id="Clip-6"></g>
                    <path d="M75.689,13.938 C70.121,15.902 69.112,23.993 69.072,24.337 L69.072,24.337 L69.051,24.512 L69.076,24.686 C69.171,25.351 69.252,25.996 69.332,26.638 L69.341,26.713 L69.279,26.756 C68.153,27.54 67.188,27.934 66.398,27.935 C66.117,27.935 65.858,27.884 65.622,27.785 C64.062,27.123 62.863,24.049 62.414,19.563 C62.159,16.999 60.548,16.29 59.61,16.096 C58.907,15.952 58.036,16.009 57.022,16.267 L56.499,16.4 L56.91,16.051 C56.929,16.035 56.947,16.018 56.964,16.001 C56.986,15.981 57.009,15.96 57.032,15.94 C60.819,12.721 64.564,11.088 68.162,11.088 C71.482,11.088 74.106,12.52 75.722,13.72 L75.911,13.86 L75.689,13.938 Z M54.608,66.178 C52.257,67.705 49.076,68.773 45.408,69.269 L44.931,69.333 L44.602,69.682 C38.914,75.697 36.708,76.233 36.211,76.266 L36.155,76.323 L36.044,76.251 C36.013,76.217 35.289,75.38 36.247,70.862 L36.552,69.419 L35.089,69.229 C28.237,68.34 22.003,65.842 18.415,62.547 C11.062,55.795 11.55,43.194 11.785,37.138 C11.804,36.669 11.821,36.234 11.832,35.842 C11.921,32.877 10.333,30.801 9.173,29.286 L9.154,29.26 C8.48,28.376 7.969,27.675 8.03,27.345 C8.039,27.283 8.138,26.923 9.14,26.294 C10.311,25.558 10.998,24.467 11.128,23.139 C11.409,20.249 8.859,16.627 6.671,14.099 L6.475,13.873 L6.774,13.893 C25.211,15.11 31.536,33.376 33.035,38.946 L33.074,39.092 L32.923,39.103 C28.729,39.412 22.943,40.704 19.111,45.096 L21.179,46.87 C25.197,42.284 32.078,41.706 35.821,41.757 C36.863,41.866 37.816,41.92 38.664,41.92 C47.339,41.92 48.387,36.577 49.496,30.92 C50.057,28.055 50.692,24.808 52.362,21.682 L52.394,21.644 C52.439,21.608 52.486,21.57 52.538,21.531 L52.463,21.486 L52.527,21.378 L52.67,21.43 C54.211,20.288 57.85,18.27 59.215,18.808 C59.314,18.847 59.619,18.964 59.705,19.833 C60.288,25.653 61.921,29.171 64.56,30.291 C66.015,30.909 67.682,30.749 69.502,29.806 L69.668,29.72 L69.684,29.905 C71.751,53.003 63.371,60.49 54.608,66.178 L54.608,66.178 Z M38.251,78.473 L38.352,78.424 C38.589,78.311 38.87,78.158 39.187,77.971 L39.366,77.865 L39.551,82.148 L38.251,78.473 Z M62.335,6.802 C62.804,6.645 63.794,6.564 64.518,6.506 C66.786,6.324 69.886,6.075 71.364,3.611 C71.525,3.346 71.672,3.128 71.802,2.964 L71.88,2.865 L71.979,2.945 C72.072,3.02 72.171,3.105 72.26,3.182 L72.29,3.208 C73.425,4.181 75.534,5.99 79.573,4.689 L79.917,4.579 L79.714,4.878 C78.791,6.249 77.162,8.216 75.358,10.141 L75.293,10.21 L75.208,10.166 C71.606,8.239 67.663,7.827 63.569,9.08 L63.483,9.106 L63.431,9.033 C62.573,7.834 62.325,7.216 62.254,6.953 L62.223,6.839 L62.335,6.802 Z M77.715,11.81 L77.609,11.726 L77.702,11.626 C84.3,4.564 83.307,3.042 82.883,2.393 C81.938,0.935 79.874,1.691 79.096,1.976 C76.252,3.018 75.14,2.064 74.064,1.143 C73.407,0.58 72.596,-0.117 71.48,0.058 C70.349,0.242 69.606,1.25 69.029,2.211 C68.272,3.471 66.162,3.642 64.3,3.793 C62.383,3.947 60.402,4.106 59.702,5.702 C59.219,6.8 59.562,8.133 60.813,10.024 L60.891,10.143 L60.763,10.206 C58.896,11.119 57.045,12.351 55.264,13.865 C49.018,19.175 47.799,25.396 46.82,30.394 C45.709,36.069 45.096,39.195 38.661,39.196 C38.631,39.196 38.599,39.195 38.566,39.193 L38.489,39.191 C38.221,39.159 37.29,39.054 35.948,39.024 L35.854,39.022 L35.83,38.931 C35.101,36.153 32.865,29.001 27.868,22.615 C21.546,14.537 13.248,10.674 3.209,11.143 L0,11.293 L2.339,13.496 C4.997,15.997 8.639,20.562 8.414,22.876 C8.368,23.358 8.144,23.702 7.688,23.988 C6.304,24.857 5.538,25.798 5.347,26.862 C5.069,28.407 6.055,29.694 7.008,30.939 C8.07,32.326 9.169,33.759 9.109,35.759 C9.099,36.109 9.084,36.494 9.067,36.909 L9.063,37.033 C8.812,43.498 8.292,56.949 16.572,64.553 C20.298,67.976 26.354,70.581 33.186,71.702 L33.309,71.722 L33.289,71.845 C32.793,74.871 32.993,76.812 33.919,77.954 C34.319,78.448 34.835,78.77 35.455,78.911 L35.522,78.926 L39.605,90.467 L35.368,92.409 L36.504,94.887 L41.454,92.616 L52.018,95 L52.617,92.343 L42.62,90.088 L42.616,89.993 L42.009,75.924 L42.056,75.885 C43.32,74.824 44.72,73.495 46.215,71.932 L46.245,71.901 L46.287,71.895 C50.181,71.312 53.478,70.157 56.088,68.462 C65.798,62.159 75.821,53.044 71.798,24.51 L71.795,24.492 L71.798,24.474 C72.006,23.097 73.296,16.232 78.291,16.232 C78.471,16.232 78.658,16.241 78.861,16.259 L82.01,16.552 L80.058,14.063 C80.023,14.019 79.204,12.984 77.715,11.81 L77.715,11.81 Z" id="Fill-5" fill="#020303" mask="url(#mask-2)"></path>
                </g>
                <path d="M39.1343,79.2607 L39.2293,81.4597 L38.5603,79.5707 C38.7333,79.4847 38.9253,79.3807 39.1343,79.2607 L39.1343,79.2607 Z M39.1873,78.9407 C38.8693,79.1277 38.5893,79.2807 38.3513,79.3937 L38.2503,79.4427 L39.5513,83.1177 L39.3663,78.8347 L39.1873,78.9407 Z" id="Fill-8" fill="#FEFEFE"></path>
                <path d="M72.0977,4.3418 L72.1287,4.3678 C73.2667,5.3438 75.3577,7.1348 79.3047,6.0018 C78.3757,7.3238 76.8857,9.1108 75.2417,10.8698 C72.9937,9.6838 70.6107,9.0828 68.1587,9.0828 C66.6697,9.0828 65.1307,9.3188 63.5827,9.7838 C62.8967,8.8178 62.6337,8.2628 62.5317,7.9738 C63.0157,7.8478 63.9227,7.7748 64.5417,7.7248 C66.8597,7.5388 70.0347,7.2838 71.5787,4.7098 C71.7017,4.5058 71.8167,4.3318 71.9207,4.1908 C71.9807,4.2408 72.0417,4.2938 72.0977,4.3418 M63.4307,10.0028 L63.4837,10.0758 L63.5697,10.0498 C67.6627,8.7968 71.6057,9.2088 75.2077,11.1348 L75.2927,11.1798 L75.3587,11.1108 C77.1617,9.1858 78.7907,7.2188 79.7147,5.8478 L79.9167,5.5488 L79.5727,5.6588 C75.5347,6.9598 73.4247,5.1508 72.2897,4.1768 L72.2607,4.1518 C72.1707,4.0748 72.0717,3.9898 71.9787,3.9148 L71.8807,3.8348 L71.8017,3.9338 C71.6727,4.0978 71.5257,4.3158 71.3647,4.5808 C69.8867,7.0448 66.7857,7.2938 64.5177,7.4758 C63.7947,7.5338 62.8037,7.6148 62.3347,7.7718 L62.2227,7.8088 L62.2537,7.9228 C62.3257,8.1858 62.5737,8.8038 63.4307,10.0028" id="Fill-10" fill="#FEFEFE"></path>
            </g>
        </g>
    </g>
</svg>