<?xml version="1.0" encoding="UTF-8" standalone="no"?>
<svg width="117px" height="78px" viewBox="0 0 117 78" version="1.1" xmlns="http://www.w3.org/2000/svg" xmlns:xlink="http://www.w3.org/1999/xlink">
    <!-- Generator: Sketch 46.2 (44496) - http://www.bohemiancoding.com/sketch -->
    <title>Cho</title>
    <desc>Created with Sketch.</desc>
    <defs>
        <polygon id="path-1" points="116.240384 4.26325641e-14 0 0 0 77.75 116.241 77.75 116.241 0 116.240384 77.7498 -6.36557018e-05 77.7498 -6.36557018e-05 -0.0002 116.240384 -0.0002"></polygon>
    </defs>
    <g id="Page-1" stroke="none" stroke-width="1" fill="none" fill-rule="evenodd">
        <g id="Artboard" transform="translate(-1289.000000, -507.000000)">
            <g id="Cho" transform="translate(1289.000000, 507.000000)">
                <mask id="mask-2" fill="white">
                    <use xlink:href="#path-1"></use>
                </mask>
                <g id="Clip-2"></g>
                <path d="M111.5111,17.2598 C109.6351,20.7718 101.3701,22.0638 98.3441,22.2658 L96.9191,22.3608 L97.1081,23.8668 L96.8981,23.8178 C88.8691,21.9388 84.9101,18.0978 83.5801,16.5338 L83.5111,16.4528 L83.5651,16.3618 C83.8861,15.8118 84.2001,15.2228 84.5271,14.5608 L84.6191,14.3718 L84.7681,14.5218 C86.1541,15.9198 88.4961,16.9388 91.9311,17.6368 C92.6701,17.7888 93.3681,17.8658 94.0061,17.8658 C95.7461,17.8658 97.0491,17.2838 97.8791,16.1368 C99.8181,13.4558 98.2161,8.3778 96.5321,4.5908 C96.5221,4.5608 96.4321,3.9998 96.7721,3.6438 C97.0101,3.3938 97.3841,3.3188 97.8791,3.4178 C98.0331,3.4578 98.1761,3.4958 98.3171,3.5348 C98.3861,3.5578 98.4411,3.5718 98.4901,3.5858 C104.1071,5.2328 105.0161,8.3628 105.0521,8.4948 L105.3181,9.6398 L106.4841,9.5368 C110.2281,9.2088 112.6461,9.6368 113.3081,10.7418 C114.2021,12.2368 112.3171,15.7568 111.5111,17.2598 L111.5111,17.2598 Z M97.3321,28.4458 C97.1211,29.1998 96.3091,29.3038 95.8631,29.2518 L95.8231,29.2938 L95.7701,29.2538 C92.2971,28.4818 86.9761,26.5368 81.3461,21.6528 C81.1841,21.4978 80.8821,21.0908 80.8701,20.6228 C80.8621,20.3018 80.9861,20.0058 81.2371,19.7428 C81.4921,19.4738 81.7821,19.3348 82.0981,19.3288 C82.1051,19.3288 82.1121,19.3288 82.1181,19.3288 C82.4051,19.3288 82.6551,19.4398 82.8271,19.5468 L82.8271,19.4828 L83.0841,19.7388 C84.4871,21.1508 88.5901,24.6278 96.4011,26.4428 L96.4381,26.4558 C96.7631,26.6308 97.1851,26.9678 97.3481,27.5848 L97.3541,27.6268 L97.3321,28.4458 Z M97.1801,34.4138 C96.0701,43.0468 92.2281,46.7048 92.1901,46.7408 C85.9981,52.8018 84.9021,69.5518 84.8581,70.2608 L84.8221,70.8178 C84.8251,70.8178 84.9321,71.3928 85.3241,71.6738 C85.5121,71.8088 85.7431,71.8558 86.0121,71.8098 L86.6261,71.5968 C89.1671,70.7478 90.8751,70.8258 91.7001,71.8248 C92.0101,72.1978 92.2331,72.7228 92.3641,73.3848 C92.3651,75.0058 91.0501,75.0518 91.0361,75.0518 L84.6581,75.0518 C83.9641,75.0518 83.4551,74.8468 83.0081,74.3898 C80.9481,72.2878 80.6031,66.6538 80.6431,64.6598 L80.8981,50.0508 C80.9051,49.6708 80.7971,49.3928 80.5761,49.2248 C80.0631,48.8308 79.1021,49.1038 79.0941,49.1068 C76.8851,49.8798 74.1731,50.2738 71.0411,50.2738 C62.2081,50.2738 52.3451,47.1138 49.5161,46.1388 L49.5081,46.1358 C48.5311,45.8238 47.7761,45.8428 47.2621,46.1928 C46.6441,46.6148 46.5891,47.3968 46.5891,47.4048 L46.5511,48.0278 L46.4871,47.8818 C45.3471,53.3368 41.0831,56.6888 36.5771,60.2318 C30.4031,65.0808 33.1781,69.3118 33.3001,69.4888 L33.8601,70.3238 L34.8191,70.0228 C35.1911,69.9068 35.4991,69.8508 35.7581,69.8508 C36.2311,69.8508 36.4381,70.0158 36.5771,70.1778 C36.9161,70.5638 37.0841,71.2738 37.1661,71.8018 C37.1731,71.9298 37.1691,72.3198 36.8941,72.6078 C36.7011,72.8098 36.4231,72.9128 36.0681,72.9128 L29.2581,72.9128 L29.2161,72.8358 C27.6521,70.0248 28.3311,63.4998 28.9091,60.4418 L28.9191,60.3928 L28.9561,60.3588 C33.1951,56.4848 33.1411,52.8968 33.0671,47.9298 C33.0231,45.1828 32.9691,41.7648 33.6281,37.3338 C35.0421,27.8158 40.2291,26.2798 52.0911,26.2798 C54.1191,26.2798 56.1721,26.3228 59.0721,26.3878 C66.9381,26.5638 72.5341,25.5818 76.6831,23.2918 L76.8481,23.1988 C76.8611,23.1918 76.8741,23.1848 76.8891,23.1778 L76.9661,23.1348 L76.9641,23.1418 C77.4261,22.9318 78.3871,22.6798 79.3831,23.5208 L79.4191,23.5498 C86.1691,29.4678 92.6041,31.3998 95.8391,32.0258 L95.8801,32.0398 C95.8961,32.0478 97.3961,32.8538 97.1801,34.4138 L97.1801,34.4138 Z M18.6101,38.6938 C12.7521,38.6938 6.1961,34.1888 3.7161,30.9368 C2.7441,29.6608 2.6561,28.8648 2.6851,28.7218 L2.7081,28.6678 C2.9791,28.2688 3.1971,28.2038 3.3561,28.1908 C4.0761,28.1468 5.3081,29.0678 5.9181,29.7418 L5.9961,29.8228 C15.6851,39.1078 26.1031,36.1358 31.4511,33.5378 L31.7571,33.3888 L31.6601,33.7158 C31.4301,34.4888 31.2371,35.3398 31.0681,36.3168 L31.0551,36.3898 L30.9901,36.4248 C29.6931,37.1068 25.8891,38.6938 18.6101,38.6938 L18.6101,38.6938 Z M86.0561,11.0478 C87.7911,6.9598 89.7571,4.8968 91.1021,3.8848 L91.1361,3.8658 C91.2071,3.8378 92.9101,3.1738 93.6301,4.7528 C95.3681,8.4688 96.8251,12.9988 95.6961,14.5608 C95.3631,15.0218 94.7111,15.1738 93.9971,15.1738 C93.4891,15.1738 92.9491,15.0968 92.4661,14.9988 C87.4151,13.9718 86.3501,12.4168 86.1261,11.7968 C86.0481,11.5788 86.0211,11.3418 86.0441,11.0918 L86.0561,11.0478 Z M115.6181,9.3598 C114.5621,7.5958 112.3181,6.7388 108.7581,6.7388 C108.3191,6.7388 107.8401,6.7528 107.3361,6.7808 L107.2401,6.7868 L107.1951,6.7008 C104.4851,1.5718 97.4471,0.3058 93.4921,0.0088 L93.3781,-0.0002 L93.2851,0.0098 C93.0831,0.0258 88.3121,0.4948 84.4181,8.1858 C84.1921,8.4848 83.6771,9.2388 83.4511,10.3028 L83.4141,10.3988 C83.3701,10.4998 83.3281,10.6008 83.2861,10.7058 C79.9261,19.1448 75.3541,23.7178 60.8441,23.7178 C60.2871,23.7178 59.7181,23.7118 59.1341,23.6968 C57.0091,23.6488 54.3631,23.5878 52.0921,23.5878 C44.7951,23.5878 37.9281,23.9888 34.0931,28.8358 C32.6461,29.9638 19.8391,39.3088 7.8961,27.9118 C7.6501,27.6448 5.4841,25.3538 3.1851,25.5058 C2.4291,25.5558 1.3451,25.8828 0.4801,27.1578 L0.4801,27.1568 C-0.0059,27.8748 -0.3689,29.1378 0.6601,31.0818 C2.8561,35.2188 10.9401,41.2268 18.6111,41.2268 L18.6131,41.2268 C24.4321,41.2268 28.2501,40.2998 30.4281,39.5208 L30.6511,39.4418 L30.6281,39.6768 C30.2981,43.0438 30.3401,45.7758 30.3741,47.9718 C30.4491,52.9818 30.4871,55.4958 26.8041,58.6838 L26.4591,58.9808 L26.3671,59.4238 C26.1241,60.5988 24.0951,71.0238 27.5241,75.1378 L27.9271,75.6098 L37.6871,75.6098 C38.3121,75.5828 39.7951,75.3288 39.9381,73.5408 C39.9901,72.2598 39.8871,69.8818 38.6031,68.4188 C37.8131,67.5158 36.7241,67.0888 35.4551,67.1768 L35.3021,67.1878 L35.2941,67.0348 C35.2401,65.9958 35.7081,64.3388 38.2401,62.3488 C42.8051,58.7638 47.5261,55.0568 49.0111,48.9878 L49.0501,48.8288 L49.2041,48.8808 C52.8391,50.1078 62.2421,52.9618 71.0441,52.9618 C73.5711,52.9618 75.9051,52.7108 77.9821,52.2158 L78.1701,52.1708 L78.1671,52.3638 L77.9521,64.5788 C77.9341,65.4308 77.8661,72.9898 81.0851,76.2768 C82.0411,77.2548 83.2451,77.7498 84.6611,77.7498 L92.2821,77.7498 C94.2981,77.7498 95.1151,75.3128 95.1871,75.0808 C95.2231,73.6628 95.0071,71.6708 93.7841,70.1898 C93.1041,69.3618 91.8191,68.3748 89.5571,68.3748 C89.0381,68.3748 88.4811,68.4268 87.9011,68.5298 L87.7041,68.5638 L87.7251,68.3658 C87.9901,65.8548 89.5431,53.1068 94.0391,48.7038 C94.3441,48.4248 101.4051,41.7848 99.9881,25.5338 L99.9811,24.8198 L100.1151,24.8038 C103.4581,24.4088 111.4941,23.0068 113.8871,18.5308 C115.5361,15.4488 117.1661,11.9438 115.6181,9.3598 L115.6181,9.3598 Z" id="Fill-1" fill="#020303"></path>
            </g>
        </g>
    </g>
</svg>