<svg xmlns="http://www.w3.org/2000/svg" width="22" height="22" viewBox="0 0 22 22">
    <g fill="none" fill-rule="evenodd" transform="translate(1 1)">
        <circle cx="10" cy="10" r="10" stroke="#589F39" stroke-width=".5"/>
        <path fill="#589F39" d="M12.547 4.002L11.015 4C9.294 4 8.181 5.125 8.181 6.867v1.322h-1.54a.24.24 0 0 0-.241.237v1.916a.24.24 0 0 0 .24.237h1.541v4.833a.24.24 0 0 0 .241.237h2.01a.24.24 0 0 0 .241-.237v-4.833h1.801a.24.24 0 0 0 .241-.237V8.426a.236.236 0 0 0-.07-.168.243.243 0 0 0-.17-.07h-1.802v-1.12c0-.538.13-.812.842-.812h1.032a.24.24 0 0 0 .24-.238V4.24a.24.24 0 0 0-.24-.238z"/>
    </g>
</svg>
