<?xml version="1.0" encoding="UTF-8" standalone="no"?>
<svg width="108px" height="57px" viewBox="0 0 108 57" version="1.1" xmlns="http://www.w3.org/2000/svg" xmlns:xlink="http://www.w3.org/1999/xlink">
    <!-- Generator: Sketch 46.2 (44496) - http://www.bohemiancoding.com/sketch -->
    <title>Thu cung khac &amp; phu kien</title>
    <desc>Created with Sketch.</desc>
    <defs></defs>
    <g id="Page-1" stroke="none" stroke-width="1" fill="none" fill-rule="evenodd">
        <g id="Artboard" transform="translate(-1676.000000, -515.000000)" fill="#020303">
            <g id="Thu-cung-khac-&amp;-phu-kien" transform="translate(1676.000000, 515.000000)">
                <path d="M84,28 C84,29.6264865 85.3735135,31 87,31 C88.6264865,31 90,29.6264865 90,28 C90,26.4294595 88.5705405,25 87,25 C85.3735135,25 84,26.3743243 84,28" id="Fill-1"></path>
                <g id="Group-5">
                    <path d="M103.208612,35.1947857 C95.1176874,41.4485 85.4412504,45.7316429 75.2248134,47.5836905 L74.7801076,47.665119 L74.4470319,47.3584048 C69.7885109,43.0716429 67.0975866,36.9002619 67.0658218,30.4275952 C67.0331496,23.9087857 69.6877714,17.6605 74.3499227,13.2832619 L74.7111328,12.9439762 L75.1921412,13.0643095 C75.6967462,13.1891667 76.2494521,13.2742143 76.8339227,13.3637857 C77.435637,13.4560714 78.0555025,13.5510714 78.6408807,13.6967381 C79.9078387,13.9672619 81.2110992,14.3382143 82.4707966,14.6974048 C84.6834353,15.3506429 86.9913681,16.1947857 89.755805,17.3610238 C94.507805,19.4555476 99.0265613,22.1092143 103.199536,25.2532619 L103.996376,25.853119 L103.322057,26.5859762 C103.083368,26.8447381 102.782965,27.1333571 102.458965,27.4427857 C101.633082,28.2317381 100.384276,29.4242143 100.384276,30.2276429 C100.384276,31.0835476 101.562292,32.1837381 102.422662,32.9880714 C102.760276,33.3038333 103.0752,33.5996905 103.322057,33.8684048 L103.988208,34.5922143 L103.208612,35.1947857 Z M69.7522084,48.3219762 C67.8708303,48.4106429 65.9268303,48.5029286 63.8993345,48.5029286 C62.9527462,48.5029286 62.4308975,48.8141667 61.5668975,49.3280714 L61.1802756,49.5569762 C60.170158,50.230119 58.9685445,50.8924048 57.6553008,51.4967857 C55.2529815,52.6458333 52.7317714,53.4619286 50.1733513,53.9179286 L49.1069647,54.1079286 L49.1115025,49.0593571 C49.1296538,47.8614524 49.0960739,47.1095952 48.4743933,46.7558333 C47.8300235,46.3812619 46.9188303,46.1740714 46.0357714,45.974119 C45.6028639,45.8764048 45.1754017,45.7786905 44.7733513,45.6637857 C44.0518387,45.4258333 43.3911328,45.1978333 42.7295193,44.9707381 C42.0751664,44.7454524 41.4199059,44.5210714 40.7419563,44.2957857 C38.2987966,43.3720238 35.7104269,42.1723095 32.7953345,40.6152143 C31.6663261,40.0090238 30.4810487,39.2942619 29.2721748,38.4899286 L28.756679,38.1560714 C27.6703261,37.4494524 26.6447798,36.7817381 25.5112336,36.428881 C23.2042084,35.6887857 20.8254857,35.9484524 18.8070655,37.1554048 C17.8450487,37.7036905 16.9220571,38.2429286 15.9990655,38.7812619 C15.0615529,39.3277381 14.1240403,39.875119 13.1629311,40.4225 C12.1319395,41.0476905 11.0582924,41.6638333 9.98283025,42.2799762 C8.92551933,42.8852619 7.86730084,43.4914524 6.83177143,44.1193571 L4.51385546,45.5253571 L5.51671261,43.0119286 C8.77940168,34.8355952 8.81116639,25.7843571 5.60474622,17.5256905 L4.66904874,15.1145 L6.90891429,16.4173571 C7.99526723,17.0497857 9.06074622,17.6595952 10.1253176,18.2685 C11.1926118,18.8810238 12.2608134,19.4926429 13.3517042,20.126881 C14.0795697,20.533119 14.8264941,21.0063095 15.5489143,21.4650238 C17.0627294,22.4249762 18.6273681,23.4165952 20.2509983,23.9377381 C22.6660235,24.7909286 25.3905277,24.4272143 27.7483765,22.9470238 C30.8740235,20.905881 33.5340908,19.3913095 36.1052168,18.1897857 C39.0066958,16.790119 42.0125445,15.6166429 45.0310992,14.7046429 C46.497721,14.2477381 47.9824941,13.8767857 49.4200739,13.5185 L49.5398723,13.4886429 C51.1072336,13.1005 51.5101916,12.9023571 51.5582924,11.9939762 C51.6771832,10.2749286 51.6390655,8.55316667 51.5982252,6.73097619 C51.5773513,5.81897619 51.5573849,4.9042619 51.5573849,3.98954762 L51.5573849,2.92554762 L52.610158,3.09564286 C59.4123429,4.19583333 65.9740235,6.81240476 71.5845782,10.6630714 L72.4658218,11.2674524 L71.7243429,12.0355952 C62.6142252,21.4695476 62.0361076,36.7573095 70.4074689,46.840881 L71.5655193,48.2360238 L69.7522084,48.3219762 Z M104.983805,31.9412619 C104.604444,31.5730238 104.231435,31.211119 103.889284,30.8392619 L103.329318,30.2303571 L103.886561,29.6187381 C104.197855,29.2776429 104.529116,28.9365476 104.864914,28.5918333 C105.491133,27.9485476 106.138225,27.2835476 106.646461,26.6085952 C106.934158,26.2475952 107.049418,25.9381667 107.014931,25.6386905 C106.965015,25.2098333 106.611973,24.7275952 105.99483,24.2435476 C104.832242,23.2519286 103.518091,22.2693571 102.057822,21.2994524 C96.5970151,17.5229762 90.5390319,14.5490238 84.0399731,12.4499762 C82.3646118,11.8935476 80.7654857,11.4583571 79.1409479,11.1172619 C78.3205109,10.9354048 77.5100571,10.7562619 76.6088471,10.5762143 C75.6531832,10.3862143 75.0287798,9.89764286 74.4252504,9.42445238 C74.3081748,9.33307143 74.1883765,9.23988095 74.0640403,9.14578571 C71.229721,7.14083333 68.2628975,5.46792857 65.2670319,4.18769048 C62.1649815,2.82330952 58.9848807,1.7765 55.8075025,1.07259524 C54.3753681,0.736928571 52.7789647,0.46097619 51.1780235,0.273690476 C50.5336538,0.1805 49.4581916,0.181404762 49.2721412,1.17030952 C49.0379899,2.11397619 49.0942588,3.19516667 49.1487126,4.24016667 C49.1732168,4.7142619 49.1968134,5.17840476 49.1968134,5.61811905 L49.1968134,10.9489762 L48.4970824,11.1127381 C41.2864941,12.7992143 34.4198723,15.7116429 28.0887126,19.7695 C27.8509311,19.917881 27.6249479,20.0662619 27.3989647,20.2155476 C26.1383597,21.0470238 24.7134857,21.9915952 22.7921748,21.8088333 C21.9408807,21.7147381 21.146763,21.464119 20.2028975,20.9936429 C19.6746958,20.7068333 19.1973176,20.4354048 18.7199395,20.1630714 C18.2443765,19.8916429 17.7688134,19.621119 17.2705613,19.3505952 L6.90437647,13.3674048 C6.21372101,12.9548333 5.5584605,12.572119 4.9032,12.1885 C4.24249412,11.8030714 3.58178824,11.4167381 2.89839328,11.0077857 L2.73866218,10.9145952 C1.61872941,10.2586429 1.14135126,10.0496429 0.559603361,10.4975 C-0.188228571,11.0249762 -0.131052101,11.6058333 0.794662185,13.2208333 C1.83200672,14.977881 2.6279395,16.535881 3.29409076,18.1146905 C4.58192269,21.323881 5.34518319,24.6362143 5.63106555,28.2561667 C5.9832,34.4709762 4.45032605,40.7219762 1.07600672,46.8580714 L0.876342857,47.1747381 C0.512410084,47.7465476 0.0586285714,48.4567857 0.00145210084,48.9661667 C-0.0266823529,49.5316429 0.312746218,49.8609762 0.517855462,50.002119 C0.892678992,50.2599762 1.39183866,50.3034048 1.82111597,50.1179286 C2.23677983,49.9605 2.60706555,49.7125952 2.99913277,49.4502143 C3.24598992,49.2846429 3.48921681,49.1226905 3.7324437,48.9851667 C5.40871261,48.0360714 7.06138487,47.0661667 8.71314958,46.0953571 C10.3739899,45.1200238 12.0339227,44.1455952 13.7183597,43.192881 C14.4280739,42.7794048 15.1377882,42.3505476 15.8475025,41.9225952 C17.2705613,41.0630714 18.7408134,40.1755 20.2818555,39.3775 C21.1712672,38.8862143 22.0434353,38.6853571 22.889284,38.6853571 C25.0674353,38.6853571 27.072242,40.0171667 28.7775529,41.148119 C29.4074017,41.5652143 30.0000403,41.9596905 30.5836034,42.2863095 C33.8871328,44.207119 37.2868639,45.7967857 40.7002084,47.0182143 C42.4055193,47.6443095 44.2369815,48.1925952 46.0094521,48.7227857 L46.655637,48.9164048 L46.655637,53.5705 C46.655637,53.7704524 46.6501916,53.9830714 46.6447462,54.201119 C46.5921076,56.0468333 46.7391328,56.7380714 47.6657546,56.9389286 C48.3264605,57.1017857 49.2730487,56.9063571 50.1089143,56.7326429 C50.4047798,56.671119 50.6906622,56.6123095 50.954763,56.568881 C52.3487798,56.3363571 53.7999731,55.9464048 55.519805,55.341119 C56.8321412,54.8787857 58.529284,54.2436429 60.0058891,53.414881 C60.3262588,53.2330238 60.674763,53.0475476 61.0223597,52.8620714 C61.3554353,52.6856429 61.6876034,52.5092143 61.9979899,52.331881 C62.1495529,52.2459286 62.301116,52.1473095 62.4544941,52.0486905 C62.9863261,51.7057857 63.5898555,51.3167381 64.3313345,51.2244524 C65.2942588,51.1285476 66.2335866,51.1050238 67.1420571,51.0824048 C68.0586958,51.0597857 68.9245109,51.0380714 69.7984941,50.9512143 C71.395805,50.773881 73.0384941,50.5920238 74.6403429,50.325119 C78.0146622,49.7487857 81.093116,49.0186429 84.0481412,48.0921667 C89.9981244,46.2609286 95.7511664,43.5276429 101.152982,39.9683095 C102.550629,39.0101667 104.00999,38.0113095 105.438494,36.8532143 C107.080276,35.5684524 107.513183,35.0102143 106.967738,34.148881 C106.425923,33.339119 105.692612,32.628881 104.983805,31.9412619 L104.983805,31.9412619 Z" id="Fill-3"></path>
                </g>
            </g>
        </g>
    </g>
</svg>