<?xml version="1.0" encoding="utf-8"?>
<!-- Generator: Adobe Illustrator 21.1.0, SVG Export Plug-In . SVG Version: 6.00 Build 0)  -->
<svg version="1.1" id="Layer_1" xmlns="http://www.w3.org/2000/svg" xmlns:xlink="http://www.w3.org/1999/xlink" x="0px" y="0px"
	 viewBox="0 0 70 70" style="enable-background:new 0 0 70 70;" xml:space="preserve">
<style type="text/css">
	.st0{filter:url(#Adobe_OpacityMaskFilter);}
	.st1{fill:#FFFFFF;}
	.st2{mask:url(#mask-2);}
</style>
<title>Page 1</title>
<desc>Created with Sketch.</desc>
<g id="Page-1_1_">
	<g id="Listing-2" transform="translate(-241.000000, -293.000000)">
		<g id="Page-1" transform="translate(241.000000, 293.000000)">
			<g id="Clip-2">
			</g>
			<defs>
				<filter id="Adobe_OpacityMaskFilter" filterUnits="userSpaceOnUse" x="3" y="3" width="63.2" height="63.2">
					<feColorMatrix  type="matrix" values="1 0 0 0 0  0 1 0 0 0  0 0 1 0 0  0 0 0 1 0"/>
				</filter>
			</defs>
			<mask maskUnits="userSpaceOnUse" x="3" y="3" width="63.2" height="63.2" id="mask-2">
				<g class="st0">
					<polygon id="path-1" class="st1" points="3,3 66.2,3 66.2,66.2 3,66.2 					"/>
				</g>
			</mask>
			<path id="Fill-1" class="st2" d="M63.9,33.7h-2.8l-2,0c-0.9-2.9-3.6-6-5.7-7c2.5-1.5,4.2-4.2,4.2-7.3c0-0.2,0-0.4,0-0.6
				c0.6-0.1,1.2-0.2,1.9-0.4c0.3-0.1,0.5-0.3,0.6-0.5c0,0,0-0.1,0-0.1c0-0.1,0.1-0.2,0.1-0.3c0,0,0,0,0-0.1c0-0.1,0-0.2,0-0.4
				c0,0,0,0,0,0c-1.8-5.4-7.5-8.3-12.9-6.7c-0.1,0-0.2-0.1-0.3-0.1h0h0c-4.4,0-8.1,3.6-8.1,8.1c0,0.5,0.3,0.8,0.7,1
				c0.1,0,0.2,0.1,0.3,0.1h0h0h0c0.3,0,0.5,0,0.8,0c0,3.2,1.8,6,4.5,7.5c-1.9,1.1-4.4,4.1-5.3,6.8l-1.5,0h-2.8v-3.6
				c0-0.1,0-0.1,0-0.2c0-0.1,0-0.2,0-0.3V5.3h20.9c4.1,0,7.4,3.3,7.4,7.4V33.7z M50.7,28.2c3.5,0,6,5.1,6.1,5.5H42.1
				c0.2-0.4,2.6-5.5,6.1-5.5H50.7z M48.8,12.1c3.6-0.6,7.2,1.2,8.8,4.5C54,17.3,50.4,15.4,48.8,12.1z M41,17.2
				c0.5-2.3,2.3-4.2,4.7-4.6c-0.2,1.1-0.8,2.2-1.6,3C43.2,16.4,42.2,17,41,17.2z M42.8,18.9c1-0.4,2-1,2.8-1.8
				c0.9-0.9,1.5-1.9,1.9-3c1.2,1.8,2.8,3.2,4.7,4c0.4,0.2,0.6,0.2,1.1,0.4c0.7,0.2,1.4,0.3,2.2,0.4c0,0.2,0,0.3,0,0.5
				c0,3.5-2.9,6.4-6.4,6.4c-3.5,0-6.4-2.9-6.4-6.4C42.7,19.2,42.8,19,42.8,18.9z M63.9,56.4c0,1.6-0.5,3-1.3,4.2
				c-0.8-2.6-4.6-5.3-7.6-6c1.8-1.6,3-3.9,3-6.5c0-4.7-3.8-8.5-8.5-8.5s-8.5,3.8-8.5,8.5c0,2.6,1.2,4.9,3,6.5
				c-3,0.8-6.9,3.5-7.6,6.2l-0.3,2c-0.3-0.4-0.5-0.9-0.6-1.5c0-0.1,0-0.2,0-0.2V38.4c0-0.1,0-0.1,0-0.2c0,0,0-0.1,0-0.1v-2.5h2.8
				h22.7h2.8V56.4z M51.7,53.1v1.1c-0.7,0.2-1.4,0.4-2.1,0.4c-0.8,0-1.5-0.1-2.1-0.4l0-1L51.7,53.1z M47.4,51c-1.1,0-2,0.8-2.1,1.9
				c-1.3-1.2-2.1-2.9-2.1-4.7c0-3.1,2.3-5.8,5.3-6.3h2.1c3,0.5,5.3,3.1,5.3,6.3c0,1.9-0.8,3.6-2.1,4.7c-0.1-1.1-1-1.9-2.1-1.9H47.4z
				 M56.5,63.9H38.2l0-0.9c0.2-3,4.6-6.2,7.1-6.5c0,0.9,8.4,1,8.4,0c2.3,0.2,6.4,3.1,7,6C59.6,63.4,58.1,63.9,56.5,63.9z M28.1,63.9
				h-3.6c0,0,0,0,0,0H13.6c0,0,0,0,0,0h-3.3c0.1-0.1,0.2-0.2,0.3-0.4c-1-0.3-1.8-0.8-2.6-1.4c1.9-2.3,3.4-4.6,3.8-5.5
				c0.1-0.2,0.1-0.3,0.2-0.5c0.6,0.9,1.3,1.8,2.2,2.4c0,0,0,0,0,0c-0.1,0.3-0.3,0.9-0.8,1.6c-0.7,1-1.1,1.7-2.7,3.4
				c0.7,0.2,1.4,0.3,2.2,0.3h0.8c1.1-2,2.6-3.3,4.3-3.3h2.3c1.7,0,3.2,1.3,4.3,3.3L28.1,63.9c-0.5-0.5-1.9-1.3-2.1-2.5
				c-0.2-1.4,0-1.9,0.6-3.5c0.3-0.7,0.6-1.6,1-2.9c0.4-1.3,0.4-2.7,0.2-4c0,0,0.1,0,0.1,0c0.6,1.8,0.8,3.6,0.9,5
				c0,0.4,0,0.7,0.1,1.1c0,0-0.2,1.3,1.2,3c0.6,0.8,1.8,1.9,3,2.6c-0.5,0.6-1.2,1.1-2,1.2L28.1,63.9C28,63.9,28.1,63.9,28.1,63.9z
				 M20.5,42.3c3.3,0.5,6,3.1,6.5,6.5C23.7,48.3,21,45.7,20.5,42.3z M11.7,48.8c0.5-3.3,3.1-5.9,6.5-6.5
				C17.7,45.7,15.1,48.3,11.7,48.8z M13,50.7c2.8-0.7,5.1-2.6,6.3-5.1c1.2,2.5,3.5,4.3,6.2,5.1c0.1,0.4,0.1,0.7,0.1,1.1
				c0,3.5-2.9,6.4-6.4,6.4c-3.5,0-6.4-2.9-6.4-6.4C12.9,51.4,13,51.1,13,50.7z M5.3,56.4V35.6h24.9h3.4V38c0,0,0,0.1,0,0.1
				c0,0.1,0,0.1,0,0.2v21.8c-1.2-0.9-2.5-1.2-2.6-3.2c0-0.3,0-0.7-0.1-1.1c-0.2-3.1-0.8-4.8-1.7-7.4c-1.5-5.1-5.1-8.4-10-8.4
				c-5.4,0-9.8,4.4-9.8,9.8c0,0.6,0.5,1.1,1.1,1.1c0.1,0,0.2,0,0.3,0c0,0.3,0,0.5,0,0.8c0,0,0,0,0,0h0c0,0-0.8,3.8-4.4,8.4
				C5.7,59.1,5.3,57.8,5.3,56.4z M10,25.1c-0.7-1.8-0.3-4,1.1-5.4C11.9,21.6,11.4,23.7,10,25.1z M27.9,19.8c1.4,1.4,1.8,3.5,1.1,5.4
				C27.6,23.7,27.1,21.6,27.9,19.8z M15.2,30c1-0.8,1.4-1.9,1.6-2.9c0.8,0.3,1.7,0.4,2.7,0.4c0.9,0,1.9-0.2,2.7-0.5
				c0.2,0.9,0.6,2,1.5,2.8l1,0.7c0.2,0.1,0.5,0.3,0.8,0.6c0.9,0.7,1.7,1.5,2.1,2.5h-1.4H11.5c0.4-0.9,1.2-1.8,2.1-2.4
				C14.7,30.4,15.2,30,15.2,30z M18.3,12.9c0.4-0.1,0.8-0.1,1.2-0.1c0.1,0,0.2,0,0.4,0c-0.1,0.4-0.2,1.1-1,1.7
				C18.8,13.9,18.6,13.4,18.3,12.9z M17.1,17.2c0.1,0.1,0.3,0.1,0.4,0.1c0,0,0,0,0.1,0c0,0,0,0,0.1,0c0.1,0,0.2,0,0.3,0
				c2.7-0.7,3.7-2.6,4-4c2.3,1,3.9,3.2,3.9,5.9c0,3.5-2.9,6.4-6.4,6.4c-1.1,0-2.1-0.3-3-0.8c0,0-0.1,0-0.1-0.1
				c-1.9-1.1-3.3-3.2-3.3-5.6c0-2.3,1.2-4.3,3.1-5.4c0.1,0.1,0.1,0.1,0.2,0.2c0.7,0.5,0.2,1.9,0.2,1.9C16.3,16.3,16.6,17,17.1,17.2z
				 M5.3,12.8c0-4.1,3.3-7.4,7.4-7.4h20.9v24.3c0,0.1,0,0.2,0,0.3c0,0.1,0,0.1,0,0.2v3.6h-3.4h-0.5c-0.6-2.6-3.2-4.3-4.6-5.3
				c-0.7-0.5-0.9-1.5-0.9-2.3c0.8-0.5,1.5-1.2,2.1-1.9c0.5,1.2,1.4,2.3,2.5,3.1c0,0,0,0,0,0c0.2,0.1,0.3,0.1,0.5,0.1
				c0.3,0,0.6-0.1,0.7-0.4c2-3.1,1.2-7.3-1.9-9.4c-0.1-0.1-0.2-0.1-0.3-0.1c-0.7-3.9-4.2-6.9-8.3-6.9c-4.2,0-7.6,3-8.3,7
				c-0.1,0-0.1,0-0.2,0.1c-3.1,2-4,6.2-1.9,9.4c0.2,0.3,0.5,0.4,0.7,0.4c0.2,0,0.3,0,0.5-0.1c0,0,0,0,0,0c1.2-0.8,2-1.8,2.5-3
				c0.6,0.7,1.3,1.4,2.1,1.9c0,0.7-0.3,1.8-0.9,2.2c-1.4,0.9-4,2.7-4.6,5.3H6.3h-1V12.8z M65.8,9.9c-1-3.1-3.5-5.6-6.6-6.5
				C58.3,3.1,57.4,3,56.5,3H12.8c-1,0-1.9,0.1-2.7,0.4C6.9,4.3,4.4,6.8,3.4,9.9C3.2,10.8,3,11.8,3,12.8v43.7c0,1,0.2,1.9,0.4,2.8
				c1,3.1,3.5,5.6,6.6,6.5c0.9,0.3,1.8,0.4,2.7,0.4h43.7c1,0,1.9-0.1,2.7-0.4c3.2-0.9,5.7-3.4,6.6-6.5c0.3-0.9,0.4-1.8,0.4-2.8V12.8
				C66.2,11.8,66.1,10.8,65.8,9.9z"/>
		</g>
	</g>
</g>
</svg>
