<?xml version="1.0" encoding="UTF-8" standalone="no"?>
<svg width="60px" height="60px" viewBox="0 0 60 60" version="1.1" xmlns="http://www.w3.org/2000/svg" xmlns:xlink="http://www.w3.org/1999/xlink">
    <!-- Generator: Sketch 46.2 (44496) - http://www.bohemiancoding.com/sketch -->
    <title>03</title>
    <desc>Created with Sketch.</desc>
    <defs></defs>
    <g id="UI" stroke="none" stroke-width="1" fill="none" fill-rule="evenodd">
        <g id="03" fill="#000000">
            <path d="M58.677628,44.8859807 L58.677628,46.6940907 C58.677628,47.1453759 58.2936488,47.5570748 57.8715725,47.5570748 L2.19058599,47.5570748 C1.7685097,47.5570748 1.38553311,47.1453759 1.38553311,46.6940907 L1.38553311,44.8859807 L24.8393403,44.8859807 L24.860394,44.9572362 C25.1381022,45.8934552 26.0113289,46.5723624 26.9386937,46.5723624 L33.1254699,46.5723624 C34.0518322,46.5723624 34.9250589,45.8934552 35.2027671,44.9572362 L35.2228182,44.8859807 L58.677628,44.8859807 Z M33.7671061,44.8859807 L33.6778786,45.0354194 C33.3821244,45.5322291 33.2267282,45.596557 33.1254699,45.596557 L26.8745301,45.596557 C26.7221415,45.596557 26.5507043,45.4233664 26.3211189,45.0354194 L26.2318913,44.8859807 L33.7671061,44.8859807 Z M6.16873026,13.306899 C6.16873026,12.8556137 6.55270941,12.4439149 6.9747857,12.4439149 L52.9610507,12.4439149 C53.383127,12.4439149 53.7671061,12.8556137 53.7671061,13.306899 L53.7671061,43.4430554 L6.16873026,43.4430554 L6.16873026,13.306899 Z M55.2168028,13.306899 C55.2168028,12.0134125 54.253346,11 53.0242117,11 L6.9747857,11 C5.74565141,11 4.78319715,12.0134125 4.78319715,13.306899 L4.78319715,43.4430554 L0,43.4430554 L0,46.6940907 C0,47.9875772 0.962454258,49 2.19058599,49 L57.8084114,49 C59.0365432,49 60,47.9875772 60,46.6940907 L60,43.4430554 L55.2168028,43.4430554 L55.2168028,13.306899 Z M9.13298912,40.662307 L50.9275653,40.662307 L50.9275653,15.1607313 L9.13298912,15.1607313 L9.13298912,40.662307 Z M7.78755827,42.128984 L52.2128427,42.128984 L52.2128427,13.8236998 L7.78755827,13.8236998 L7.78755827,42.128984 Z" id="Combined-Shape"></path>
        </g>
    </g>
</svg>