<svg xmlns="http://www.w3.org/2000/svg" width="22" height="22" viewBox="0 0 22 22">
    <g fill="none" fill-rule="evenodd" transform="translate(1 1)">
        <circle cx="10" cy="10" r="10" stroke="#589F39" stroke-width=".5"/>
        <path fill="#589F39" fill-rule="nonzero" d="M4.954 6a.943.943 0 0 0-.358.07l5.32 4.817c.186.168.392.167.577 0l5.31-4.816A.943.943 0 0 0 15.447 6H4.954zm-.944.833c-.006.044-.01.09-.01.136v6.462c0 .132.028.258.075.373l3.67-3.584L4.01 6.833zm12.38 0l-3.726 3.382L16.33 13.8a.988.988 0 0 0 .07-.368V6.969a1.04 1.04 0 0 0-.01-.136zm-4.441 4.033l-.82.747a1.382 1.382 0 0 1-1.848 0l-.82-.742-3.617 3.524a.978.978 0 0 0 .11.005h10.492c.035 0 .07-.002.104-.005l-3.601-3.529z"/>
    </g>
</svg>
