<svg xmlns="http://www.w3.org/2000/svg" xmlns:xlink="http://www.w3.org/1999/xlink" width="54" height="54" viewBox="0 0 54 54">
    <defs>
        <path id="ia8ndd05ma" d="M26.771 0L26.771 8.113 13.498 8.113 0.225 8.113 0.225 0z"/>
    </defs>
    <g fill="none" fill-rule="evenodd">
        <path stroke="#FFF" stroke-width=".59" d="M0 0H51.92V51.92H0z" opacity=".01" transform="translate(1 1)"/>
        <g>
            <g>
                <g transform="translate(1 1) translate(3.245 11.357) matrix(-1 0 0 1 44.213 .406) translate(13.791 20.547)">
                    <mask id="m2o83muk6b" fill="#fff">
                        <use xlink:href="#ia8ndd05ma"/>
                    </mask>
                    <path fill="#000" d="M22.715 7.18H4.281c-1.722 0-3.123-1.401-3.123-3.124 0-1.722 1.4-3.123 3.123-3.123h18.434c1.722 0 3.123 1.401 3.123 3.123 0 1.723-1.4 3.124-3.123 3.124m0-7.18H4.281C2.041 0 .225 1.816.225 4.056S2.04 8.113 4.28 8.113h18.434c2.24 0 4.056-1.816 4.056-4.057 0-2.24-1.816-4.056-4.056-4.056" mask="url(#m2o83muk6b)"/>
                </g>
                <path fill="#000" d="M35.988 25.698c-.604 0-1.095-.49-1.095-1.095 0-.604.49-1.095 1.095-1.095.604 0 1.095.491 1.095 1.095s-.491 1.095-1.095 1.095m0-3.123c-1.12 0-2.028.908-2.028 2.028s.908 2.028 2.028 2.028 2.028-.908 2.028-2.028-.908-2.028-2.028-2.028M30.17 25.698c-.604 0-1.095-.49-1.095-1.095 0-.604.491-1.095 1.095-1.095s1.096.491 1.096 1.095-.492 1.095-1.096 1.095m0-3.123c-1.12 0-2.028.908-2.028 2.028s.909 2.028 2.028 2.028c1.12 0 2.029-.908 2.029-2.028s-.909-2.028-2.029-2.028M24.353 25.698c-.604 0-1.095-.49-1.095-1.095 0-.604.491-1.095 1.095-1.095s1.095.491 1.095 1.095-.49 1.095-1.095 1.095m0-3.123c-1.12 0-2.028.908-2.028 2.028s.908 2.028 2.028 2.028 2.028-.908 2.028-2.028-.908-2.028-2.028-2.028M18.536 25.698c-.604 0-1.095-.49-1.095-1.095 0-.604.491-1.095 1.095-1.095s1.095.491 1.095 1.095-.491 1.095-1.095 1.095m0-3.123c-1.12 0-2.028.908-2.028 2.028s.908 2.028 2.028 2.028 2.028-.908 2.028-2.028-.908-2.028-2.028-2.028M10.103 17.482h-7.45c-.933 0-1.693-.788-1.693-1.756v-4.413c0-.266.063-.52.17-.753.21.086.439.135.68.135.522 0 .989-.225 1.319-.578l6.974 7.365zM1.81 8.007c.484 0 .877.394.877.878 0 .483-.393.877-.877.877s-.877-.394-.877-.877c0-.484.393-.878.877-.878zM6.436 3.1c.22.67.733 1.206 1.387 1.461l-4.47 3.39c-.143-.236-.336-.438-.568-.587L6.435 3.1zM8.678.933c.788 0 1.429.64 1.429 1.429 0 .787-.641 1.428-1.429 1.428s-1.429-.64-1.429-1.428c0-.788.641-1.43 1.429-1.43zm2.267 2.086l8.882 10.156-4.094 1.756-5.77-10.59c.469-.305.823-.772.982-1.322zm10.962 10.278h6.706c.264 0 .515-.113.691-.313l2.661-3.02h6.114c.705 0 1.278.578 1.278 1.29v6.36c0 .71-.573 1.29-1.278 1.29H15.873v-3.02l6.034-2.587zm.589-4.033l3.646-6.543h8.563c.049 0 .087.04.087.09v6.22H31.55l-2.937 3.333h-6.117v-3.1zm-18.88-.341l5.505-4.175 5.828 10.695v3.838c0 .307.247.556.55.556h22.58c1.216 0 2.202-.996 2.202-2.223v-6.36c0-1.229-.986-2.224-2.202-2.224h-2.354V2.81c0-.563-.457-1.022-1.02-1.022h-9.142l-4 7.257v3.387l-.835.357-9.754-11.153c-.02-.022-.045-.034-.068-.052C10.584.662 9.709 0 8.678 0c-1.07 0-1.973.713-2.263 1.689L1.803 7.075C.807 7.08 0 7.887 0 8.885c0 .412.144.788.376 1.093-.225.402-.348.859-.348 1.335v4.413c0 1.483 1.178 2.689 2.626 2.689h9.618L3.584 9.24c.02-.103.03-.21.032-.318z" transform="translate(1 1) translate(3.245 11.357) matrix(-1 0 0 1 44.213 .406)"/>
            </g>
            <path stroke="#FFF" stroke-opacity=".01" stroke-width=".811" d="M0.406 0.406H46.242V30.421999999999997H0.406z" transform="translate(1 1) translate(3.245 11.357)"/>
        </g>
    </g>
</svg>
