<?xml version="1.0" encoding="UTF-8"?>
<svg width="47px" height="73px" viewBox="0 0 47 73" version="1.1" xmlns="http://www.w3.org/2000/svg" xmlns:xlink="http://www.w3.org/1999/xlink">
    <!-- Generator: Sketch 55.1 (78136) - https://sketchapp.com -->
    <title>phu kien</title>
    <desc>Created with Sketch.</desc>
    <g id="Page-1" stroke="none" stroke-width="1" fill="none" fill-rule="evenodd">
        <g id="Suu-tam,-game,-so-thich-khac" transform="translate(-220.000000, -238.000000)" fill="#000000" fill-rule="nonzero">
            <path d="M266.029981,301.063407 L264.264547,301.063407 L264.264547,274.855186 C264.264547,263.456101 255.471003,254.124517 244.470342,253.603666 L244.470342,248.214911 C244.490389,248.136054 244.504616,248.054547 244.504616,247.969064 C244.504616,247.420381 244.070048,246.975073 243.534597,246.975073 C241.654701,246.975073 240.125304,245.407881 240.125304,243.480865 C240.125304,241.555173 241.654701,239.987981 243.534597,239.987981 C244.445122,239.987981 245.300032,240.351119 245.944771,241.011129 C246.323725,241.398123 246.938717,241.398785 247.317671,241.010466 C247.695332,240.622147 247.695332,239.99262 247.316377,239.604301 C246.305618,238.569888 244.963112,238 243.534597,238 C240.585093,238 238.185267,240.45847 238.185267,243.480865 C238.185267,246.151386 240.05999,248.380576 242.530951,248.862993 L242.530951,253.603666 C231.529644,254.124517 222.7361,263.456101 222.7361,274.855186 L222.7361,301.064069 L220.970019,301.064069 C220.434568,301.064069 220,301.509377 220,302.05806 L220,310.006009 C220,310.554692 220.434568,311 220.970019,311 L266.029981,311 C266.565432,311 267,310.554692 267,310.006009 L267,302.05806 C267,301.508714 266.565432,301.063407 266.029981,301.063407 Z M252.342368,257.833427 C258.276297,261.083114 262.324509,267.492366 262.324509,274.855186 L262.324509,275.772971 L252.342368,275.772971 L252.342368,257.833427 Z M252.342368,277.760289 L262.324509,277.760289 L262.324509,301.063407 L252.342368,301.063407 L252.342368,277.760289 Z M243.499677,255.566466 C245.938304,255.566466 248.268936,256.049545 250.410091,256.918293 C250.407504,256.940824 250.402331,256.962691 250.402331,256.986547 L250.402331,275.772971 L236.597669,275.772971 L236.597669,256.986547 C236.597669,256.963354 236.592496,256.941486 236.590556,256.918293 C238.731711,256.048883 241.061049,255.566466 243.499677,255.566466 Z M250.402331,277.760289 L250.402331,301.063407 L236.597669,301.063407 L236.597669,277.760289 L250.402331,277.760289 Z M224.676138,274.855186 C224.676138,267.492366 228.723703,261.083114 234.657632,257.833427 L234.657632,275.772971 L224.676138,275.772971 L224.676138,274.855186 Z M224.676138,277.760289 L234.657632,277.760289 L234.657632,301.063407 L224.676138,301.063407 L224.676138,277.760289 Z M265.059962,309.011356 L221.940038,309.011356 L221.940038,303.051388 L223.310998,303.051388 C223.432573,303.107051 223.565789,303.139522 223.706119,303.139522 C223.846448,303.139522 223.980311,303.107051 224.10124,303.051388 L262.89876,303.051388 C263.020336,303.107051 263.152905,303.139522 263.293881,303.139522 C263.434211,303.139522 263.568073,303.107051 263.689002,303.051388 L265.059316,303.051388 L265.059316,309.011356 L265.059962,309.011356 Z" id="phu-kien"></path>
        </g>
    </g>
</svg>