<?xml version="1.0" encoding="UTF-8" standalone="no"?>
<svg width="60px" height="60px" viewBox="0 0 60 60" version="1.1" xmlns="http://www.w3.org/2000/svg" xmlns:xlink="http://www.w3.org/1999/xlink">
    <!-- Generator: Sketch 46.2 (44496) - http://www.bohemiancoding.com/sketch -->
    <title>04</title>
    <desc>Created with Sketch.</desc>
    <defs>
        <polygon id="path-1" points="55.6592 47.2835821 0 47.2835821 0 0.244513433 55.6592 0.244513433"></polygon>
    </defs>
    <g id="UI" stroke="none" stroke-width="1" fill="none" fill-rule="evenodd">
        <g id="04">
            <g id="Page-1" transform="translate(2.000000, 6.000000)">
                <path d="M4.77593333,9.71176119 L15.1599333,9.71176119 C15.5279333,9.71176119 15.8266,9.39152239 15.8266,8.99534328 C15.8266,8.59916418 15.5279333,8.27892537 15.1599333,8.27892537 L4.77593333,8.27892537 C4.40793333,8.27892537 4.10926667,8.59916418 4.10926667,8.99534328 C4.10926667,9.39152239 4.40793333,9.71176119 4.77593333,9.71176119" id="Fill-1" fill="#000000"></path>
                <path d="M4.77593333,13.9186388 L15.1599333,13.9186388 C15.5279333,13.9186388 15.8266,13.5984 15.8266,13.2022209 C15.8266,12.8060418 15.5279333,12.485803 15.1599333,12.485803 L4.77593333,12.485803 C4.40793333,12.485803 4.10926667,12.8060418 4.10926667,13.2022209 C4.10926667,13.5984 4.40793333,13.9186388 4.77593333,13.9186388" id="Fill-3" fill="#000000"></path>
                <path d="M9.968,35.5269493 C9.63133333,35.5269493 9.35733333,35.2325015 9.35733333,34.8707104 C9.35733333,34.5089194 9.63133333,34.2151881 9.968,34.2151881 C10.3046667,34.2151881 10.5786667,34.5089194 10.5786667,34.8707104 C10.5786667,35.2325015 10.3046667,35.5269493 9.968,35.5269493 M9.968,32.7823522 C8.89666667,32.7823522 8.024,33.7201433 8.024,34.8707104 C8.024,36.021994 8.896,36.9597851 9.968,36.9597851 C11.04,36.9597851 11.912,36.021994 11.912,34.8707104 C11.912,33.7201433 11.0393333,32.7823522 9.968,32.7823522" id="Fill-5" fill="#000000"></path>
                <path d="M9.968,39.5610269 C10.5133333,39.5610269 10.956,40.0367284 10.956,40.6227582 C10.956,41.2095045 10.5133333,41.685206 9.968,41.685206 C9.42266667,41.685206 8.98,41.2095045 8.98,40.6227582 C8.98,40.0367284 9.42266667,39.5610269 9.968,39.5610269" id="Fill-7" fill="#000000"></path>
                <g id="Group-11" transform="translate(0.000000, 0.472119)">
                    <mask id="mask-2" fill="white">
                        <use xlink:href="#path-1"></use>
                    </mask>
                    <g id="Clip-10"></g>
                    <path d="M52.0565333,33.2183642 L35.8005333,33.2183642 L30.1718667,33.2183642 L19.9358667,33.2183642 L19.9358667,29.7415881 L54.3245333,29.7415881 L54.3245333,30.780394 C54.3252,32.1251104 53.3072,33.2183642 52.0565333,33.2183642 L52.0565333,33.2183642 Z M30.8385333,42.5253493 L35.1338667,42.5253493 L35.1338667,34.6519164 L30.8385333,34.6519164 L30.8385333,42.5253493 Z M42.5898667,45.1524537 L23.3818667,45.1524537 C23.6458667,44.451797 24.2858667,43.9567522 25.0312,43.9567522 L30.1718667,43.9567522 L35.8005333,43.9567522 L40.9412,43.9567522 C41.6865333,43.9581851 42.3258667,44.4525134 42.5898667,45.1524537 L42.5898667,45.1524537 Z M18.6025333,25.5383642 L18.6025333,29.4908418 L18.6025333,25.5383642 Z M18.6025333,30.9236776 L18.6025333,34.8754388 L18.6025333,30.9236776 Z M18.6025333,36.3075582 L18.6025333,40.2600358 L18.6025333,36.3075582 Z M18.6025333,41.6928716 L18.6025333,43.3284537 C18.6025333,44.7190209 17.5498667,45.8502448 16.2558667,45.8502448 L15.0725333,45.8502448 L15.0725333,24.6306627 C15.0725333,24.2029612 15.1878667,23.7881552 15.4058667,23.4299463 L18.6025333,18.1771701 L18.6025333,24.1055284 L18.6025333,41.6928716 Z M1.3332,40.4971701 L1.3332,36.5131701 L1.3332,40.4971701 Z M1.3332,35.0803343 L1.3332,31.0963343 L1.3332,35.0803343 Z M1.3332,29.6634985 L1.3332,25.6794985 L1.3332,29.6634985 Z M1.3332,24.2466627 L1.3332,18.1771701 L4.53053333,23.4299463 C4.74786667,23.7881552 4.8632,24.2029612 4.8632,24.6306627 L4.8632,45.8502448 L3.67986667,45.8502448 C2.38586667,45.8502448 1.3332,44.7190209 1.3332,43.3284537 L1.3332,41.930006 L1.3332,24.2466627 Z M3.67986667,1.67734925 L16.2558667,1.67734925 C17.5498667,1.67734925 18.6025333,2.80857313 18.6025333,4.1991403 L18.6025333,15.5608119 L14.2898667,22.6461851 C13.9298667,23.2379463 13.7392,23.9242746 13.7392,24.6313791 L13.7392,45.8509612 L6.19653333,45.8509612 L6.19653333,24.6306627 C6.19653333,23.9242746 6.00653333,23.2379463 5.64653333,22.6454687 L1.3332,15.5593791 L1.3332,4.19842388 C1.3332,2.80857313 2.38586667,1.67734925 3.67986667,1.67734925 L3.67986667,1.67734925 Z M54.3252,7.18517015 L54.3252,28.3087522 L19.9358667,28.3087522 L19.9358667,4.74791642 L52.0565333,4.74791642 C53.3072,4.74791642 54.3252,5.84117015 54.3252,7.18517015 L54.3252,7.18517015 Z M52.0565333,3.3150806 L19.8398667,3.3150806 C19.4652,1.5591403 18.0018667,0.244513433 16.2558667,0.244513433 L3.67986667,0.244513433 C1.65053333,0.244513433 -0.000133333333,2.01836418 -0.000133333333,4.1991403 L-0.000133333333,43.3284537 C-0.000133333333,45.5092299 1.65053333,47.283797 3.67986667,47.283797 L16.2558667,47.283797 C18.2852,47.283797 19.9358667,45.5092299 19.9358667,43.3284537 L19.9358667,34.6512 L29.5052,34.6512 L29.5052,42.5239164 L25.0312,42.5239164 C23.3152,42.5239164 21.9192,44.0248119 21.9192,45.8688716 C21.9192,46.2650507 22.2178667,46.5852896 22.5858667,46.5852896 L43.3865333,46.5852896 C43.7545333,46.5852896 44.0532,46.2650507 44.0532,45.8688716 C44.0532,44.0248119 42.6572,42.5239164 40.9418667,42.5239164 L36.4678667,42.5239164 L36.4678667,34.6512 L52.0578667,34.6512 C54.0438667,34.6512 55.6592,32.914603 55.6592,30.7811104 L55.6592,7.18517015 C55.6585333,5.05167761 54.0425333,3.3150806 52.0565333,3.3150806 L52.0565333,3.3150806 Z" id="Fill-9" fill="#000000" mask="url(#mask-2)"></path>
                </g>
            </g>
        </g>
    </g>
</svg>