<?xml version="1.0" encoding="UTF-8" standalone="no"?>
<svg width="60px" height="60px" viewBox="0 0 60 60" version="1.1" xmlns="http://www.w3.org/2000/svg" xmlns:xlink="http://www.w3.org/1999/xlink">
    <!-- Generator: Sketch 46.2 (44496) - http://www.bohemiancoding.com/sketch -->
    <title>01</title>
    <desc>Created with Sketch.</desc>
    <defs></defs>
    <g id="UI" stroke="none" stroke-width="1" fill="none" fill-rule="evenodd">
        <g id="01" fill="#000000">
            <path d="M43.3027415,10.7771084 L16.6962518,10.7771084 L16.6962518,9.20381526 C16.6962518,7.6746988 18.0190262,6.47590361 19.7082313,6.47590361 L40.2907621,6.47590361 C41.9799671,6.47590361 43.3027415,7.6746988 43.3027415,9.20381526 L43.3027415,10.7771084 Z M16.6962518,45.437751 L43.3027415,45.437751 L43.3027415,12.253012 L16.6962518,12.253012 L16.6962518,45.437751 Z M43.3027415,50.7971888 C43.3027415,52.3263052 41.9799671,53.5251004 40.2907621,53.5251004 L19.7082313,53.5251004 C18.0190262,53.5251004 16.6962518,52.3263052 16.6962518,50.7971888 L16.6962518,46.9136546 L43.3027415,46.9136546 L43.3027415,50.7971888 Z M40.2907621,5 L19.7082313,5 C17.1120097,5 15,6.88654618 15,9.20381526 L15,50.7971888 C15,53.1144578 17.1120097,55 19.7082313,55 L40.2907621,55 C42.8869837,55 45,53.1144578 45,50.7971888 L45,9.20381526 C45,6.88654618 42.8869837,5 40.2907621,5 L40.2907621,5 Z M25.4745814,50.9568273 L34.5024664,50.9568273 C34.7259488,50.9558233 34.9433912,50.87249 35.1115063,50.7228916 C35.2755948,50.5783133 35.3702225,50.3935743 35.3702225,50.2188755 C35.3702225,50.0441767 35.2755948,49.8614458 35.112513,49.7168675 C34.9494312,49.5722892 34.7259488,49.4859438 34.500453,49.4809237 L25.4333076,49.4799197 L25.3950539,49.4809237 C25.1725781,49.4909639 24.9430556,49.6024096 24.7809805,49.7811245 C24.6480991,49.9277108 24.5786383,50.0943775 24.5866917,50.252008 C24.5967585,50.4267068 24.6984329,50.6054217 24.8675548,50.7449799 C25.0457367,50.8905622 25.2641858,50.9738956 25.4745814,50.9568273" id="Fill-1"></path>
        </g>
    </g>
</svg>