<svg xmlns="http://www.w3.org/2000/svg" xmlns:xlink="http://www.w3.org/1999/xlink" width="54" height="54" viewBox="0 0 54 54">
    <defs>
        <path id="erl0qujnia" d="M0 0.122L28.227 0.122 28.227 25.149 0 25.149z"/>
    </defs>
    <g fill="none" fill-rule="evenodd">
        <path stroke="#FFF" stroke-width=".59" d="M0 0H51.92V51.92H0z" opacity=".01" transform="translate(1 1)"/>
        <g>
            <path fill="#020303" d="M14.113 19.101c-3.408 0-6.181-2.773-6.181-6.182 0-3.409 2.773-6.181 6.181-6.181 3.41 0 6.182 2.772 6.182 6.181 0 3.409-2.773 6.182-6.182 6.182m0-13.53c-4.051 0-7.348 3.296-7.348 7.348s3.297 7.349 7.348 7.349c4.053 0 7.35-3.297 7.35-7.349s-3.297-7.349-7.35-7.349" transform="translate(1 1) translate(11.357 12.98)"/>
            <g transform="translate(1 1) translate(11.357 12.98) translate(0 .284)">
                <mask id="ypefhwth4b" fill="#fff">
                    <use xlink:href="#erl0qujnia"/>
                </mask>
                <path fill="#020303" d="M26.963 12.665l-6.421 11.307H7.685l-.018-.031-6.42-11.306.018-.03L7.685 1.3h12.857l.017.03 6.42 11.306-.016.03zm1.182-.33L21.38.422c-.101-.185-.293-.3-.5-.301H7.349c-.208.001-.4.116-.501.3L.082 12.333c-.11.187-.11.418 0 .604l6.765 11.91c.102.186.294.3.502.302h13.53c.207-.001.398-.116.5-.301l6.766-11.91c.11-.187.11-.418 0-.604z" mask="url(#ypefhwth4b)"/>
            </g>
        </g>
    </g>
</svg>
