<svg xmlns="http://www.w3.org/2000/svg" width="12" height="16" viewBox="0 0 12 16">
    <g fill="none" fill-rule="evenodd">
        <g>
            <path fill="#9B9B9B" d="M3.59 11.493c-.428-.136-.702-.497-.944-.815-.149-.195-.289-.38-.441-.488-.016-.011-.034-.02-.05-.03L.707 13.218l1.728-.124 1.02 1.371 1.478-3.121-.122.036c-.277.083-.561.169-.847.169-.124 0-.249-.017-.374-.056M8.782 10.19c-.152.108-.293.292-.442.488-.242.318-.516.679-.944.815-.41.13-.822.006-1.22-.114l-.123-.036 1.479 3.122 1.02-1.371 1.728.124-1.448-3.058c-.016.01-.035.019-.05.03M10.606 4.374c-.164-.227-.334-.461-.422-.726-.091-.276-.096-.57-.1-.856-.006-.325-.011-.631-.146-.813-.138-.185-.436-.284-.751-.39-.275-.091-.558-.186-.796-.355-.233-.167-.411-.4-.583-.626-.2-.263-.39-.512-.617-.584-.212-.068-.507.021-.82.115-.283.085-.575.173-.878.173-.303 0-.595-.088-.877-.173C4.379.07 4.152 0 3.964 0c-.06 0-.117.007-.169.024-.227.071-.416.32-.617.584-.171.226-.349.46-.583.626-.237.169-.52.263-.795.355-.316.105-.614.205-.751.39-.135.182-.14.488-.146.813-.004.285-.01.58-.1.856-.089.265-.258.5-.422.726C.185 4.644 0 4.9 0 5.14s.185.496.38.767c.165.226.334.461.422.726.092.276.097.57.101.856.006.325.01.631.146.813.137.185.435.284.75.39.275.091.56.186.796.355.234.167.411.4.583.625.2.264.39.513.617.585.212.068.508-.021.82-.116.283-.084.575-.172.878-.172.303 0 .595.088.878.172.313.095.608.184.82.116.227-.072.417-.32.617-.584.172-.226.35-.46.583-.626.237-.17.521-.264.796-.355.315-.106.613-.205.75-.39.136-.182.14-.488.146-.813.005-.285.01-.58.101-.856.088-.265.258-.5.422-.726.196-.27.38-.526.38-.767s-.184-.497-.38-.767" transform="translate(.5 1)"/>
            <path fill="#FFF" d="M7.503 5.011c-.064-.085-.13-.172-.165-.271-.036-.104-.038-.215-.04-.322-.002-.121-.004-.236-.057-.304-.054-.07-.17-.107-.294-.146-.107-.035-.219-.07-.312-.133-.091-.063-.16-.15-.228-.235-.079-.099-.153-.192-.242-.22-.083-.024-.198.01-.321.044-.11.032-.225.065-.344.065-.119 0-.233-.033-.344-.065-.093-.026-.181-.052-.255-.052-.024 0-.046.003-.066.009-.09.027-.163.12-.242.219-.067.085-.137.172-.228.235-.093.063-.204.098-.312.133-.124.04-.24.076-.294.146-.053.068-.055.183-.057.304-.002.107-.004.218-.04.321-.034.1-.1.187-.165.272-.077.102-.15.197-.15.288 0 .09.073.186.15.287.064.085.13.173.165.272.036.104.038.214.04.321.002.122.004.237.057.305.054.07.17.107.294.146.107.034.219.07.312.133.091.063.16.15.228.235.079.098.153.192.242.219.083.025.199-.008.321-.044.11-.031.225-.064.344-.064.119 0 .233.033.344.064.122.036.238.07.321.044.09-.027.163-.12.242-.22.067-.084.137-.171.228-.234.093-.063.204-.098.312-.133.124-.04.24-.077.294-.146.053-.068.055-.183.057-.305.002-.107.004-.217.04-.32.034-.1.1-.188.165-.273.077-.1.15-.197.15-.287 0-.09-.073-.186-.15-.288" transform="translate(.5 1)"/>
        </g>
        <path stroke="#FFF" stroke-width=".1" d="M0 0H12V16H0z" opacity=".01"/>
    </g>
</svg>
