<?xml version="1.0" encoding="UTF-8"?>
<svg width="35px" height="35px" viewBox="0 0 35 35" version="1.1" xmlns="http://www.w3.org/2000/svg" xmlns:xlink="http://www.w3.org/1999/xlink">
    <!-- Generator: Sketch 52.5 (67469) - http://www.bohemiancoding.com/sketch -->
    <title>linh kien</title>
    <desc>Created with Sketch.</desc>
    <g id="Page-1" stroke="none" stroke-width="1" fill="none" fill-rule="evenodd">
        <g id="Artboard" transform="translate(-431.000000, -83.000000)" fill="#000000" fill-rule="nonzero">
            <g id="linh-kien" transform="translate(431.000000, 83.000000)">
                <g id="noun_ram_1900146">
                    <g id="Group" transform="translate(0.360000, 0.000000)">
                        <path d="M26.7136457,7.84635429 L7.84635429,7.84635429 L7.84635429,26.7136457 L26.7136457,26.7136457 L26.7136457,7.84635429 Z M25.47936,25.47936 L9.08064,25.47936 L9.08064,9.08064 L25.47936,9.08064 L25.47936,25.47936 Z" id="Shape"></path>
                        <path d="M34.56,9.25714286 L34.56,8.02285714 L30.24,8.02285714 L30.24,4.32 L26.5371429,4.32 L26.5371429,0 L25.3028571,0 L25.3028571,4.32 L21.6,4.32 L21.6,0 L20.3657143,0 L20.3657143,4.32 L15.4285714,4.32 L15.4285714,0 L14.1942857,0 L14.1942857,4.32 L9.25714286,4.32 L9.25714286,0 L8.02285714,0 L8.02285714,4.32 L4.32,4.32 L4.32,8.02285714 L0,8.02285714 L0,9.25714286 L4.32,9.25714286 L4.32,12.96 L0,12.96 L0,14.1942857 L4.32,14.1942857 L4.32,19.1314286 L0,19.1314286 L0,20.3657143 L4.32,20.3657143 L4.32,25.3028571 L0,25.3028571 L0,26.5371429 L4.32,26.5371429 L4.32,30.24 L8.02285714,30.24 L8.02285714,34.56 L9.25714286,34.56 L9.25714286,30.24 L14.1942857,30.24 L14.1942857,34.56 L15.4285714,34.56 L15.4285714,30.24 L20.3657143,30.24 L20.3657143,34.56 L21.6,34.56 L21.6,30.24 L25.3028571,30.24 L25.3028571,34.56 L26.5371429,34.56 L26.5371429,30.24 L30.24,30.24 L30.24,26.5371429 L34.56,26.5371429 L34.56,25.3028571 L30.24,25.3028571 L30.24,20.3657143 L34.56,20.3657143 L34.56,19.1314286 L30.24,19.1314286 L30.24,14.1942857 L34.56,14.1942857 L34.56,12.96 L30.24,12.96 L30.24,9.25714286 L34.56,9.25714286 Z M29.0057143,29.0057143 L5.55428571,29.0057143 L5.55428571,5.55428571 L29.0057143,5.55428571 L29.0057143,29.0057143 Z" id="Shape"></path>
                    </g>
                </g>
            </g>
        </g>
    </g>
</svg>