<?xml version="1.0" encoding="UTF-8" standalone="no"?>
<svg width="60px" height="60px" viewBox="0 0 60 60" version="1.1" xmlns="http://www.w3.org/2000/svg" xmlns:xlink="http://www.w3.org/1999/xlink">
    <!-- Generator: Sketch 46.2 (44496) - http://www.bohemiancoding.com/sketch -->
    <title>07</title>
    <desc>Created with Sketch.</desc>
    <defs></defs>
    <g id="UI" stroke="none" stroke-width="1" fill="none" fill-rule="evenodd">
        <g id="07" fill="#000000">
            <path d="M52.4613865,50.3664987 L30.3735749,50.3664987 L30.3735749,44.0553031 C30.3735749,41.8143192 31.0310668,39.664951 32.273912,37.8367528 C32.5676192,37.5176416 32.8056766,37.2119125 33.0128175,36.8876544 C35.1316315,34.4274102 38.1903085,33.0222916 41.4169655,33.0222916 C47.5064946,33.0222916 52.4613865,37.971603 52.4613865,44.0553031 L52.4613865,50.3664987 Z M27.0531378,38.1342468 L12.8140069,38.1342468 C10.0655259,38.1342468 7.83025957,36.2895783 7.83025957,34.0228596 L7.82716792,12.4097686 L32.0348241,12.4097686 L32.0348241,34.023889 C32.0348241,36.2906077 29.8005883,38.1342468 27.0531378,38.1342468 L27.0531378,38.1342468 Z M13.7085257,10.5846585 L26.156558,10.5846585 L26.156558,2.82716882 L13.7085257,2.82716882 L13.7085257,10.5846585 Z M42.6783606,31.5759974 L42.3063315,31.53791 L42.3063315,11.707724 C42.3063315,11.2177339 41.907508,10.8193596 41.4169655,10.8193596 C40.9274535,10.8193596 40.52863,11.2177339 40.52863,11.707724 L40.52863,31.53791 L40.1576314,31.5759974 C38.1573309,31.7736405 36.2023746,32.4684793 34.5019645,33.5843391 L33.8640531,34.0033012 L33.8630225,11.4977282 C33.8630225,10.9943561 33.452863,10.5846585 32.9478927,10.5846585 L27.9837259,10.5846585 L27.9837259,1.91409911 C27.9837259,1.40969757 27.5735664,1 27.0696266,1 L12.7933959,1 C12.2894562,1 11.8782661,1.40969757 11.8782661,1.91409911 L11.8782661,10.5846585 L6.91512979,10.5846585 C6.67191962,10.5846585 6.44210662,10.6793625 6.26691285,10.8533295 C6.0979024,11.0221497 6,11.2568508 6,11.4977282 L6.0020611,34.0228596 C6.0020611,37.2963226 9.05867703,39.9603862 12.8140069,39.9603862 L19.0179273,39.9603862 L19.0179273,58.0879597 C19.0179273,58.5903024 19.4280868,59 19.9320265,59 C20.4359662,59 20.8461258,58.5903024 20.8461258,58.0879597 L20.8461258,39.9603862 L27.0531378,39.9603862 C27.6807437,39.9603862 28.3155635,39.8800937 28.9421388,39.7225969 L29.6614638,39.5414241 L29.435773,40.2465569 C29.0379801,41.4900611 28.8349615,42.7716527 28.8349615,44.0553031 L28.8349615,51.1354536 C28.8349615,51.5585333 29.1801962,51.9033792 29.6037529,51.9033792 L34.7410525,51.9033792 L34.7410525,58.2156041 C34.7358997,58.6428014 35.0759817,58.9938237 35.4995384,59 L35.5046912,59 C35.7077098,59 35.9066063,58.9207369 36.0488224,58.7817691 C36.1951607,58.6397132 36.2776048,58.4482465 36.2806965,58.2433977 L36.2806965,51.9033792 L46.554265,51.9033792 L46.554265,58.2156041 C46.5491122,58.6428014 46.8891942,58.9938237 47.3127509,59 L47.3179037,59 C47.5085557,59 47.7270327,58.9125018 47.8620349,58.7817691 C48.0083732,58.6397132 48.0908174,58.4482465 48.093909,58.2433977 L48.093909,51.9033792 L53.230178,51.9033792 C53.6547652,51.9033792 54,51.5585333 54,51.1354536 L54,44.0553031 C54,37.5824933 49.132705,32.217308 42.6783606,31.5759974 L42.6783606,31.5759974 Z" id="Fill-1"></path>
        </g>
    </g>
</svg>