<svg width="34" height="30" xmlns="http://www.w3.org/2000/svg" xmlns:xlink="http://www.w3.org/1999/xlink"><defs><path id="a" d="M33.368 13.807V.061H0v13.746z"/></defs><g fill="none" fill-rule="evenodd"><path fill="#FFF" d="M.723 9.855h31.675v-1.2H.723z"/><path d="M20.848 27.87h-8.633v-6.71c0-1.325 1.453-2.316 2.752-2.316h3.527c1.342 0 2.354.996 2.354 2.316v6.71zm8.991-13.497v-.01a.592.592 0 0 0-.6-.562.592.592 0 0 0-.592.678v10.404c0 2.343-.484 2.987-2.674 2.987H22.04v-6.71c0-1.948-1.558-3.474-3.546-3.474h-3.527c-1.865 0-3.943 1.426-3.943 3.474v6.71h-3.14c-2.286 0-3.07-.763-3.07-2.987v-10.43a.567.567 0 0 0 0-.137v-.007h-.002a.594.594 0 0 0-.595-.508.594.594 0 0 0-.595.51v.004a.578.578 0 0 0 0 .14v10.428c0 2.88 1.3 4.145 4.263 4.145h18.089c2.847 0 3.865-1.163 3.865-4.145V14.396v-.011-.012z" fill="#FE9900"/><g transform="translate(0 .096)"><mask id="b" fill="#fff"><use xlink:href="#a"/></mask><path d="M33.326 8.68L29.949.428a.597.597 0 0 0-.554-.366H4.37a.597.597 0 0 0-.545.344L.051 8.658a.567.567 0 0 0-.05.235v.422c0 1.478.797 2.814 1.995 3.637.207.134.436.27.69.394.283.132.58.239.89.315v.008c.799.198 1.791.198 3.038-.26.176-.075.346-.16.51-.256l.022-.013c.167-.099.328-.206.482-.323l.014-.012a4.82 4.82 0 0 0 .44-.38l.008-.009a4.614 4.614 0 0 0 .729-.924 4.64 4.64 0 0 0 4.035 2.314c1.72 0 3.223-.922 4.015-2.284a4.63 4.63 0 0 0 4.01 2.284c1.71 0 3.205-.919 3.996-2.278.096.166.203.325.32.476.038.051.083.096.123.145.082.098.162.196.252.287.054.054.113.103.17.154.084.078.168.156.258.227.064.051.133.095.2.142.09.064.18.128.274.185.073.044.15.081.226.121.095.05.19.102.289.145.08.036.164.065.247.096.1.038.2.075.305.106.086.025.175.045.263.065.106.025.21.048.32.065.09.015.183.024.276.033.028.002.055.006.082.01.632.072 1.907.027 3.306-1.033a4.45 4.45 0 0 0 1.582-3.437v-.42a.566.566 0 0 0-.042-.214" fill="#FE9900" mask="url(#b)"/></g><path d="M8.476 8.877l.017.773c-.01 1.799-1.618 3.315-3.523 3.315-.092 0-.184-.006-.275-.013l-.08-.005c-1.528-.152-2.802-1.274-3.101-2.682a1.962 1.962 0 0 1-.067-.509l.001-.065V9.65l.003-.013c.016-.277.09-.539.211-.775l3.35-7.324h5.26l-1.796 7.34zM16.259 8.877l-.014.773c-.009 1.83-1.539 3.315-3.419 3.315-1.881 0-3.413-1.486-3.422-3.315l.014-.773 1.797-7.339h5.044v7.34zM24.175 9.65c-.009 1.83-1.53 3.315-3.4 3.315-1.877 0-3.404-1.486-3.413-3.315l.012-.773V1.538h5.043l1.797 7.34-.039.772zM32.213 10.413a3.276 3.276 0 0 1-2.857 2.53c-.012 0-.022-.003-.034-.003-.036 0-.07.007-.104.013-.081.005-.161.012-.243.012-1.888 0-3.368-1.455-3.376-3.315l.07-.773-1.797-7.339h5.245l3.002 7.34a1.957 1.957 0 0 1 .094 1.535" fill="#FE9900"/></g></svg>