<?xml version="1.0" encoding="UTF-8" standalone="no"?>
<svg width="60px" height="60px" viewBox="0 0 60 60" version="1.1" xmlns="http://www.w3.org/2000/svg" xmlns:xlink="http://www.w3.org/1999/xlink">
    <!-- Generator: Sketch 46.2 (44496) - http://www.bohemiancoding.com/sketch -->
    <title>02</title>
    <desc>Created with Sketch.</desc>
    <defs></defs>
    <g id="UI" stroke="none" stroke-width="1" fill="none" fill-rule="evenodd">
        <g id="02" fill="#000000">
            <path d="M53.4581145,45.1885099 C53.4581145,45.8587433 52.9575103,46.3842011 52.3175754,46.3842011 L47.0470519,46.3842011 L47.0470519,13.6157989 L52.3175754,13.6157989 C52.9254519,13.6157989 53.4581145,14.1748654 53.4581145,14.8114901 L53.4581145,45.1885099 Z M13.0774827,46.448833 L45.5051663,46.448833 L45.5051663,13.6804309 L13.0774827,13.6804309 L13.0774827,46.448833 Z M11.5355971,46.448833 L7.6824246,46.448833 C7.07516461,46.448833 6.54188553,45.8904129 6.54188553,45.2531418 L6.54188553,14.8761221 C6.54188553,14.2052424 7.04310621,13.6804309 7.6824246,13.6804309 L11.5355971,13.6804309 L11.5355971,46.448833 Z M52.3175754,12 L7.6824246,12 C6.20403936,12 5,13.2616158 5,14.8114901 L5,45.1885099 C5,46.7383842 6.20403936,48 7.6824246,48 L52.3175754,48 C53.7965771,48 55,46.7383842 55,45.1885099 L55,14.8114901 C55,13.2616158 53.7965771,12 52.3175754,12 L52.3175754,12 Z M50.2649133,29.1704488 C49.8179453,29.1704488 49.4554388,29.5504847 49.4554388,30.0190664 C49.4554388,30.4876481 49.8179453,30.8670377 50.2649133,30.8670377 C50.7112648,30.8670377 51.0737713,30.4876481 51.0737713,30.0190664 C51.0737713,30.008079 51.0688392,29.9996768 51.0682227,29.9880431 C51.0669897,29.9234111 51.0521935,29.8600718 51.0312323,29.7980251 C50.9369066,29.4393178 50.6366674,29.1704488 50.2649133,29.1704488 Z" id="Fill-1"></path>
        </g>
    </g>
</svg>