<?xml version="1.0" encoding="UTF-8" standalone="no"?>
<svg width="60px" height="60px" viewBox="0 0 60 60" version="1.1" xmlns="http://www.w3.org/2000/svg" xmlns:xlink="http://www.w3.org/1999/xlink">
    <!-- Generator: Sketch 46.2 (44496) - http://www.bohemiancoding.com/sketch -->
    <title>06</title>
    <desc>Created with Sketch.</desc>
    <defs></defs>
    <g id="UI" stroke="none" stroke-width="1" fill="none" fill-rule="evenodd">
        <g id="06" fill="#000000">
            <path d="M57.8529254,45.1619388 L2.14707461,45.1619388 C1.8692179,45.1619388 1.64188058,44.9232937 1.64188058,44.6301392 L1.64188058,9.26014827 C1.64188058,8.96699374 1.8692179,8.72768393 2.14707461,8.72768393 L57.8529254,8.72768393 C58.1314136,8.72768393 58.3587509,8.96699374 58.3587509,9.26014827 L58.3587509,44.6301392 C58.3587509,44.9232937 58.1314136,45.1619388 57.8529254,45.1619388 M57.8529254,7 L2.14707461,7 C0.963026112,7 0,8.01374297 0,9.26014827 L0,44.6301392 C0,45.8765445 0.963026112,46.8902874 2.14707461,46.8902874 L29.1793755,46.8902874 L29.1793755,51.2716513 L17.8257712,51.2716513 C17.3729911,51.2716513 17.0048309,51.6592003 17.0048309,52.1358257 C17.0048309,52.612451 17.3729911,53 17.8257712,53 L42.1742288,53 C42.6270089,53 42.9958006,52.612451 42.9958006,52.1358257 C42.9958006,51.6592003 42.6270089,51.2716513 42.1742288,51.2716513 L30.821256,51.2716513 L30.821256,46.8902874 L57.8529254,46.8902874 C59.0369739,46.8902874 60,45.8765445 60,44.6301392 L60,9.26014827 C60,8.01374297 59.0369739,7 57.8529254,7" id="Page-1-Copy-2"></path>
        </g>
    </g>
</svg>