<?xml version="1.0" encoding="UTF-8"?>
<svg width="33px" height="46px" viewBox="0 0 33 46" version="1.1" xmlns="http://www.w3.org/2000/svg" xmlns:xlink="http://www.w3.org/1999/xlink">
    <!-- Generator: Sketch 52.5 (67469) - http://www.bohemiancoding.com/sketch -->
    <title>thiet bi deo thong minh</title>
    <desc>Created with Sketch.</desc>
    <g id="Page-1" stroke="none" stroke-width="1" fill="none" fill-rule="evenodd">
        <g id="Artboard" transform="translate(-202.000000, -78.000000)">
            <g id="thiet-bi-deo-thong-minh" transform="translate(201.000000, 77.000000)">
                <g id="Group-10" transform="translate(1.600000, 1.680000)">
                    <path d="M29.02635,18.9165816 L30.8124,18.9165816 L30.8124,15.0932376 L29.02635,15.0932376 L29.02635,18.9165816 Z M27.7313625,34.3878696 C27.7313625,36.3202056 26.2110937,37.8337176 24.2701312,37.8337176 L4.75621875,37.8337176 C2.81525625,37.8337176 1.2949875,36.3202056 1.2949875,34.3878696 L1.2949875,10.8697176 C1.2949875,8.9378856 2.81525625,7.4243736 4.75621875,7.4243736 L24.2701312,7.4243736 C26.2110937,7.4243736 27.7313625,8.9378856 27.7313625,10.8697176 L27.7313625,34.3878696 Z M20.6727188,43.9684056 L8.35363125,43.9684056 L7.23178125,39.1224456 L21.795075,39.1224456 L20.6727188,43.9684056 Z M8.3379375,1.2891816 L20.6889187,1.2891816 L21.8107687,6.1351416 L7.21558125,6.1351416 L8.3379375,1.2891816 Z M31.4604,13.8040056 L29.02635,13.8040056 L29.02635,10.8697176 C29.02635,8.2589976 26.8925062,6.1351416 24.2701312,6.1351416 L23.1174,6.1351416 L21.8148187,0.4893336 C21.7495125,0.2227176 21.4680375,0.0009576 21.1880812,-5.04e-05 L7.83675,-5.04e-05 C7.56590625,0.0024696 7.37960625,0.1561896 7.20343125,0.5276376 L5.90844375,6.1351416 L4.75621875,6.1351416 C2.13384375,6.1351416 0,8.2589976 0,10.8697176 L0,34.3878696 C0,35.6554296 0.49966875,36.8483976 1.40686875,37.7475336 C2.30191875,38.6345736 3.48249375,39.1224456 4.73293125,39.1224456 L4.7547,39.1224456 L5.6062125,39.1224456 L5.90844375,39.1224456 L7.2120375,44.7521256 C7.2748125,45.0298296 7.55578125,45.2556216 7.83928125,45.2576376 L21.1890937,45.2576376 C21.4700625,45.2546136 21.7520437,45.0283176 21.8143125,44.7536376 L23.1179062,39.1224456 L24.2701312,39.1224456 C26.8925062,39.1224456 29.02635,36.9985896 29.02635,34.3878696 L29.02635,20.2058136 L31.4604,20.2058136 C31.7869312,20.2058136 32.1073875,19.8867816 32.1073875,19.5611976 L32.1073875,14.4486216 C32.1073875,14.1235416 31.7869312,13.8040056 31.4604,13.8040056 Z" id="Fill-1" fill="#020303"></path>
                    <path d="M10.4048044,18.5387328 C11.5393106,18.5387328 12.4591669,17.6234688 12.4591669,16.4935008 C12.4591669,15.3640368 11.5393106,14.4487728 10.4048044,14.4487728 C9.27029813,14.4487728 8.35044187,15.3640368 8.35044187,16.4935008 C8.35044187,17.6234688 9.27029813,18.5387328 10.4048044,18.5387328 Z" id="Stroke-3" stroke="#020303" stroke-width="1.1088"></path>
                    <path d="M18.621495,18.5387328 C19.7560013,18.5387328 20.6758575,17.6234688 20.6758575,16.4935008 C20.6758575,15.3640368 19.7560013,14.4487728 18.621495,14.4487728 C17.4869887,14.4487728 16.5671325,15.3640368 16.5671325,16.4935008 C16.5671325,17.6234688 17.4869887,18.5387328 18.621495,18.5387328 Z" id="Stroke-4" stroke="#020303" stroke-width="1.1088"></path>
                    <path d="M17.5946681,22.628844 C17.5946681,20.934396 16.2146306,19.5615 14.5131244,19.5615 C12.8116181,19.5615 11.4320869,20.9349 11.4320869,22.628844 C11.4320869,24.322788 12.8116181,25.696188 14.5131244,25.696188 C16.2146306,25.696188 17.5946681,24.322788 17.5946681,22.628844 Z" id="Stroke-5" stroke="#020303" stroke-width="1.1088"></path>
                    <path d="M9.3779775,22.628844 C9.3779775,21.49938 8.45812125,20.583612 7.323615,20.583612 C6.18910875,20.583612 5.26975875,21.49938 5.26975875,22.628844 C5.26975875,23.758308 6.18910875,24.674076 7.323615,24.674076 C8.45812125,24.674076 9.3779775,23.758308 9.3779775,22.628844 Z" id="Stroke-6" stroke="#020303" stroke-width="1.1088"></path>
                    <path d="M21.7029881,20.5837632 C20.5684819,20.5837632 19.6486256,21.4995312 19.6486256,22.6289952 C19.6486256,23.7584592 20.5684819,24.6737232 21.7029881,24.6737232 C22.8369881,24.6737232 23.7573506,23.7584592 23.7573506,22.6289952 C23.7573506,21.4995312 22.8369881,20.5837632 21.7029881,20.5837632 Z" id="Stroke-7" stroke="#020303" stroke-width="1.1088"></path>
                    <path d="M10.4048044,26.7189048 C9.27029813,26.7189048 8.35044187,27.6341688 8.35044187,28.7641368 C8.35044187,29.8936008 9.27029813,30.8088648 10.4048044,30.8088648 C11.5393106,30.8088648 12.4591669,29.8936008 12.4591669,28.7641368 C12.4591669,27.6341688 11.5393106,26.7189048 10.4048044,26.7189048 Z" id="Stroke-8" stroke="#020303" stroke-width="1.1088"></path>
                    <path d="M18.621495,26.7189048 C17.4869887,26.7189048 16.5671325,27.6341688 16.5671325,28.7641368 C16.5671325,29.8936008 17.4869887,30.8088648 18.621495,30.8088648 C19.7560013,30.8088648 20.6758575,29.8936008 20.6758575,28.7641368 C20.6758575,27.6341688 19.7560013,26.7189048 18.621495,26.7189048 Z" id="Stroke-9" stroke="#020303" stroke-width="1.1088"></path>
                </g>
            </g>
        </g>
    </g>
</svg>