<?xml version="1.0" encoding="UTF-8" standalone="no"?>
<svg width="82px" height="83px" viewBox="0 0 82 83" version="1.1" xmlns="http://www.w3.org/2000/svg" xmlns:xlink="http://www.w3.org/1999/xlink">
    <!-- Generator: Sketch 46.1 (44463) - http://www.bohemiancoding.com/sketch -->
    <title>Quan ao</title>
    <desc>Created with Sketch.</desc>
    <defs>
        <polygon id="path-1" points="81.6815756 82.6504 0 82.6504 0 0.0004 81.6815756 0.0004 81.6815756 82.6504"></polygon>
    </defs>
    <g id="Page-1" stroke="none" stroke-width="1" fill="none" fill-rule="evenodd">
        <g id="Artboard" transform="translate(-349.000000, -350.000000)">
            <g id="Quan-ao" transform="translate(349.000000, 350.000000)">
                <mask id="mask-2" fill="white">
                    <use xlink:href="#path-1"></use>
                </mask>
                <g id="Clip-2"></g>
                <path d="M70.5192,67.6436 L69.5512,63.6746 L78.0842,61.1146 L78.9582,64.9526 L70.5192,67.6436 Z M67.9442,16.5506 L77.5292,58.6716 L68.9842,61.2346 L61.2462,26.4146 L67.9442,16.5506 Z M58.6592,75.3326 L42.0912,79.7716 L42.0912,14.5876 L44.0402,11.2126 L46.9332,15.9966 C47.1152,16.2976 47.4152,16.5076 47.7602,16.5756 C47.8402,16.5916 47.9222,16.5996 48.0022,16.5996 C48.2682,16.5996 48.5292,16.5156 48.7462,16.3546 L58.8692,8.8726 L66.7642,13.8386 L58.8742,25.4566 C58.7332,25.6656 58.6852,25.9116 58.6852,26.1596 L58.6592,26.1596 L58.6592,75.3326 Z M22.9972,26.1596 C22.9972,25.9116 22.9492,25.6656 22.8072,25.4566 L14.9182,13.8386 L22.8122,8.8726 L32.9362,16.3546 C33.1532,16.5156 33.4152,16.5996 33.6802,16.5996 C33.7602,16.5996 33.8422,16.5916 33.9222,16.5756 C34.2672,16.5076 34.5672,16.2976 34.7492,15.9966 L37.6422,11.2126 L39.5912,14.5876 L39.5912,79.7716 L23.0232,75.3326 L23.0232,26.1596 L22.9972,26.1596 Z M12.6982,61.2346 L4.1532,58.6716 L13.7382,16.5506 L20.4352,26.4146 L12.6982,61.2346 Z M11.1632,67.6436 L2.7242,64.9526 L3.5972,61.1146 L12.1312,63.6746 L11.1632,67.6436 Z M27.2772,3.1316 L36.0642,8.9896 L33.3202,13.5296 L24.5822,7.0706 L27.2772,3.1316 Z M40.2612,2.4996 L50.6762,2.6126 L43.2362,7.5736 C42.9022,7.7956 42.7292,8.1546 42.7032,8.5276 L40.8412,11.7526 L38.9792,8.5286 C38.9532,8.1546 38.7812,7.7956 38.4462,7.5736 L31.0002,2.6086 L40.2612,2.4996 Z M57.1002,7.0706 L48.3622,13.5296 L45.6182,8.9896 L54.4052,3.1316 L57.1002,7.0706 Z M81.6502,65.5176 L80.2702,59.4496 C80.2642,59.3566 80.2472,59.2626 80.2192,59.1686 C80.2082,59.1316 80.1952,59.0956 80.1812,59.0606 L69.7442,13.1926 C69.6712,12.8696 69.4722,12.5886 69.1912,12.4116 L59.6982,6.4396 L55.7792,0.7136 C55.7572,0.6806 55.7332,0.6486 55.7082,0.6186 C55.5582,0.4326 55.3622,0.2996 55.1482,0.2256 C55.0582,0.1936 54.9622,0.1726 54.8632,0.1636 C54.8212,0.1586 54.7752,0.1456 54.7352,0.1566 L40.2732,-0.0004 C40.2692,-0.0004 40.2672,0.0016 40.2632,0.0016 C40.2572,0.0016 40.2512,-0.0004 40.2452,-0.0004 L26.9452,0.1566 C26.9252,0.1486 26.8632,0.1586 26.8222,0.1626 C26.7182,0.1726 26.6172,0.1956 26.5212,0.2296 C26.3112,0.3046 26.1202,0.4356 25.9722,0.6196 C25.9482,0.6496 25.9242,0.6806 25.9032,0.7136 L21.9842,6.4396 L12.4912,12.4116 C12.2102,12.5886 12.0112,12.8696 11.9382,13.1926 L1.5002,59.0626 C1.4862,59.0976 1.4742,59.1326 1.4632,59.1686 C1.4352,59.2616 1.4182,59.3546 1.4132,59.4476 L0.0312,65.5176 C-0.1128,66.1506 0.2512,66.7886 0.8702,66.9856 L11.6802,70.4326 C11.8042,70.4726 11.9332,70.4916 12.0602,70.4916 C12.2722,70.4916 12.4832,70.4376 12.6722,70.3316 C12.9742,70.1626 13.1922,69.8746 13.2742,69.5386 L14.8412,63.1146 C14.8432,63.1056 14.8402,63.0976 14.8422,63.0886 L14.8472,63.0896 L20.5232,37.5466 L20.5232,76.2916 C20.5232,76.8576 20.9032,77.3526 21.4492,77.4986 L40.5172,82.6076 C40.6242,82.6366 40.7332,82.6506 40.8412,82.6506 C40.9492,82.6506 41.0582,82.6366 41.1652,82.6076 L60.2322,77.4986 C60.7792,77.3526 61.1592,76.8576 61.1592,76.2916 L61.1592,37.5466 L66.8352,63.0896 L66.8392,63.0886 C66.8412,63.0976 66.8382,63.1056 66.8412,63.1146 L68.4082,69.5386 C68.4902,69.8746 68.7082,70.1626 69.0102,70.3316 C69.1992,70.4376 69.4102,70.4916 69.6222,70.4916 C69.7492,70.4916 69.8782,70.4726 70.0022,70.4326 L80.8112,66.9856 C81.4302,66.7886 81.7942,66.1506 81.6502,65.5176 L81.6502,65.5176 Z" id="Fill-1" fill="#020303" mask="url(#mask-2)"></path>
            </g>
        </g>
    </g>
</svg>