<?xml version="1.0" encoding="UTF-8" standalone="no"?>
<svg width="59px" height="87px" viewBox="0 0 59 87" version="1.1" xmlns="http://www.w3.org/2000/svg" xmlns:xlink="http://www.w3.org/1999/xlink">
    <!-- Generator: Sketch 46.2 (44496) - http://www.bohemiancoding.com/sketch -->
    <title>Dong ho</title>
    <desc>Created with Sketch.</desc>
    <defs>
        <polygon id="path-1" points="31.9286241 0.065 0.925933911 0.065 0.925933911 20.5519 31.9286241 20.5519 31.9286241 0.065"></polygon>
    </defs>
    <g id="Page-1" stroke="none" stroke-width="1" fill="none" fill-rule="evenodd">
        <g id="Artboard" transform="translate(-1126.000000, -331.000000)">
            <g id="Dong-ho" transform="translate(1126.000000, 330.000000)">
                <path d="M29.4424,17.5962 C14.5864,17.5962 2.5004,29.6822 2.5004,44.5382 C2.5004,59.3942 14.5864,71.4802 29.4424,71.4802 C44.2974,71.4802 56.3834,59.3942 56.3834,44.5382 C56.3834,29.6822 44.2974,17.5962 29.4424,17.5962 M29.4424,73.9802 C13.2084,73.9802 0.0004,60.7722 0.0004,44.5382 C0.0004,28.3042 13.2084,15.0962 29.4424,15.0962 C45.6764,15.0962 58.8834,28.3042 58.8834,44.5382 C58.8834,60.7722 45.6764,73.9802 29.4424,73.9802" id="Fill-1" fill="#020303"></path>
                <path d="M35.8418,52.1875 C35.5218,52.1875 35.2018,52.0655 34.9578,51.8215 L28.1928,45.0555 L28.1928,30.4415 C28.1928,29.7515 28.7518,29.1915 29.4428,29.1915 C30.1328,29.1915 30.6928,29.7515 30.6928,30.4415 L30.6928,44.0205 L36.7258,50.0535 C37.2138,50.5415 37.2138,51.3335 36.7258,51.8215 C36.4818,52.0655 36.1618,52.1875 35.8418,52.1875" id="Fill-3" fill="#020303"></path>
                <g id="Group-7" transform="translate(13.000000, 0.935100)">
                    <mask id="mask-2" fill="white">
                        <use xlink:href="#path-1"></use>
                    </mask>
                    <g id="Clip-6"></g>
                    <path d="M2.179,20.5519 C2.11,20.5519 2.041,20.5459 1.972,20.5349 C1.29,20.4209 0.83,19.7769 0.943,19.0959 L3.753,2.2389 C3.858,1.0129 4.883,0.0649 6.123,0.0649 L6.125,0.0649 L26.761,0.0649 C27.915,0.0759 28.89,0.8999 29.091,2.0249 L31.91,18.2419 C32.028,18.9209 31.573,19.5689 30.893,19.6869 C30.216,19.8039 29.565,19.3499 29.447,18.6689 L26.647,2.5649 L6.229,2.5919 L3.41,19.5069 C3.308,20.1189 2.778,20.5519 2.179,20.5519 L2.179,20.5519 Z" id="Fill-5" fill="#020303" mask="url(#mask-2)"></path>
                </g>
                <path d="M18.9834,87.9351 C17.8284,87.9251 16.8524,87.1001 16.6534,85.9731 L13.8334,69.7591 C13.7144,69.0791 14.1704,68.4311 14.8504,68.3131 C15.5244,68.1941 16.1774,68.6491 16.2954,69.3301 L19.0964,85.4351 L39.5334,85.4351 L42.3334,68.6341 C42.4464,67.9531 43.0894,67.4911 43.7714,67.6071 C44.4534,67.7201 44.9134,68.3641 44.7994,69.0451 L41.9804,85.9601 C41.7784,87.1001 40.8024,87.9251 39.6594,87.9351 L18.9834,87.9351 Z" id="Fill-8" fill="#020303"></path>
            </g>
        </g>
    </g>
</svg>