<?xml version="1.0" encoding="UTF-8" standalone="no"?>
<svg width="88px" height="68px" viewBox="0 0 88 68" version="1.1" xmlns="http://www.w3.org/2000/svg" xmlns:xlink="http://www.w3.org/1999/xlink">
    <!-- Generator: Sketch 46.1 (44463) - http://www.bohemiancoding.com/sketch -->
    <title>Giay dep</title>
    <desc>Created with Sketch.</desc>
    <defs>
        <polygon id="path-1" points="0.000327206954 -0.0001 87.559 -0.0001 87.559 67.3269 0.000327206954 67.3269"></polygon>
    </defs>
    <g id="Page-1" stroke="none" stroke-width="1" fill="none" fill-rule="evenodd">
        <g id="Artboard" transform="translate(-510.000000, -350.000000)">
            <g id="Giay-dep" transform="translate(510.000000, 350.000000)">
                <mask id="mask-2" fill="white">
                    <use xlink:href="#path-1"></use>
                </mask>
                <g id="Clip-2"></g>
                <path d="M17.9001,33.5383 C14.6061,34.7563 12.5841,40.4463 13.4281,64.2593 L13.4421,64.6473 L10.2011,64.6473 L10.1731,64.3033 C9.8761,60.7163 9.7591,57.2953 9.6481,53.5153 C9.3521,44.0683 9.0981,35.9453 5.1371,28.8333 C2.8591,24.7443 2.1781,20.1643 3.2171,15.9383 C4.4931,10.7493 8.1681,6.3483 14.1411,2.8583 L14.4061,2.7033 L14.6101,2.9333 C20.1901,9.2193 25.2241,15.6183 30.0931,21.8063 C41.9241,36.8973 52.1421,49.9313 62.6841,50.3493 L63.1661,50.3253 C65.4451,50.3043 67.7201,49.7363 69.7411,48.6813 L69.8741,48.6123 L70.0181,48.6533 C78.5611,51.0693 83.3011,53.7523 84.5091,56.8543 C85.1461,58.4823 84.8471,60.3433 83.5971,62.5433 L83.5111,62.6933 L83.3421,62.7253 C74.7431,64.3813 66.7801,64.6683 55.1151,64.6683 C53.0321,64.6683 50.8341,64.6593 48.4901,64.6473 L48.3211,64.6463 L48.2101,64.5193 C43.9151,59.6223 40.0591,54.7233 36.6551,50.4003 L36.0161,49.5873 C27.3511,38.5863 22.1471,31.9833 17.9001,33.5383 M33.9301,51.2273 L34.0191,51.3403 C37.6561,55.9543 41.7791,61.1833 46.3821,66.4643 C46.8581,67.0083 47.5441,67.3233 48.2671,67.3273 L54.7481,67.3273 C67.2321,67.3273 75.6921,66.9863 84.6451,65.1923 C85.0181,65.1243 85.3421,64.9073 85.5411,64.5943 C87.5531,61.4173 88.0641,58.4863 87.0581,55.8843 C85.4551,51.7513 80.2361,48.6583 70.1341,45.8543 C69.7981,45.7593 69.4451,45.8013 69.1391,45.9693 C58.0991,52.0303 47.9081,40.1113 32.1981,20.1543 C27.2201,13.8213 22.0721,7.2733 16.2611,0.8013 C15.4801,-0.0447 14.2281,-0.2467 13.2151,0.3183 C2.9761,6.1353 -4.2179,17.6153 2.7951,30.1543 C6.4441,36.6933 6.6911,44.5103 6.9771,53.5613 C7.0801,56.8763 7.2051,60.9323 7.5591,65.0723 C7.6811,66.3463 8.7411,67.3173 10.0251,67.3273 L13.6801,67.3273 C14.3431,67.3253 14.9661,67.0643 15.4341,66.5933 C15.9011,66.1223 16.1581,65.4973 16.1561,64.8333 C15.4781,46.6133 16.3851,36.9583 18.8511,36.0593 C21.1141,35.2203 26.2891,41.5203 33.9301,51.2273" id="Fill-1" fill="#020303" mask="url(#mask-2)"></path>
            </g>
        </g>
    </g>
</svg>