<?xml version="1.0" encoding="UTF-8" standalone="no"?>
<svg width="60px" height="86px" viewBox="0 0 60 86" version="1.1" xmlns="http://www.w3.org/2000/svg" xmlns:xlink="http://www.w3.org/1999/xlink">
    <!-- Generator: Sketch 46.2 (44496) - http://www.bohemiancoding.com/sketch -->
    <title>Nuoc hoa</title>
    <desc>Created with Sketch.</desc>
    <defs>
        <polygon id="path-1" points="60 0 0 0 0 86 60 86"></polygon>
    </defs>
    <g id="Page-1" stroke="none" stroke-width="1" fill="none" fill-rule="evenodd">
        <g id="Artboard" transform="translate(-1515.000000, -316.000000)">
            <g id="Nuoc-hoa" transform="translate(1515.000000, 316.000000)">
                <mask id="mask-2" fill="white">
                    <use xlink:href="#path-1"></use>
                </mask>
                <g id="Clip-2"></g>
                <path d="M40.6853881,43.6045258 L40.792042,43.6956187 C46.3318919,48.3848339 49.5089476,55.5294174 49.5089476,63.2961242 C49.5089476,70.9686326 46.1831918,78.3626866 40.6136018,83.0777805 L40.5059224,83.1688734 L11.8078179,83.1688734 L11.7001384,83.0777805 C6.131574,78.3626866 2.80581811,70.9675975 2.80581811,63.2961242 C2.80581811,55.5294174 5.98287384,48.3848339 11.5227238,43.6956187 L11.6293777,43.6045258 L40.6853881,43.6045258 Z M16.9251543,40.7713288 L35.388586,40.7713288 L35.388586,21.4140828 L16.9251543,21.4140828 L16.9251543,40.7713288 Z M48.5880322,3.01227732 C53.1731246,3.01227732 57.1941819,4.96456428 57.1941819,7.18909485 C57.1941819,9.20659605 53.7361341,11.3659124 48.5880322,11.3659124 C43.5168441,11.3659124 39.9818825,9.16415503 39.9818825,7.18909485 C39.9818825,4.96456428 44.0029398,3.01227732 48.5880322,3.01227732 L48.5880322,3.01227732 Z M36.791495,18.581921 L27.6489993,18.581921 L27.6489993,8.60517573 L36.791495,8.60517573 C36.8355923,8.60517573 36.8848172,8.59378912 36.9473738,8.57826192 L37.4027039,8.49130958 L37.515511,8.78943187 C38.7245971,11.9662975 43.0697182,14.0179586 48.5880322,14.0179586 C55.0939204,14.0179586 60,11.0822821 60,7.18909485 C60,3.22448243 54.8806126,0 48.5880322,0 C43.1035603,0 38.5112892,2.28456909 37.4191122,5.55563312 L37.319637,5.85479056 L37.0078794,5.81649013 C36.955578,5.81027925 36.9063531,5.79992778 36.8581537,5.78750602 L27.6489993,5.77301396 L27.6489993,3.40045739 C27.6489993,2.52679345 27.1126532,1.98541165 26.2471157,1.98541165 C25.3815783,1.98541165 24.8442067,2.52679345 24.8442067,3.40045739 L24.8442067,18.581921 L15.5232707,18.581921 C14.6577333,18.581921 14.1203617,19.1253731 14.1203617,19.9980019 L14.1203617,40.772364 L11.0540619,40.772364 C10.7884527,40.772364 10.4797717,40.927636 10.1546823,41.0922244 C3.72673355,46.3642273 0,54.4746028 0,63.2961242 C0,72.282234 3.79031569,80.4567886 10.3997812,85.7225806 C10.6592374,85.8457631 10.9668929,86 11.2335276,86 L41.0812381,86 C41.3478729,86 41.6555284,85.8457631 41.9816432,85.6801396 C48.5234245,80.3149735 52.3147658,72.1393837 52.3147658,63.2961242 C52.3147658,54.4746028 48.5880322,46.3642273 42.0903482,41.0466779 C41.9806177,40.9390226 41.5581042,40.772364 41.2607038,40.772364 L38.1944041,40.772364 L38.1944041,19.9980019 C38.1944041,19.1253731 37.6570325,18.581921 36.791495,18.581921 L36.791495,18.581921 Z" id="Fill-1" fill="#020303" mask="url(#mask-2)"></path>
            </g>
        </g>
    </g>
</svg>