<?xml version="1.0" encoding="UTF-8" standalone="no"?>
<svg width="58px" height="76px" viewBox="0 0 58 76" version="1.1" xmlns="http://www.w3.org/2000/svg" xmlns:xlink="http://www.w3.org/1999/xlink">
    <!-- Generator: Sketch 46.2 (44496) - http://www.bohemiancoding.com/sketch -->
    <title>Thoi trang, phu kien khac</title>
    <desc>Created with Sketch.</desc>
    <defs>
        <polygon id="path-1" points="0 57.9995623 0 0.564858941 57.463483 0.564858941 57.463483 57.9995623"></polygon>
        <polygon id="path-3" points="30.5327857 11.8423091 30.5327857 0.741818182 0.1395 0.741818182 0.1395 22.9428 30.5327857 22.9428 30.5327857 11.8423091"></polygon>
    </defs>
    <g id="Page-1" stroke="none" stroke-width="1" fill="none" fill-rule="evenodd">
        <g id="Artboard" transform="translate(-1701.000000, -329.000000)">
            <g id="Thoi-trang,-phu-kien-khac" transform="translate(1701.000000, 329.000000)">
                <g id="Group-3" transform="translate(0.000000, 18.000000)">
                    <mask id="mask-2" fill="white">
                        <use xlink:href="#path-1"></use>
                    </mask>
                    <g id="Clip-2"></g>
                    <path d="M28.758917,3.30118491 C18.2313698,3.30118491 8.30570943,9.74793962 4.40110566,20.1726189 C1.96838868,26.6719019 2.21023774,33.7292981 5.08506792,40.0458264 C7.96099245,46.3612604 13.1229925,51.1796377 19.6222755,53.6134491 C33.0334075,58.6320906 48.0389925,51.808883 53.0620113,38.3922792 C55.4958226,31.8929962 55.2528792,24.8366943 52.3780491,18.520166 C49.5021245,12.2036377 44.3401245,7.38526038 37.8408415,4.95144906 C34.8500113,3.83193962 31.7792943,3.30118491 28.758917,3.30118491 M28.700917,57.9995623 C25.3620868,57.9995623 21.9707283,57.4140906 18.6625396,56.1752981 C11.4792943,53.4854113 5.77340755,48.1603547 2.59653962,41.1784679 C-0.582516981,34.1976755 -0.851724528,26.3972226 1.83816226,19.2139774 C7.39193585,4.38567547 23.9700868,-3.16307925 38.8005774,2.3896 C45.9838226,5.07948679 51.6897094,10.4056377 54.8665774,17.3864302 C58.045634,24.3672226 58.3148415,32.1687698 55.6249547,39.3520151 C51.3099736,50.8732226 40.3359358,57.9995623 28.700917,57.9995623" id="Fill-1" fill="#231F20" mask="url(#mask-2)"></path>
                </g>
                <path d="M29.52603,6.38453353 L36.0504869,8.81264954 L36.6196255,16.4417168 L34.0769663,15.4969707 L29.52603,6.38453353 Z M35.9538202,3.2088077 L35.9842322,5.43224668 L36.0168165,7.73001574 L30.6338951,5.72848976 L29.9365918,5.4688731 L35.9538202,3.2088077 Z M43.1592884,5.52058098 L37.0258427,7.74401996 L36.9986891,5.77912039 L36.9639326,3.21527119 L43.1592884,5.52058098 Z M42.3468539,10.0881107 L37.9827341,8.46254408 L40.0702996,7.70631629 L43.7523221,6.37052931 L42.3468539,10.0881107 Z M39.5261423,17.5211189 L37.6601498,16.8273714 L37.0920974,9.21123114 L41.9569288,11.0942599 L39.5261423,17.5211189 Z M42.9007865,11.4454426 L47.8144944,13.2035106 L42.3381648,18.5649718 L40.47,17.8712243 L42.9007865,11.4454426 Z M44.6972659,6.72386651 L46.4557303,9.90605582 L47.6450562,12.0583965 L43.2928839,10.4382161 L44.6972659,6.72386651 Z M51.8277903,8.74693744 L48.834382,12.1338038 L46.4698502,7.84959022 L45.705206,6.46855884 L51.8277903,8.74693744 Z M52.5794007,9.41590818 L55.4402996,14.9605014 L54.9135206,14.7655196 L49.5979401,12.7876931 L50.9110861,11.3021687 L52.5794007,9.41590818 Z M45.8083895,19.8555144 C45.8040449,19.8544371 45.8007865,19.8512054 45.7975281,19.8501281 L43.3808614,18.9527809 L48.864794,13.5827018 L55.1383521,15.9181745 L45.8083895,19.8555144 Z M34.150824,16.594686 L36.9932584,17.6503886 C37.0095506,17.6557748 37.0236704,17.6622383 37.0399625,17.6676245 L44.9720599,20.6128194 L44.9720599,20.6117421 L44.9720599,20.6128194 L44.2030712,22.6509718 L45.1469288,23 L45.9441573,20.8864403 L56.6937079,16.3501508 C56.7523596,16.3253741 56.7914607,16.2747434 56.8359925,16.2316535 C56.8414232,16.2251901 56.8533708,16.2241128 56.8588015,16.2165721 C56.8609738,16.2144176 56.8620599,16.2101086 56.8642322,16.2079541 C56.9250562,16.1390102 56.9598127,16.0582167 56.9739326,15.9677279 C56.9750187,15.9580327 56.9804494,15.9494147 56.9815356,15.9418739 C56.9837079,15.920329 57,15.9020158 57,15.8793936 C56.9978277,15.811527 56.9652434,15.7544329 56.9380899,15.6930298 C56.9326592,15.68118 56.9370037,15.6682531 56.931573,15.6574806 L56.916367,15.6273177 C56.9098502,15.6154679 56.9076779,15.6036182 56.8989888,15.593923 L53.1365918,8.30634319 C53.1268165,8.28802998 53.1072659,8.2772575 53.0953184,8.26002154 C53.0714232,8.22447237 53.0442697,8.19323219 53.0116854,8.16522376 C52.9845318,8.14044706 52.9541199,8.12213385 52.9226217,8.10489789 C52.9008989,8.09412542 52.886779,8.07473496 52.8650562,8.06611698 L44.7874157,5.06059627 L36.62397,2.02168088 C36.6055056,2.01414015 36.5848689,2.01952639 36.5642322,2.01414015 C36.5229588,2.00444492 36.4838577,1.99905868 36.4425843,2.00013593 C36.4034831,2.00121318 36.3676404,2.00552217 36.3296255,2.01414015 C36.3089888,2.01844914 36.2883521,2.01414015 36.2688015,2.02168088 L28.3258427,5.00457939 C28.2867416,5.01858361 28.267191,5.05413278 28.2335206,5.07567773 C28.1998502,5.09829993 28.1585768,5.10584067 28.1292509,5.13708084 C28.1216479,5.14569883 28.1227341,5.15754855 28.1151311,5.16724378 C28.0847191,5.20494744 28.0727715,5.25019184 28.0543071,5.29543624 C28.0347566,5.34391238 28.0130337,5.38592503 28.0097753,5.43871016 C28.0097753,5.45055989 28,5.45917787 28,5.47210484 C28,5.5098085 28.0238951,5.53997143 28.0325843,5.57659785 C28.0412734,5.61645601 28.0325843,5.65631417 28.0521348,5.69294059 L33.2536704,16.1088473 L32.4271161,18.2978144 L33.3753184,18.6479198 L34.150824,16.594686 Z" id="Fill-4" fill="#020303"></path>
                <g id="Group-8" transform="translate(27.000000, 0.000000)">
                    <mask id="mask-4" fill="white">
                        <use xlink:href="#path-3"></use>
                    </mask>
                    <g id="Clip-7"></g>
                    <path d="M3.70671429,4.66134545 L8.30246429,6.35989091 L8.25596429,2.96389091 L3.70671429,4.66134545 Z M9.15053571,7.5468 L1.35071429,4.66570909 L9.06971429,1.78570909 L9.15053571,7.5468 Z M10.1159643,2.97370909 L10.1624643,6.38498182 L14.8113571,4.71043636 L10.1159643,2.97370909 Z M9.34982143,7.54898182 L9.26789286,1.7868 L17.2027857,4.72025455 L9.34982143,7.54898182 Z M11.9261429,7.70061818 L14.9364643,8.81334545 L15.9063214,6.26607273 L11.9261429,7.70061818 Z M15.4225,9.86716364 L9.53692857,7.68970909 L17.3179286,4.88716364 L15.4225,9.86716364 Z M16.678,9.45589091 L19.6783571,10.5653455 L17.64675,6.91189091 L16.678,9.45589091 Z M21.4818929,12.1068 L15.6096071,9.93370909 L17.5039286,4.95589091 L21.4818929,12.1068 Z M19.50675,6.44607273 L21.8716071,10.7038909 L24.1357143,8.15770909 L19.50675,6.44607273 Z M21.7143929,12.1220727 L17.701,4.90570909 L25.55175,7.80752727 L21.7143929,12.1220727 Z M23.2798929,11.8995273 L27.6697143,13.5217091 L25.5185357,9.38389091 L23.2798929,11.8995273 Z M29.3835714,15.0282545 L21.86275,12.2497091 L25.7001071,7.93734545 L29.3835714,15.0282545 Z M7.05028571,14.4926182 L8.88039286,15.1678909 L8.36667857,8.34098182 L2.94942857,6.33807273 L7.05028571,14.4926182 Z M9.80375,16.3820727 L6.45132143,15.1449818 L1.27210714,4.84352727 L9.15607143,7.75843636 L9.80375,16.3820727 Z M10.7968571,15.8748 L12.0612143,16.3417091 L14.2489286,10.5937091 L10.2853571,9.06970909 L10.7968571,15.8748 Z M12.54725,17.3944364 L10.0074643,16.4573455 L9.35978571,7.83589091 L15.3151071,10.1246182 L12.54725,17.3944364 Z M13.8016429,16.9831636 L15.0682143,17.4511636 L19.9927857,12.6598909 L15.9893571,11.2373455 L13.8016429,16.9831636 Z M15.2730357,18.4002545 L12.7310357,17.4620727 L15.5,10.1933455 L21.5128929,12.3304364 L15.2730357,18.4002545 Z M16.9868929,18.1591636 L18.7018571,18.7908 L27.10175,15.2693455 L21.9258571,13.3548 L16.9868929,18.1591636 Z M18.7184643,19.6733455 L15.4800714,18.4766182 L21.7210357,12.4046182 L29.3348571,15.2213455 L18.7184643,19.6733455 Z M0.948821429,4.79334545 L0.935535714,4.82170909 C0.939964286,4.81516364 0.944392857,4.80425455 0.948821429,4.79334545 L0.948821429,4.79334545 Z M30.4597143,14.9366182 L30.46525,14.9813455 C30.4641429,14.9704364 30.4630357,14.9551636 30.4597143,14.9366182 L30.4597143,14.9366182 Z M17.6057857,21.8224364 L17.7906786,21.8900727 L18.5202857,19.9678909 L29.6415357,15.2693455 L29.6825,15.1842545 L29.6769643,15.1624364 L29.6758571,15.1635273 C29.6725357,15.1591636 29.6703214,15.1548 29.6681071,15.1504364 L29.64375,15.1035273 L25.6713214,7.6308 L9.17932143,1.55989091 L9.08078571,1.57298182 L1.08942857,4.55443636 C1.06728571,4.57407273 1.04514286,4.59152727 1.02078571,4.6068 L0.990892857,4.66789091 C0.990892857,4.67116364 0.992,4.67443636 0.993107143,4.67770909 L1.00528571,4.75843636 L6.36164286,15.4155273 L5.60325,17.4140727 L5.79146429,17.4838909 L6.58196429,15.4024364 L18.3896429,19.7595273 L17.6057857,21.8224364 Z M18.2767143,22.9428 L16.5373929,22.3024364 L17.32125,20.2384364 L7.068,16.4562545 L6.2775,18.5355273 L4.53375,17.8951636 L5.45821429,15.4613455 L0.198178571,4.99625455 L0.17825,4.83807273 C0.179357143,4.85007273 0.1395,4.77807273 0.1395,4.66570909 L0.161642857,4.52716364 C0.174928571,4.45734545 0.199285714,4.39843636 0.217,4.35589091 C0.242464286,4.29043636 0.264607143,4.23261818 0.296714286,4.17698182 L0.366464286,4.0668 C0.459464286,3.96970909 0.538071429,3.93370909 0.575714286,3.91625455 C0.571285714,3.9108 0.6355,3.84970909 0.73625,3.81152727 L9.00992857,0.758072727 C9.01325,0.750436364 9.09296429,0.739527273 9.17378571,0.741709091 C9.238,0.741709091 9.30664286,0.749345455 9.37860714,0.765709091 L9.49596429,0.7908 L26.195,6.99589091 C26.2082857,7.00134545 26.2669643,7.03625455 26.3256429,7.08752727 C26.3821071,7.13661818 26.4341429,7.19334545 26.4795357,7.25989091 L26.5470714,7.34934545 L30.4552857,14.9006182 C30.4929286,14.9868 30.52725,15.0784364 30.5316786,15.1929818 L30.5327857,15.2824364 L30.4885,15.3991636 C30.4718929,15.5300727 30.4021429,15.6806182 30.2925357,15.8060727 L30.2847857,15.7995273 L30.2449286,15.8322545 L30.2537857,15.8398909 C30.17075,15.9249818 30.0910357,16.0068 29.9648214,16.0591636 L19.1735,20.5842545 L18.2767143,22.9428 Z" id="Fill-6" fill="#231F20" mask="url(#mask-4)"></path>
                </g>
            </g>
        </g>
    </g>
</svg>