<?xml version="1.0" encoding="UTF-8" standalone="no"?>
<svg width="73px" height="73px" viewBox="0 0 73 73" version="1.1" xmlns="http://www.w3.org/2000/svg" xmlns:xlink="http://www.w3.org/1999/xlink">
    <!-- Generator: Sketch 46.2 (44496) - http://www.bohemiancoding.com/sketch -->
    <title>Tui xach</title>
    <desc>Created with Sketch.</desc>
    <defs>
        <polygon id="path-1" points="0.000128184151 72.2935 72.26 72.2935 72.26 0.0005 0.000128184151 0.0005"></polygon>
    </defs>
    <g id="Page-1" stroke="none" stroke-width="1" fill="none" fill-rule="evenodd">
        <g id="Artboard" transform="translate(-1311.000000, -330.000000)">
            <g id="Tui-xach" transform="translate(1311.000000, 330.000000)">
                <mask id="mask-2" fill="white">
                    <use xlink:href="#path-1"></use>
                </mask>
                <g id="Clip-2"></g>
                <path d="M66.5936,69.2286 L66.3986,69.4926 L5.8366,69.4926 L5.6416,69.2256 C0.6236,62.3436 2.9096,56.9316 7.0606,47.1056 L7.2286,46.7086 L30.0256,46.7086 L30.0256,53.9646 C30.0256,54.3266 30.1756,54.6906 30.4376,54.9626 L35.1366,59.6776 C35.6056,60.1446 36.4976,60.2736 37.1216,59.6686 L41.8226,54.9546 C42.0786,54.6966 42.2266,54.3366 42.2266,53.9646 L42.2266,46.7086 L65.0256,46.7086 L65.1926,47.1096 C69.9346,58.5226 71.3326,62.7966 66.5936,69.2286 L66.5936,69.2286 Z M38.7906,47.3586 L39.4416,47.3736 L39.4416,53.3786 L36.1266,56.7106 L32.8096,53.3936 L32.8096,46.7236 L38.7906,46.7236 L38.7906,47.3586 Z M8.7036,43.0536 C10.0236,39.6406 11.5516,35.1006 11.6596,30.2496 L11.6736,29.6146 L60.5776,29.6146 L60.5916,30.2506 C60.6986,35.1006 62.2276,39.6406 63.5466,43.0536 L63.8886,43.9376 L8.3626,43.9376 L8.7036,43.0536 Z M20.5836,26.1316 C21.2666,13.0406 28.0936,2.7856 36.1256,2.7856 C44.1576,2.7856 50.9856,13.0406 51.6676,26.1316 L51.7026,26.8146 L20.5486,26.8146 L20.5836,26.1316 Z M68.0936,46.8016 C65.5916,40.9046 63.0036,34.8066 63.4216,28.3116 C63.4466,27.9226 63.3126,27.5516 63.0456,27.2686 C62.7806,26.9846 62.4186,26.8296 62.0286,26.8296 L54.4956,26.8296 L54.4686,26.2076 C53.8136,11.2676 45.9276,-0.0004 36.1256,-0.0004 C26.3226,-0.0004 18.4376,11.2606 17.7826,26.1936 L17.7556,26.8146 L10.2236,26.8146 C9.8366,26.8146 9.4766,26.9726 9.2076,27.2576 C8.9406,27.5416 8.8056,27.9116 8.8286,28.2976 C9.2466,34.7936 6.6596,40.8916 4.1576,46.7876 C0.5826,55.2706 -3.0984,64.0096 4.2376,71.8466 C4.5186,72.1276 4.8246,72.2746 5.1876,72.2936 L67.1136,72.2926 C67.4366,72.2736 67.7516,72.1226 68.0446,71.8306 C75.3556,64.0046 71.6676,55.2696 68.1026,46.8206 L68.6926,46.5476 L68.0936,46.8016 Z" id="Fill-1" fill="#020303" mask="url(#mask-2)"></path>
            </g>
        </g>
    </g>
</svg>